<svg width="1238" height="1033" viewBox="0 0 1238 1033" fill="none" xmlns="http://www.w3.org/2000/svg">
<path style="mix-blend-mode:screen" d="M442.922 623.241C576.064 615.076 677.572 503.75 669.647 374.586C661.722 245.422 547.365 147.333 414.223 155.497C281.081 163.661 179.573 274.987 187.498 404.151C195.423 533.315 309.78 631.405 442.922 623.241Z" fill="url(#paint0_radial_333_2110)"/>
<path style="mix-blend-mode:screen" d="M623.519 836.525C740.295 829.364 829.326 731.721 822.375 618.432C815.424 505.144 715.123 419.11 598.347 426.271C481.571 433.432 392.54 531.075 399.491 644.363C406.442 757.652 506.743 843.685 623.519 836.525Z" fill="url(#paint1_radial_333_2110)"/>
<path d="M704.638 850.025L704.771 850.407C703.542 850.855 702.329 851.354 701.116 851.819C693.363 854.875 685.716 858.135 678.173 861.601L677.658 861.933C671.154 851.237 665.328 840.143 660.214 828.716L660.43 828.617L660.563 828.517C669.169 824.199 677.924 819.997 685.799 814.383C686.347 814.001 686.912 813.586 687.46 813.171L687.56 813.304C694.248 825.057 699.96 837.338 704.638 850.025Z" fill="url(#paint2_linear_333_2110)"/>
<path d="M734.277 789.736C731.702 785.867 729.11 781.98 726.502 778.11L726.336 777.895C722.167 781.043 718.194 784.443 714.44 788.075L712.928 789.487L710.486 791.895C714.843 796.081 719.989 799.359 725.625 801.537C731.261 803.716 737.274 804.752 743.315 804.584L743.896 804.186C740.723 799.369 737.517 794.536 734.277 789.736ZM763.45 833.815C759.812 840.973 759.779 849.543 761.656 857.333C763.819 864.859 766.858 872.105 770.71 878.923C773.745 880.548 776.913 881.909 780.18 882.993C785.366 884.737 790.828 885.514 796.295 885.284V884.62C785.408 867.669 774.46 850.733 763.45 833.815ZM736.736 820.528C736.011 819.937 735.257 819.382 734.476 818.867C723.661 811.643 708.343 812.324 697.926 804.385C697.644 804.667 697.345 804.933 697.046 805.199C693.972 808.022 690.832 810.729 687.51 813.221L687.609 813.353C694.301 825.128 700.013 837.432 704.688 850.141L704.821 850.523C708.772 848.95 712.952 848.024 717.198 847.783C724.175 847.886 730.964 850.06 736.702 854.028C739.866 856.092 742.896 858.356 745.773 860.804C747.391 854.002 747.79 846.968 746.953 840.027C746.019 832.506 742.389 825.578 736.736 820.528Z" fill="url(#paint3_linear_333_2110)"/>
<path d="M811.165 881.199C806.587 883.768 801.459 885.203 796.212 885.384V884.72C785.403 867.702 774.493 850.75 763.484 833.865C760.36 829.104 757.226 824.343 754.081 819.582C750.758 814.444 747.374 809.312 743.93 804.186C740.756 799.369 737.55 794.536 734.31 789.736C731.735 785.866 729.144 781.98 726.535 778.11L726.369 777.894C731.43 774.028 737.026 770.917 742.983 768.66C747.967 775.154 752.652 781.764 757.204 788.491C763.168 797.31 768.833 806.328 774.299 815.446C787.241 836.987 799.07 859.193 811.165 881.199Z" fill="url(#paint4_linear_333_2110)"/>
<path d="M770.628 879.023C764.354 875.563 758.453 871.466 753.017 866.799C750.592 864.773 748.216 862.714 745.807 860.687C747.424 853.886 747.823 846.851 746.987 839.91C746.017 832.426 742.377 825.544 736.736 820.528C736.012 819.937 735.257 819.383 734.477 818.868C723.661 811.643 708.343 812.324 697.927 804.385C702.213 800.349 706.35 796.081 710.536 792.012C714.893 796.198 720.039 799.475 725.675 801.654C731.311 803.832 737.325 804.868 743.365 804.701L743.946 804.302C747.358 809.428 750.741 814.56 754.097 819.698C757.232 824.448 760.366 829.209 763.5 833.981C759.862 841.139 759.829 849.709 761.706 857.499C763.832 864.996 766.826 872.22 770.628 879.023Z" fill="url(#paint5_linear_333_2110)"/>
<path d="M774.316 815.446C767.764 817.686 760.952 819.076 754.047 819.582C747.513 820.033 740.949 819.754 734.476 818.751C721.232 816.6 708.515 811.962 696.996 805.082C697.295 804.817 697.594 804.551 697.877 804.269C702.163 800.233 706.3 795.964 710.486 791.895L712.928 789.487L714.44 788.075C718.194 784.443 722.167 781.043 726.336 777.894C731.397 774.028 736.993 770.917 742.949 768.66C747.933 775.154 752.618 781.764 757.17 788.491C763.184 797.276 768.85 806.328 774.316 815.446Z" fill="url(#paint6_linear_333_2110)"/>
<path d="M865.192 667.897L865.059 668.76C858.392 667.628 852.111 664.854 846.784 660.689C840.338 655.872 834.889 649.877 829.107 644.296L829.755 643.632C834.507 637.271 840.97 632.405 846.17 626.426C849.233 622.87 851.911 619.001 854.161 614.883H854.343C864.976 623.42 875.409 632.211 885.643 641.257L884.862 642.121C877.689 650.225 871.115 658.839 865.192 667.897Z" fill="url(#paint7_linear_333_2110)"/>
<path d="M902.788 577.016L903.07 576.501C893.878 571.541 884.624 566.735 875.309 562.085L874.794 561.836C871.313 569.68 868.295 577.721 865.756 585.918C872.199 587.362 878.887 587.311 885.307 585.768C891.726 584.224 897.707 581.231 902.788 577.016ZM897.073 603.075C891.973 603.075 886.972 604.021 881.921 604.403C874.561 604.977 867.156 604.361 859.991 602.576C858.352 606.816 856.437 610.943 854.26 614.933H854.442C865.075 623.47 875.509 632.261 885.742 641.307C888.213 638.423 891.037 635.862 894.149 633.684C903.203 627.688 914.783 627.738 925.532 629.93C919.086 623.852 918.222 613.156 911.377 607.426C907.256 604.365 902.201 602.828 897.073 603.075ZM938.723 596.73C936.019 603.655 935.608 611.264 937.552 618.439C939.496 625.614 943.692 631.977 949.522 636.59C954.729 638.088 960.092 638.974 965.504 639.231C975.311 639.492 984.979 636.877 993.315 631.707C975.539 619.45 957.341 607.791 938.723 596.73Z" fill="url(#paint8_linear_333_2110)"/>
<path d="M881.922 604.403C874.561 604.977 867.156 604.36 859.992 602.576C862.135 597.162 864.013 591.581 865.84 585.968C872.283 587.412 878.971 587.36 885.39 585.817C891.81 584.274 897.79 581.28 902.872 577.066L903.154 576.551C915.16 583.006 927.044 589.749 938.807 596.78C936.102 603.704 935.692 611.314 937.636 618.489C939.58 625.664 943.775 632.026 949.606 636.64C942.96 634.979 936.448 632.621 929.802 630.927C928.407 630.561 926.995 630.229 925.549 629.963C919.103 623.885 918.239 613.189 911.394 607.459C907.296 604.401 902.266 602.852 897.157 603.074C891.973 603.041 886.973 604.021 881.922 604.403Z" fill="url(#paint9_linear_333_2110)"/>
<path d="M874.795 561.836C877.536 555.796 881.097 550.162 885.378 545.095C895.346 551.024 904.949 557.219 914.501 563.364C944.705 582.796 974.897 602.228 1005.08 621.659C1001.73 625.639 997.761 629.044 993.316 631.741C975.595 619.451 957.398 607.775 938.724 596.714C926.984 589.683 915.099 582.94 903.071 576.485C893.878 571.524 884.625 566.719 875.31 562.069L874.795 561.836Z" fill="url(#paint10_linear_333_2110)"/>
<path d="M738.547 734.746C729.744 728.917 721.693 722.028 714.573 714.234Z" fill="url(#paint11_linear_333_2110)"/>
<path d="M611.137 609.336L610.988 609.668C597.946 632.92 582.147 655.125 561.912 672.581C541.676 690.036 516.64 702.609 490.025 705.233H489.626C490.008 701.147 490.473 697.095 490.972 693.042C503.05 691.382 514.231 685.917 524.996 680.32C532.485 676.659 539.702 672.469 546.594 667.781C556.038 660.723 564.634 652.597 572.212 643.566C582.794 631.491 592.625 618.778 601.651 605.5C604.891 606.577 608.06 607.858 611.137 609.336Z" fill="url(#paint12_linear_333_2110)"/>
<path d="M831.848 644.014C833.177 645.293 834.473 646.589 835.769 647.917C831.604 655.119 826.788 661.923 821.382 668.246C807.493 683.526 787.407 691.73 772.023 705.565C761.621 714.956 753.618 726.698 748.681 739.812C747.079 741.461 745.107 742.705 742.929 743.441C740.751 744.178 738.429 744.385 736.154 744.047C731.786 743.31 727.636 741.608 724.01 739.064C702.196 724.964 691.165 698.872 671.345 682.081C664.367 676.168 656.393 671.435 650.212 664.609C646.076 659.992 643.002 654.644 639.314 649.661C630.376 637.637 618.115 628.502 605.455 620.513L604.857 620.165C606.967 616.693 608.994 613.189 610.988 609.668L611.137 609.336C628.731 617.79 643.118 631.741 653.934 647.685C657.481 653.816 662.386 659.054 668.271 662.998C675.839 668.976 682.83 675.648 689.155 682.928C697.993 693.092 705.469 704.386 714.573 714.318L738.547 734.763L738.829 734.347C745.873 713.653 762.337 697.643 779.482 684.057C796.628 670.471 815.201 658.364 829.323 641.639C830.154 642.403 831.001 643.2 831.848 644.014Z" fill="url(#paint13_linear_333_2110)"/>
<path d="M869.728 665.057C848.13 697.842 827.513 731.291 808.258 765.571C800.134 781.083 783.038 791.264 765.345 794.852C762.204 795.483 759.032 795.943 755.842 796.23C748.867 796.811 741.854 796.745 734.892 796.031C728.856 795.464 722.856 794.572 716.916 793.357C715.122 793.008 713.344 792.659 711.583 792.261C669.169 782.96 629.313 764.824 591.966 742.353L591.883 742.485C577.064 773.759 564.769 807.009 560.815 841.173C566.647 838.715 573.06 837.984 579.356 837.253L639.165 830.61C647.804 829.63 657.074 828.384 663.371 822.405C663.936 824.066 664.534 825.627 665.132 827.222C669.113 837.948 673.774 848.411 679.087 858.545C679.907 860.106 680.738 861.667 681.579 863.229C646.342 879.339 614.128 903.504 576.133 911.21C559.199 914.64 541.748 914.64 524.814 911.21C518.434 910.662 513.932 903.687 511.058 897.093C507.758 889.202 505.076 881.067 503.034 872.762C488.612 818.17 484.028 761.448 489.494 705.249H489.892C516.474 702.659 541.527 690.053 561.779 672.597C578.957 657.783 592.929 639.613 604.725 620.181L605.323 620.53C617.983 628.519 630.243 637.653 639.182 649.678C642.87 654.66 645.943 660.025 650.08 664.625C656.177 671.451 664.235 676.251 671.212 682.097C691.032 698.888 702.064 724.98 723.877 739.081C727.504 741.625 731.653 743.327 736.022 744.063C738.296 744.402 740.619 744.194 742.797 743.458C744.975 742.721 746.947 741.477 748.548 739.828C753.486 726.715 761.489 714.973 771.89 705.582C787.275 691.747 807.36 683.542 821.249 668.263C826.656 661.94 831.472 655.135 835.637 647.934C839.172 651.608 842.957 655.032 846.967 658.181C851.558 661.782 856.978 664.175 862.733 665.14C865.054 665.493 867.416 665.465 869.728 665.057Z" fill="url(#paint14_linear_333_2110)"/>
<path d="M592.082 742.353L591.999 742.485C577.18 773.759 564.886 807.009 560.932 841.173C513.533 841.355 564.171 724.499 564.171 724.499L592.082 742.353Z" fill="url(#paint15_linear_333_2110)"/>
<path d="M756.722 744.777C754.662 744.046 752.652 743.116 750.641 742.286C748.631 741.456 746.704 740.376 744.76 739.346C740.897 737.258 737.174 734.922 733.612 732.354C730.05 729.783 726.664 726.975 723.478 723.95C720.272 720.962 717.295 717.736 714.573 714.301C716.235 715.779 717.763 717.29 719.408 718.719C721.053 720.147 722.73 721.625 724.392 723.004C727.715 725.777 731.037 728.484 734.659 731.009C738.281 733.533 741.786 735.991 745.458 738.25C749.129 740.509 752.884 742.668 756.722 744.777Z" fill="#00163D"/>
<path d="M575.568 781.532C573.342 788.723 571.165 795.898 569.255 803.123C567.344 810.347 565.583 817.672 564.271 825.046C562.958 832.42 561.762 839.827 560.948 847.284C560.549 851.005 560.267 854.742 560.067 858.495C559.868 862.249 559.752 865.986 559.702 869.756C559.386 866.002 559.287 862.232 559.253 858.462C559.22 854.692 559.436 850.938 559.669 847.168C560.233 839.64 561.215 832.149 562.609 824.73C564.088 817.339 565.932 809.999 568.025 802.791C569.122 799.17 570.285 795.599 571.514 792.045C572.744 788.491 574.123 785.003 575.568 781.532Z" fill="#00163D"/>
<path d="M552.409 716.41C556.911 719.333 561.364 722.306 565.883 725.179C570.402 728.053 574.887 730.959 579.439 733.766C588.544 739.396 597.714 744.927 607.068 750.092C616.421 755.257 625.858 760.323 635.46 765.04C645.063 769.756 654.848 774.108 664.733 778.227C659.666 776.566 654.666 774.573 649.681 772.596C644.697 770.62 639.796 768.411 634.912 766.202C625.16 761.735 615.64 756.769 606.254 751.57C596.867 746.372 587.73 740.758 578.758 734.962C569.787 729.165 560.982 722.854 552.409 716.41Z" fill="#00163D"/>
<path d="M600.007 607.941C597.083 612.171 594.081 616.339 591.002 620.447C585.055 628.386 578.813 636.087 572.279 643.549C564.699 652.569 556.103 660.683 546.661 667.731C539.769 672.419 532.551 676.609 525.063 680.271C515.261 685.353 505.21 690.368 494.428 692.428V692.295C493.719 683.461 492.364 674.69 490.374 666.054C488.435 657.629 484.744 649.707 479.542 642.802C482.721 641.899 485.973 641.276 489.261 640.942C501.694 639.269 513.624 634.954 524.249 628.286C535.347 621.294 544.85 611.844 556.513 605.815C562.042 603.007 567.88 600.85 573.907 599.388C579.19 598.009 584.589 597.013 589.989 596.066C592.979 600.251 595.82 604.736 599.957 607.692L600.007 607.941Z" fill="url(#paint16_linear_333_2110)"/>
<path d="M600.006 607.941C597.082 612.171 594.081 616.339 591.002 620.447C584.385 614.229 578.605 607.178 573.807 599.471C579.09 598.092 584.489 597.096 589.889 596.149C592.879 600.334 595.72 604.819 599.857 607.775L600.006 607.941Z" fill="url(#paint17_linear_333_2110)"/>
<path d="M186.114 460.126V460.674L170.597 461.936C170.622 463.729 171.202 465.47 172.258 466.919C165.53 467.417 159.449 463.199 152.937 461.504C148.75 460.425 144.314 460.358 140.244 458.914C137.537 457.93 135.079 456.366 133.041 454.332C131.004 452.298 129.436 449.842 128.448 447.138C138.375 445.13 148.643 445.586 158.353 448.467C167.993 451.361 177.299 455.269 186.114 460.126Z" fill="url(#paint18_linear_333_2110)"/>
<path d="M391.34 546.091C388.267 533.635 384.479 520.913 377.435 510.366L377.103 510.582L363.048 517.99C357.964 520.663 352.581 523.437 346.932 523.935C346.185 523.935 345.437 524.018 344.69 523.935C341.815 522.64 338.975 521.295 336.15 519.983C304.053 505.284 269.696 496.183 236.203 485.105C233.086 484.224 230.113 482.893 227.381 481.152C225.423 479.684 223.624 478.014 222.015 476.17C218.693 472.632 215.17 469.211 211.549 465.955C209.108 463.448 206.132 461.523 202.843 460.325C199.873 459.649 196.805 459.52 193.789 459.943L186.196 460.558L170.679 461.82C170.704 463.613 171.285 465.353 172.341 466.802C168.137 466.902 163.785 467.317 160.196 469.526C156.608 471.735 154.099 476.17 155.212 480.139C155.637 481.452 156.34 482.659 157.272 483.677L157.156 483.76C156.329 484.262 155.687 485.02 155.327 485.918C154.968 486.817 154.91 487.808 155.162 488.742C155.335 489.453 155.609 490.135 155.976 490.768C153.91 491.985 152.398 493.956 151.757 496.266C151.125 499.471 153.202 502.527 155.362 504.985C159.012 509.121 163.289 512.657 168.038 515.465C169.618 516.624 171.571 517.156 173.52 516.96C175.431 516.545 176.926 514.186 175.796 512.592L175.879 512.476C177.45 513.715 179.086 514.868 180.78 515.93C182.558 517.043 185.017 518.006 186.628 516.628C187.082 516.177 187.406 515.611 187.564 514.991C187.722 514.371 187.708 513.72 187.525 513.107C187.135 511.893 186.514 510.765 185.698 509.785C183.738 507.128 181.65 504.575 179.435 502.128C180.11 502.446 180.818 502.691 181.545 502.859C185.033 503.69 188.589 502.494 191.911 500.866L192.011 501.099C192.137 501.208 192.27 501.307 192.41 501.398C198.042 505.749 205.983 505.367 212.911 507.177C215.576 507.907 218.16 508.908 220.62 510.167C223.61 511.645 226.484 513.389 229.309 515.149C259.479 533.751 289.35 553.216 322.128 566.735C331.067 570.422 340.503 573.694 350.072 574.093C352.29 574.192 354.511 574.119 356.718 573.877C370.657 572.332 382.685 563.912 394.048 555.691C392.96 552.546 392.055 549.341 391.34 546.091Z" fill="url(#paint19_linear_333_2110)"/>
<path d="M309.817 509.32C314.519 510.698 319.138 512.326 323.723 514.053C328.308 515.781 332.827 517.707 337.28 519.75C341.732 521.793 346.101 523.968 350.57 525.895C352.797 526.858 355.073 527.739 357.382 528.486C359.686 529.279 362.039 529.923 364.426 530.413C361.973 530.228 359.54 529.845 357.149 529.267C354.766 528.654 352.415 527.922 350.105 527.074C345.453 525.413 341.051 523.271 336.598 521.261C332.146 519.252 327.71 517.225 323.308 515.232L309.817 509.32Z" fill="#00163D"/>
<path d="M394.165 555.873C382.801 564.061 370.773 572.482 356.834 574.059C354.628 574.302 352.406 574.374 350.189 574.275C352.324 560.112 351.975 545.685 349.159 531.642C348.669 529.019 347.963 526.442 347.049 523.935C352.697 523.437 358.08 520.614 363.164 517.989L377.219 510.582L377.551 510.366C384.595 520.913 388.383 533.618 391.457 546.091C392.165 549.402 393.069 552.669 394.165 555.873Z" fill="url(#paint20_linear_333_2110)"/>
<path d="M220.653 509.951C220.662 510.062 220.662 510.173 220.653 510.283C218.193 509.025 215.61 508.023 212.944 507.294C206.017 505.484 197.992 505.866 192.443 501.514C192.889 500.797 193.491 500.189 194.204 499.737C195.377 499.028 196.488 498.222 197.527 497.329C198.055 496.875 198.428 496.267 198.592 495.591C198.756 494.914 198.703 494.204 198.441 493.559C197.938 492.769 197.174 492.181 196.281 491.898C192.51 490.353 188.306 490.586 184.269 490.702C182.438 490.995 180.561 490.736 178.877 489.958C177.193 489.18 175.78 487.918 174.816 486.334C173.803 485.155 172.789 483.992 171.793 482.813C170.214 480.97 168.47 478.644 169.218 476.319C169.585 475.263 170.277 474.351 171.195 473.712C172.544 472.765 174.104 472.162 175.74 471.953C177.375 471.745 179.037 471.938 180.581 472.516C184.087 473.595 187.659 474.393 191.164 475.505C196.148 477.05 200.119 480.654 204.056 483.959C207.994 487.264 212.147 490.968 216.201 494.456C217.118 495.201 217.958 496.035 218.709 496.947C221.484 500.551 221.135 505.533 220.653 509.951Z" fill="url(#paint21_linear_333_2110)"/>
<path d="M206.116 486.467C203.285 484.02 200.318 481.735 197.228 479.624C195.689 478.612 194.059 477.745 192.36 477.033C190.645 476.358 188.885 475.803 187.093 475.372C183.33 474.66 179.688 473.413 176.278 471.669C174.568 470.649 173.073 469.306 171.875 467.716C170.616 466.093 169.916 464.106 169.882 462.053V461.338H170.563C174.417 461.056 178.288 460.873 182.192 460.657C186.097 460.442 189.918 460.309 193.822 460.209C189.984 460.74 186.146 461.239 182.309 461.637C178.471 462.036 174.617 462.484 170.762 462.833L171.46 462.069C171.576 465.524 174.168 468.497 177.208 470.29C180.482 471.97 183.962 473.215 187.559 473.994C191.273 474.984 194.764 476.676 197.842 478.976C200.81 481.232 203.578 483.738 206.116 486.467Z" fill="#00163D"/>
<path d="M155.13 476.369C154.75 478.313 155.131 480.328 156.193 481.999C156.711 482.83 157.343 483.585 158.07 484.242L160.197 486.268C163.176 488.903 166.205 491.466 169.284 493.957L173.936 497.661C175.435 498.902 177.017 500.04 178.671 501.066C180.263 502.031 182.093 502.532 183.954 502.511C185.845 502.441 187.705 502.012 189.437 501.249C191.23 500.501 192.983 499.659 194.686 498.724C195.474 498.272 196.196 497.713 196.83 497.063C197.428 496.508 197.815 495.762 197.926 494.954C197.907 494.603 197.793 494.263 197.597 493.971C197.401 493.679 197.131 493.445 196.813 493.293C195.971 492.903 195.084 492.618 194.171 492.446C192.283 492.008 190.359 491.735 188.423 491.632C186.455 491.565 184.484 491.637 182.525 491.848C181.434 491.936 180.342 491.699 179.385 491.167C178.521 490.587 177.753 489.876 177.109 489.058C174.534 486.035 171.909 483.046 169.367 479.99C172.192 482.797 174.916 485.67 177.674 488.51C178.29 489.231 179.013 489.852 179.817 490.353C180.621 490.764 181.531 490.92 182.426 490.802C184.411 490.508 186.416 490.358 188.423 490.353C190.458 490.37 192.485 490.604 194.47 491.051C195.515 491.233 196.532 491.551 197.494 491.998C198.065 492.279 198.547 492.714 198.885 493.254C199.222 493.794 199.402 494.417 199.405 495.054C199.305 496.235 198.786 497.342 197.943 498.176C197.216 498.963 196.383 499.645 195.467 500.202C193.702 501.204 191.883 502.107 190.018 502.909C188.092 503.726 186.029 504.171 183.937 504.221C181.808 504.232 179.716 503.657 177.89 502.561C176.177 501.48 174.544 500.275 173.006 498.957C171.444 497.711 169.932 496.432 168.437 495.12C165.43 492.496 162.473 489.822 159.615 487.048C158.918 486.334 158.253 485.57 157.572 484.839C156.863 484.119 156.259 483.303 155.778 482.415C155.265 481.504 154.943 480.498 154.832 479.458C154.721 478.419 154.822 477.368 155.13 476.369Z" fill="#00163D"/>
<path d="M157.156 483.942C156.563 484.314 156.077 484.835 155.748 485.452C155.418 486.07 155.257 486.764 155.279 487.463C155.302 488.846 155.768 490.185 156.608 491.283C157.42 492.443 158.303 493.552 159.25 494.605L162.074 497.844C165.752 502.173 169.72 506.245 173.953 510.034C176.112 511.861 178.369 513.569 180.714 515.15C181.75 515.979 182.969 516.549 184.27 516.81C184.817 516.932 185.39 516.844 185.876 516.565C186.362 516.285 186.725 515.833 186.895 515.299C187.05 514.682 187.069 514.039 186.951 513.414C186.834 512.789 186.582 512.197 186.214 511.678C185.516 510.499 184.552 509.337 183.805 508.174C182.143 505.832 180.349 503.64 178.588 501.381C180.631 503.374 182.575 505.484 184.452 507.676C185.366 508.805 186.263 509.885 187.111 511.114C187.594 511.753 187.935 512.488 188.11 513.271C188.285 514.053 188.29 514.864 188.124 515.648C187.908 516.514 187.367 517.263 186.612 517.741C185.857 518.188 184.974 518.369 184.104 518.255C182.568 518.008 181.111 517.405 179.851 516.495C177.431 514.897 175.102 513.167 172.873 511.313C168.571 507.466 164.629 503.235 161.094 498.674L158.452 495.352C157.528 494.188 156.684 492.962 155.927 491.682C155.12 490.417 154.736 488.928 154.831 487.43C154.865 486.693 155.1 485.978 155.51 485.364C155.919 484.749 156.489 484.258 157.156 483.942Z" fill="#00163D"/>
<path d="M621.222 438.984C619.727 458.166 614.876 477.432 617.667 496.648C617.932 498.575 618.281 500.518 618.73 502.444C605.555 502.173 592.464 500.277 579.754 496.797V497.03C575.281 513.581 574.357 530.89 577.042 547.823C579.728 564.755 585.963 580.93 595.338 595.285C587.742 596.386 580.206 597.872 572.76 599.736C567.13 601.201 561.672 603.261 556.479 605.882C544.849 611.91 535.313 621.361 524.215 628.353C513.59 635.02 501.66 639.335 489.227 641.008C482.831 641.872 475.239 642.669 472.182 648.382C471.575 629.403 466.449 610.842 457.23 594.239C453.52 587.502 449.151 581.148 444.188 575.272C442.897 575.527 441.594 575.715 440.284 575.837C434.966 576.547 429.555 575.837 424.601 573.777C416.394 569.958 411.659 561.072 410.629 551.971C406.089 555.303 402.001 559.211 398.468 563.596C396.645 561.309 395.218 558.732 394.248 555.973C393.129 552.77 392.203 549.504 391.473 546.191C388.4 533.735 384.612 521.013 377.568 510.466C375.831 507.832 373.869 505.353 371.703 503.059C389.214 492.33 404.93 478.794 419.7 464.61C425.041 459.752 429.939 454.427 434.336 448.7C437.036 444.907 439.425 440.902 441.48 436.725C444.288 431.111 446.63 425.248 448.956 419.419C448.956 419.718 448.956 420 448.956 420.299C454.075 420.225 459.184 419.842 464.257 419.153C475.485 417.595 486.451 414.522 496.853 410.019C497.645 409.706 498.403 409.311 499.112 408.839L499.727 408.939C538.918 423.139 580.236 433.769 621.737 432.075C621.538 434.317 621.388 436.642 621.222 438.984Z" fill="url(#paint22_linear_333_2110)"/>
<path d="M441.348 436.625C446.98 436.36 452.595 435.928 458.161 435.197C463.726 434.466 469.258 433.536 474.774 432.208C480.29 430.879 485.623 429.401 490.956 427.64L494.943 426.262L498.88 424.75L502.801 423.189C504.097 422.624 505.393 422.076 506.705 421.528C504.263 422.957 501.721 424.219 499.213 425.481L495.325 427.142L491.388 428.803C486.097 430.848 480.667 432.513 475.14 433.785C469.618 435.07 464.01 435.953 458.36 436.426C452.703 436.943 447.015 437.01 441.348 436.625Z" fill="#00163D"/>
<path style="mix-blend-mode:multiply" d="M595.272 595.269C587.675 596.37 580.14 597.855 572.694 599.72L571.481 597.478C568.531 592.087 566.121 586.418 564.287 580.554C557.16 557.667 552.542 533.652 554.319 510.101C554.799 503.145 555.877 496.244 557.542 489.473C557.542 489.473 579.771 497.013 579.821 496.781V497.013C575.347 513.564 574.423 530.873 577.109 547.806C579.794 564.739 586.029 580.913 595.404 595.269H595.272Z" fill="url(#paint23_linear_333_2110)"/>
<path d="M481.784 568.562C486.364 568.858 490.962 568.54 495.457 567.615C499.868 566.639 504.037 564.787 507.718 562.168C511.378 559.509 514.491 556.171 516.889 552.336C518.101 550.408 519.156 548.387 520.045 546.29C520.51 545.244 520.892 544.148 521.308 543.085L522.371 539.763C522.172 540.909 521.989 542.055 521.74 543.185C521.491 544.314 521.158 545.443 520.809 546.506C520.047 548.718 519.102 550.862 517.985 552.917C515.699 557.07 512.522 560.666 508.682 563.447C504.825 566.202 500.385 568.032 495.706 568.795C495.125 568.894 494.543 569.011 493.962 569.077L492.201 569.193C491.04 569.285 489.873 569.285 488.712 569.193C486.391 569.151 484.075 568.94 481.784 568.562Z" fill="#00163D"/>
<path d="M426.727 492.778C426.562 498.049 425.471 503.249 423.504 508.141C421.66 513.124 419.384 517.807 417.39 522.64C415.332 527.408 413.665 532.334 412.406 537.372C411.816 539.884 411.422 542.439 411.226 545.012C411.135 546.295 411.135 547.582 411.226 548.865C411.343 550.127 411.226 551.423 411.525 552.685C412.162 557.775 414.102 562.615 417.157 566.736C420.266 570.814 424.734 573.642 429.751 574.708C434.839 575.663 440.066 575.612 445.135 574.558C450.316 573.75 455.106 571.313 458.808 567.599C455.28 571.589 450.541 574.313 445.317 575.355C440.131 576.6 434.75 576.803 429.485 575.953C424.103 574.956 419.284 571.997 415.961 567.649C412.691 563.348 410.596 558.272 409.881 552.917C409.648 551.589 409.715 550.243 409.615 548.898C409.515 547.566 409.515 546.228 409.615 544.895C409.839 542.241 410.272 539.609 410.911 537.023C412.211 531.883 413.997 526.878 416.244 522.076C418.387 517.276 420.779 512.625 422.773 507.792C424.908 503.039 426.244 497.966 426.727 492.778Z" fill="#00163D"/>
<path d="M594.657 500.119C589.662 499.574 584.71 498.686 579.837 497.462C574.95 496.265 570.14 494.773 565.433 492.994C560.718 491.222 556.114 489.17 551.644 486.849C549.435 485.686 547.225 484.474 544.999 483.195C542.772 481.916 540.729 480.538 538.702 479.076C540.928 480.222 543.138 481.401 545.348 482.481C547.557 483.56 549.817 484.69 552.093 485.703C556.645 487.762 561.23 489.706 565.899 491.449C570.567 493.193 575.285 494.771 580.053 496.233C584.821 497.694 589.789 498.923 594.657 500.119Z" fill="#00163D"/>
<path d="M431.994 283.794C418.221 288.877 407.622 300.403 400.777 313.44C393.932 326.478 390.41 340.878 387.137 355.177C383.865 369.477 380.725 383.976 374.544 397.28C369.378 408.391 362.2 418.422 355.057 428.371C359.924 433.353 367.334 434.781 374.279 435.595C390.493 437.472 407.506 437.439 422.325 430.48C427.542 427.853 432.542 424.815 437.277 421.395C441.148 419.059 444.555 416.03 447.328 412.46C449.404 409.179 450.773 405.503 451.349 401.664C453.675 389.391 452.179 376.752 450.684 364.345L445.7 323.322C444.006 309.438 441.945 294.557 431.994 283.794Z" fill="url(#paint24_linear_333_2110)"/>
<path d="M496.587 307.894C502.803 310.962 508.683 314.669 514.131 318.955C513.237 325.839 511.916 332.662 510.177 339.383C505.036 335.815 499.528 332.809 493.746 330.415C494.266 329.751 494.738 329.052 495.158 328.322C498.714 322.16 500.242 312.727 496.587 307.894Z" fill="url(#paint25_linear_333_2110)"/>
<path d="M496.587 307.893C500.242 312.726 498.714 322.16 495.159 328.255C494.738 328.985 494.266 329.685 493.747 330.348C491.473 333.28 488.503 335.597 485.105 337.088C481.707 338.579 477.99 339.197 474.292 338.884C470.357 338.205 466.472 337.261 462.663 336.061C456.217 334.534 449.489 334.665 443.108 336.443C438.291 337.821 433.822 340.163 429.02 341.608C424.219 343.053 419.052 343.468 414.6 341.259C414.6 339.399 414.683 337.556 414.782 335.679C415.948 335.981 417.15 336.12 418.354 336.094C422.651 335.795 426.809 334.449 430.466 332.175C434.109 329.907 437.925 327.93 441.879 326.262C447.132 324.389 452.834 324.181 458.21 325.664C461.915 326.694 465.387 328.521 469.059 329.7C472.704 331.111 476.744 331.111 480.389 329.7C482.479 328.628 484.254 327.031 485.539 325.066C487.821 321.654 489.024 317.635 488.995 313.531C488.965 309.427 487.703 305.426 485.373 302.047V301.831C488.447 302.924 491.425 304.268 494.278 305.85C495.188 306.354 495.977 307.051 496.587 307.893Z" fill="url(#paint26_linear_333_2110)"/>
<path d="M485.323 302.064C487.653 305.443 488.915 309.444 488.945 313.548C488.974 317.652 487.771 321.671 485.489 325.083C484.204 327.048 482.429 328.645 480.339 329.717C476.694 331.128 472.654 331.128 469.009 329.717C465.337 328.538 461.865 326.711 458.16 325.681C452.784 324.198 447.082 324.406 441.829 326.279C437.875 327.947 434.059 329.924 430.416 332.191C426.759 334.466 422.601 335.812 418.304 336.111C417.1 336.137 415.898 335.997 414.732 335.696C415.128 329.677 415.916 323.691 417.092 317.775C417.792 314.001 418.685 310.265 419.766 306.581C421.577 305.386 423.483 304.342 425.465 303.459C431.607 300.854 438.101 299.175 444.736 298.476C458.343 296.816 472.614 297.214 485.39 301.798L485.323 302.064Z" fill="url(#paint27_linear_333_2110)"/>
<path d="M463.061 348.003C463.743 350.399 463.89 352.917 463.493 355.377H463.293L432.724 357.586H432.575C432.43 357.04 432.325 356.485 432.259 355.925C432.138 354.087 432.182 352.241 432.392 350.411V350.145C442.648 350.127 452.886 349.3 463.011 347.67L463.061 348.003Z" fill="url(#paint28_linear_333_2110)"/>
<path d="M463.294 355.344H463.493C462.983 358.722 461.459 361.867 459.124 364.362C457.067 366.48 454.474 367.999 451.621 368.757C448.767 369.514 445.762 369.482 442.925 368.664C440.394 367.851 438.113 366.403 436.301 364.457C434.489 362.512 433.206 360.135 432.575 357.553H432.725L463.294 355.344Z" fill="url(#paint29_linear_333_2110)"/>
<path d="M510.709 294.374C513.149 298.983 514.453 304.108 514.514 309.322C514.62 312.499 514.492 315.68 514.131 318.838C508.68 314.575 502.801 310.891 496.588 307.844C495.98 307.009 495.198 306.318 494.295 305.817C491.442 304.236 488.464 302.891 485.39 301.798C472.614 297.231 458.343 296.816 444.737 298.476C438.102 299.175 431.607 300.854 425.465 303.459C423.483 304.342 421.577 305.386 419.767 306.581C422.275 298.144 426.013 290.288 432.243 284.758C437.36 279.094 445.667 278.031 453.276 277.434C459.058 276.919 464.823 276.437 470.604 275.972C475.527 275.342 480.517 275.454 485.407 276.304C490.088 277.537 494.506 279.608 498.448 282.416C503.388 285.423 507.58 289.512 510.709 294.374Z" fill="url(#paint30_linear_333_2110)"/>
<path d="M463.012 347.621C452.881 349.251 442.637 350.078 432.376 350.095V350.361C432.166 352.192 432.122 354.037 432.243 355.875C432.309 356.436 432.414 356.991 432.559 357.536C433.19 360.118 434.473 362.495 436.285 364.441C438.097 366.386 440.378 367.834 442.909 368.647C445.746 369.466 448.751 369.498 451.604 368.74C454.458 367.982 457.051 366.463 459.107 364.346C461.11 362.177 462.523 359.532 463.212 356.662C463.902 353.792 463.844 350.794 463.045 347.953L463.012 347.621ZM510.177 339.317C509.347 342.887 508.516 346.475 507.835 350.046C504.512 367.883 504.861 386.252 501.422 404.056C501.267 405.371 500.8 406.629 500.06 407.727C499.752 408.122 499.382 408.465 498.963 408.74C498.254 409.211 497.496 409.606 496.704 409.919C486.301 414.423 475.336 417.496 464.108 419.054C459.035 419.743 453.926 420.125 448.807 420.2C448.807 419.901 448.807 419.618 448.807 419.319C449.102 413.967 448.484 408.603 446.979 403.458C445.379 397.9 442.086 392.977 437.56 389.374V389.242C437.244 389.125 436.928 389.009 436.613 388.86C433.269 387.198 430.309 384.856 427.924 381.984C420.497 373.547 416.427 362.502 415.081 351.325C414.686 348.018 414.486 344.69 414.483 341.359C418.886 343.568 424.186 343.12 428.904 341.708C433.622 340.297 438.174 337.922 442.992 336.543C449.373 334.765 456.101 334.634 462.546 336.161C466.355 337.361 470.24 338.305 474.176 338.984C477.875 339.295 481.593 338.675 484.991 337.181C488.389 335.687 491.359 333.366 493.63 330.431C499.449 332.791 504.996 335.77 510.177 339.317Z" fill="url(#paint31_linear_333_2110)"/>
<path d="M476.751 375.955C473 382.593 469.821 389.538 467.248 396.715C464.688 403.869 463.62 411.471 464.108 419.054C459.035 419.743 453.926 420.125 448.807 420.2C449.175 414.556 448.562 408.892 446.996 403.458C445.395 397.9 442.103 392.977 437.576 389.374V389.241C441.748 390.77 446.23 391.261 450.634 390.67C460.835 389.59 471.019 384.292 476.419 375.722L476.751 375.955Z" fill="url(#paint32_linear_333_2110)"/>
<path d="M432.376 350.095C442.631 350.077 452.869 349.25 462.994 347.621L463.21 348.8C463.739 350.975 463.819 353.236 463.443 355.443H463.243L432.675 357.652H432.525C432.381 357.107 432.275 356.552 432.209 355.991C432.088 354.153 432.132 352.308 432.342 350.477L432.376 350.095Z" fill="url(#paint33_linear_333_2110)"/>
<path d="M463.493 355.377C462.983 358.756 461.459 361.9 459.124 364.395C457.067 366.513 454.474 368.032 451.621 368.79C448.767 369.547 445.762 369.515 442.925 368.697C440.394 367.884 438.113 366.436 436.301 364.49C434.489 362.545 433.206 360.168 432.575 357.586H432.725L463.294 355.377H463.493Z" fill="url(#paint34_linear_333_2110)"/>
<path d="M426.312 350.012C429.385 349.746 432.442 349.663 435.499 349.481L444.653 348.866C447.71 348.634 450.75 348.401 453.79 348.119C456.831 347.836 459.887 347.587 462.944 347.222C464.606 347.072 466.267 346.856 467.928 346.74C466.267 347.205 464.606 347.587 463.027 348.002C460.02 348.617 456.997 349.231 453.94 349.663C450.883 350.095 447.809 350.361 444.736 350.544C438.59 350.88 432.427 350.702 426.312 350.012Z" fill="#00163D"/>
<path d="M437.211 374.643C439.363 375.094 441.557 375.316 443.757 375.307C445.933 375.332 448.108 375.216 450.269 374.958C452.423 374.722 454.552 374.3 456.632 373.696C458.744 373.119 460.739 372.18 462.53 370.922C461.095 372.718 459.209 374.099 457.064 374.925C454.937 375.785 452.7 376.344 450.419 376.586C448.161 376.851 445.881 376.851 443.624 376.586C441.377 376.375 439.196 375.714 437.211 374.643Z" fill="#00163D"/>
<path d="M427.524 281.768C430.216 283.944 433.904 284.376 437.376 284.359C447.261 284.359 456.93 281.586 466.766 280.473C476.601 279.36 487.35 280.24 495.009 286.469C504.013 293.76 506.538 306.664 505.126 318.174C503.714 329.684 499.079 340.479 496.221 351.706C489.726 377.267 493.513 406.597 511.174 426.145C514.771 430.375 519.243 433.775 524.282 436.11C531.892 439.02 540.282 439.167 547.989 436.526C555.631 433.876 562.766 429.944 569.088 424.9C576.864 419.053 584.207 412.277 588.892 403.741C589.771 402.278 590.337 400.65 590.553 398.957C590.902 394.988 587.812 391.384 584.19 389.706C580.568 388.029 576.481 387.83 572.561 387.365C563.024 386.268 553.389 383.495 545.979 377.4C538.569 371.304 533.569 361.622 535.13 352.138C536.26 345.279 540.48 339.4 543.437 333.088C545.691 327.99 547.315 322.636 548.272 317.144C549.717 310.415 549.981 303.486 549.053 296.666C547.175 285.04 540.364 274.76 531.725 266.771C520.089 256.096 505.287 249.509 489.566 248.01C473.845 246.511 458.064 250.183 444.62 258.467C435.831 263.964 427.707 272.451 427.524 281.768Z" fill="url(#paint35_linear_333_2110)"/>
<path d="M536.177 356.855C535.954 357.18 535.663 357.454 535.325 357.658C534.987 357.861 534.609 357.989 534.217 358.034C533.715 357.969 533.242 357.761 532.854 357.436C531.293 356.307 529.864 355.045 528.435 353.783C522.644 348.593 516.541 343.762 510.16 339.317C505.02 335.749 499.511 332.742 493.729 330.348C494.249 329.685 494.721 328.986 495.142 328.255C498.697 322.16 500.225 312.727 496.57 307.894C502.792 310.961 508.678 314.668 514.131 318.955C519.115 322.675 523.767 326.694 528.435 330.697L537.872 338.785C539.201 339.788 540.329 341.033 541.194 342.456C541.767 343.7 542.049 345.058 542.021 346.428C541.992 347.797 541.652 349.142 541.028 350.361C539.748 352.758 538.112 354.947 536.177 356.855Z" fill="url(#paint36_linear_333_2110)"/>
<path d="M407.555 330.348C408.291 331.706 409.315 332.889 410.554 333.812C411.794 334.736 413.219 335.378 414.732 335.696C415.898 335.997 417.1 336.137 418.304 336.111C422.601 335.811 426.759 334.466 430.415 332.191C434.058 329.924 437.875 327.947 441.829 326.279C447.082 324.406 452.784 324.197 458.16 325.681C461.865 326.71 465.337 328.537 469.009 329.717C472.653 331.128 476.694 331.128 480.339 329.717C482.429 328.645 484.204 327.048 485.489 325.083C487.77 321.67 488.974 317.652 488.944 313.548C488.915 309.444 487.653 305.443 485.323 302.064V301.848C488.397 302.941 491.375 304.285 494.228 305.867C495.131 306.368 495.913 307.059 496.521 307.893C500.176 312.726 498.647 322.16 495.092 328.255C494.671 328.985 494.199 329.685 493.68 330.348C491.413 333.27 488.453 335.581 485.067 337.071C481.682 338.562 477.979 339.185 474.292 338.884C470.356 338.205 466.471 337.261 462.662 336.061C456.217 334.534 449.489 334.665 443.108 336.443C438.29 337.821 433.821 340.163 429.02 341.608C424.218 343.053 419.052 343.468 414.599 341.259L414.383 341.16C412.425 340.04 410.746 338.491 409.471 336.63C408.197 334.769 407.36 332.644 407.023 330.414L407.555 330.348Z" fill="url(#paint37_linear_333_2110)"/>
<path d="M485.539 325.083C484.253 327.048 482.478 328.645 480.389 329.717C476.744 331.128 472.703 331.128 469.058 329.717L468.709 329.601C465.171 328.421 461.798 326.677 458.21 325.681C456.436 325.188 454.615 324.881 452.777 324.767C449.079 324.511 445.367 325.025 441.879 326.279C438.302 327.746 434.856 329.512 431.578 331.56C431.213 331.776 430.847 331.992 430.465 332.191C426.808 334.466 422.65 335.812 418.354 336.111C417.15 336.137 415.948 335.997 414.782 335.696C413.87 335.487 412.987 335.164 412.157 334.733C410.2 333.809 408.6 332.269 407.605 330.348H407.023C406.962 330.074 406.917 329.797 406.89 329.517C406.474 324.718 407.692 319.919 410.346 315.899C412.792 312.122 416.021 308.916 419.816 306.498C421.626 305.303 423.532 304.259 425.514 303.376C427.31 302.567 429.159 301.879 431.047 301.316C435.53 299.948 440.129 298.992 444.786 298.46H444.919C447.677 298.111 450.435 297.845 453.226 297.696C457.098 297.456 460.982 297.456 464.855 297.696C470.242 297.988 475.583 298.851 480.788 300.27C482.349 300.702 483.894 301.184 485.423 301.732V301.948C486.412 303.326 487.206 304.835 487.782 306.432C488.917 309.495 489.306 312.785 488.916 316.028C488.526 319.272 487.368 322.376 485.539 325.083Z" fill="url(#paint38_linear_333_2110)"/>
<path style="mix-blend-mode:overlay" d="M485.323 302.064V301.848C483.795 301.3 482.25 300.818 480.688 300.386L477.515 304.389C475.968 306.651 473.9 308.508 471.484 309.803C470.259 310.419 468.867 310.618 467.518 310.373C466.17 310.127 464.937 309.449 464.008 308.441C461.782 305.468 463.825 301.615 464.756 297.812C460.883 297.572 456.999 297.572 453.126 297.812C450.734 300.752 448.308 303.525 444.72 303.675C444.547 303.698 444.371 303.686 444.203 303.641C444.035 303.595 443.877 303.516 443.74 303.409C443.612 303.272 443.517 303.109 443.459 302.931C443.402 302.753 443.384 302.565 443.407 302.379C443.556 301.014 444.042 299.708 444.82 298.576H444.687C440.029 299.108 435.431 300.065 430.947 301.433C426.137 307.613 421.699 314.074 417.656 320.781C414.901 325.036 412.999 329.786 412.058 334.766C412.888 335.197 413.77 335.521 414.683 335.729C415.849 336.031 417.05 336.17 418.254 336.144C422.551 335.845 426.709 334.499 430.366 332.225C430.748 332.025 431.113 331.809 431.479 331.593L442.51 320.516C445.733 317.194 449.156 313.872 453.591 312.627C453.924 312.491 454.284 312.436 454.641 312.465C454.999 312.493 455.345 312.606 455.652 312.793C456.023 313.172 456.242 313.674 456.266 314.204C456.765 318.058 454.871 321.446 452.678 324.801C454.516 324.915 456.336 325.221 458.11 325.714C461.699 326.711 465.071 328.455 468.61 329.634C475.554 322.467 481.915 314.759 487.633 306.581C487.076 304.976 486.298 303.456 485.323 302.064Z" fill="url(#paint39_linear_333_2110)"/>
<path d="M722.382 486.915C721.929 491.103 721.134 495.247 720.006 499.305C715.022 517.143 704.19 533.336 693.508 548.748V548.981C693.508 549.13 693.508 549.28 693.508 549.429C694.295 564.165 692.421 578.922 687.976 592.993C686.284 598.409 684.184 603.689 681.696 608.788C678.722 614.783 675.233 620.513 671.728 626.243C670.978 627.715 669.904 628.998 668.588 629.997C667.911 630.48 667.095 630.729 666.264 630.705C665.433 630.681 664.633 630.386 663.986 629.864C662.524 628.386 663.155 625.928 663.869 623.968C667.89 613.117 671.921 602.277 675.964 591.449C670.867 604.696 663.835 617.115 655.097 628.303C653.519 630.296 651.06 632.438 648.751 631.375C648.096 630.997 647.562 630.439 647.212 629.769C646.862 629.098 646.71 628.342 646.774 627.588C646.907 626.085 647.337 624.624 648.037 623.287C654.184 609.325 660.336 595.363 666.494 581.4C658.384 595.231 649.47 608.574 639.796 621.36C637.47 624.433 634.812 627.655 631.058 628.552C630.421 628.748 629.75 628.809 629.089 628.729C628.428 628.648 627.791 628.43 627.22 628.087C626.614 627.574 626.159 626.905 625.904 626.153C625.649 625.401 625.605 624.594 625.774 623.818C626.142 622.277 626.796 620.818 627.702 619.517L655.945 573.013C646.242 586.416 638.052 601.364 625.243 611.877C624.098 612.914 622.768 613.725 621.322 614.269C620.592 614.531 619.808 614.609 619.04 614.496C618.272 614.383 617.543 614.083 616.919 613.621C616.3 613.019 615.854 612.263 615.626 611.431C615.398 610.598 615.397 609.72 615.624 608.887C616.107 607.228 616.896 605.674 617.949 604.303L640.062 571.087C641.213 569.635 641.994 567.925 642.338 566.104C637.969 565.689 633.583 565.29 629.213 564.925C626.62 564.573 623.987 564.612 621.405 565.041C618.939 565.779 616.534 566.706 614.211 567.815C609.856 569.541 605.152 570.207 600.489 569.758C597.598 569.476 594.342 568.429 593.245 565.739C596.376 563.001 599.816 560.637 603.496 558.697C608.682 555.752 614.119 553.273 619.744 551.289C631.838 547.171 644.664 546.074 657.473 545.095C660.223 528.86 664.678 512.961 670.764 497.661L670.349 497.495H669.601C652.307 498.378 634.972 498.09 617.717 496.631C615.192 479.242 618.93 461.754 620.757 444.464C620.957 442.637 621.123 440.794 621.272 438.967H621.688L629.396 440.262L690.684 450.593C699.821 452.137 709.689 454.047 715.969 460.857C722.249 467.666 723.346 477.747 722.382 486.915Z" fill="url(#paint40_linear_333_2110)"/>
<path d="M679.47 477.116C677.854 482.1 675.739 486.907 673.156 491.466C672.078 493.552 670.874 495.571 669.551 497.511C652.257 498.395 634.923 498.106 617.667 496.648C615.142 479.259 618.88 461.77 620.708 444.481C620.907 442.654 621.073 440.81 621.223 438.983H621.638L629.347 440.279C631.938 447.719 634.148 455.559 638.467 462.219C645.578 473.23 656.427 473.579 668.289 475.788C671.961 476.61 675.707 477.056 679.47 477.116Z" fill="url(#paint41_linear_333_2110)"/>
<path d="M693.508 548.981C693.508 549.131 693.508 549.28 693.508 549.43C694.295 564.165 692.421 578.922 687.976 592.993C687.48 592.516 687.075 591.953 686.779 591.333C682.829 584.506 677.388 578.659 670.864 574.226C667.873 572.166 664.534 570.356 662.407 567.383C660.358 564.248 659.504 560.482 659.998 556.77C660.447 552.253 661.543 546.191 666.411 544.663C673.156 542.57 681.363 545.244 687.926 546.922C689.866 547.37 691.742 548.062 693.508 548.981Z" fill="url(#paint42_linear_333_2110)"/>
<path d="M684.902 468.148L679.586 479.309C677.924 483.029 676.147 486.749 674.602 490.519C673.056 494.29 671.279 498.06 669.9 501.896L667.607 507.61C666.793 509.503 666.029 511.413 665.148 513.29C665.663 511.297 666.278 509.337 666.81 507.344L668.671 501.431C669.898 497.472 671.363 493.589 673.057 489.805C674.718 486.035 676.512 482.298 678.506 478.678C679.503 476.867 680.533 475.074 681.579 473.297C682.626 471.519 683.772 469.842 684.902 468.148Z" fill="#00163D"/>
<path style="mix-blend-mode:screen" d="M710.232 692.459C751.236 651.467 751.236 585.007 710.232 544.016C669.227 503.024 602.747 503.024 561.743 544.016C520.738 585.007 520.738 651.467 561.743 692.459C602.747 733.45 669.227 733.45 710.232 692.459Z" fill="url(#paint43_radial_333_2110)"/>
<path style="mix-blend-mode:color-dodge" d="M161.317 478.128C176.388 460.369 174.204 433.759 156.439 418.693C138.674 403.626 112.056 405.809 96.9847 423.569C81.9137 441.328 84.0975 467.938 101.862 483.005C119.627 498.071 146.246 495.888 161.317 478.128Z" fill="url(#paint44_radial_333_2110)"/>
<path style="mix-blend-mode:screen" opacity="0.53" d="M309.153 725.528H590.62V585.154H309.153V725.528Z" fill="url(#paint45_linear_333_2110)"/>
<path style="mix-blend-mode:color-dodge" opacity="0.74" d="M687.443 366.953L956.865 366.953V353.483L687.443 353.483V366.953Z" fill="url(#paint46_linear_333_2110)"/>
<path style="mix-blend-mode:color-dodge" opacity="0.74" d="M272.272 449.663L541.693 449.663V436.193L272.272 436.193V449.663Z" fill="url(#paint47_linear_333_2110)"/>
<path style="mix-blend-mode:color-dodge" opacity="0.74" d="M218.311 616.062H487.732V602.593H218.311V616.062Z" fill="url(#paint48_linear_333_2110)"/>
<path style="mix-blend-mode:color-dodge" opacity="0.53" d="M157.306 535.345H426.728V366.405H157.306V535.345Z" fill="url(#paint49_linear_333_2110)"/>
<path style="mix-blend-mode:color-dodge" opacity="0.53" d="M552.741 465.357L822.163 465.357V392.779H552.741V465.357Z" fill="url(#paint50_linear_333_2110)"/>
<path style="mix-blend-mode:color-dodge" opacity="0.74" d="M202.411 789.587H471.833V776.118H202.411V789.587Z" fill="url(#paint51_linear_333_2110)"/>
<path style="mix-blend-mode:color-dodge" opacity="0.74" d="M657.954 711.959H927.376V698.49H657.954V711.959Z" fill="url(#paint52_linear_333_2110)"/>
<path style="mix-blend-mode:color-dodge" opacity="0.53" d="M710.487 761.568H910.132V671.268H710.487V761.568Z" fill="url(#paint53_linear_333_2110)"/>
<path style="mix-blend-mode:color-dodge" d="M648.136 631.774C905.607 631.774 1114.33 625.119 1114.33 616.909C1114.33 608.7 905.607 602.045 648.136 602.045C390.665 602.045 181.943 608.7 181.943 616.909C181.943 625.119 390.665 631.774 648.136 631.774Z" fill="url(#paint54_radial_333_2110)"/>
<path style="mix-blend-mode:color-dodge" d="M672.974 258.051V503.241H723.794V258.051H672.974Z" fill="url(#paint55_linear_333_2110)"/>
<path style="mix-blend-mode:color-dodge" d="M267.221 486.052V684.074H301.229V486.052H267.221Z" fill="url(#paint56_linear_333_2110)"/>
<path style="mix-blend-mode:color-dodge" d="M788.388 597.328V795.35H811.447V597.328H788.388Z" fill="url(#paint57_linear_333_2110)"/>
<path style="mix-blend-mode:color-dodge" d="M830.686 533.785V660.839H845.771V533.785H830.686Z" fill="url(#paint58_linear_333_2110)"/>
<path style="mix-blend-mode:color-dodge" d="M633.35 317.128V444.182H648.435V317.128H633.35Z" fill="url(#paint59_linear_333_2110)"/>
<path style="mix-blend-mode:color-dodge" d="M334.223 551.339V678.394H349.308V551.339H334.223Z" fill="url(#paint60_linear_333_2110)"/>
<path style="mix-blend-mode:color-dodge" opacity="0.6" d="M0 354.148C65.9444 345.795 135.111 367.139 184.829 411.218C220.841 443.111 246.954 485.995 287.006 512.652C337.049 545.961 401.46 548.884 461.091 541.7C520.721 534.516 579.547 518.381 639.671 517.641C771.365 515.991 900.798 595.47 958.818 713.702H1054.32V536.114C1031.48 496.102 993.479 466.235 951.685 446.904C909.892 427.574 864.188 418.038 818.549 411.699C757.139 403.164 691.584 398.902 641.217 362.748C596.124 330.388 570.764 277.475 551.979 225.251C533.193 173.027 518.669 118.256 487.736 72.1768C456.804 26.0975 404.306 -10.6673 349.17 -4.27566H0V354.148Z" fill="url(#paint61_linear_333_2110)"/>
<defs>
<radialGradient id="paint0_radial_333_2110" cx="0" cy="0" r="1" gradientUnits="userSpaceOnUse" gradientTransform="translate(420.616 389.907) rotate(-3.50892) scale(241.016 234.323)">
<stop stop-color="#A951D1"/>
<stop offset="0.12" stop-color="#9549BC" stop-opacity="0.88"/>
<stop offset="1" stop-color="#000C1E" stop-opacity="0"/>
</radialGradient>
<radialGradient id="paint1_radial_333_2110" cx="0" cy="0" r="1" gradientUnits="userSpaceOnUse" gradientTransform="translate(602.595 631.967) rotate(-3.50892) scale(211.384 205.514)">
<stop stop-color="#A951D1"/>
<stop offset="0.12" stop-color="#9549BC" stop-opacity="0.88"/>
<stop offset="1" stop-color="#000C1E" stop-opacity="0"/>
</radialGradient>
<linearGradient id="paint2_linear_333_2110" x1="685.505" y1="855.192" x2="678.145" y2="816.493" gradientUnits="userSpaceOnUse">
<stop stop-color="#C2FEFF"/>
<stop offset="0.15" stop-color="#89F8FF"/>
<stop offset="0.27" stop-color="#60F4FF"/>
<stop offset="0.37" stop-color="#47F2FF"/>
<stop offset="0.43" stop-color="#3EF1FF"/>
<stop offset="0.53" stop-color="#31D0EF"/>
<stop offset="0.76" stop-color="#178CCE"/>
<stop offset="0.92" stop-color="#0661BA"/>
<stop offset="1" stop-color="#0051B2"/>
</linearGradient>
<linearGradient id="paint3_linear_333_2110" x1="768.231" y1="894.488" x2="701.837" y2="792.418" gradientUnits="userSpaceOnUse">
<stop stop-color="#00C8E2"/>
<stop offset="0.09" stop-color="#009CD0"/>
<stop offset="0.19" stop-color="#0073C0"/>
<stop offset="0.27" stop-color="#005AB6"/>
<stop offset="0.31" stop-color="#0051B2"/>
<stop offset="0.4" stop-color="#00479D"/>
<stop offset="0.69" stop-color="#002759"/>
<stop offset="0.89" stop-color="#00142E"/>
<stop offset="1" stop-color="#000C1E"/>
</linearGradient>
<linearGradient id="paint4_linear_333_2110" x1="734.515" y1="832.337" x2="802.309" y2="822.202" gradientUnits="userSpaceOnUse">
<stop stop-color="#0071B4"/>
<stop offset="0.12" stop-color="#2786BF"/>
<stop offset="0.36" stop-color="#73B1D6"/>
<stop offset="0.58" stop-color="#AFD2E7"/>
<stop offset="0.77" stop-color="#DAEBF4"/>
<stop offset="0.91" stop-color="#F5F9FC"/>
<stop offset="1" stop-color="white"/>
</linearGradient>
<linearGradient id="paint5_linear_333_2110" x1="703.404" y1="840.982" x2="763.623" y2="831.979" gradientUnits="userSpaceOnUse">
<stop stop-color="#D454D6"/>
<stop offset="0.37" stop-color="#A951D1"/>
<stop offset="0.44" stop-color="#9F53CF"/>
<stop offset="0.56" stop-color="#8458CB"/>
<stop offset="0.73" stop-color="#5960C3"/>
<stop offset="0.91" stop-color="#1E6BB9"/>
<stop offset="1" stop-color="#0071B4"/>
</linearGradient>
<linearGradient id="paint6_linear_333_2110" x1="735.808" y1="819.633" x2="735.435" y2="791.073" gradientUnits="userSpaceOnUse">
<stop stop-color="#0051B2" stop-opacity="0"/>
<stop offset="0.41" stop-color="#00316E" stop-opacity="0.46"/>
<stop offset="1" stop-color="#000C1E"/>
</linearGradient>
<linearGradient id="paint7_linear_333_2110" x1="892.388" y1="654.103" x2="830.945" y2="631.677" gradientUnits="userSpaceOnUse">
<stop stop-color="#C2FEFF"/>
<stop offset="0.15" stop-color="#89F8FF"/>
<stop offset="0.27" stop-color="#60F4FF"/>
<stop offset="0.37" stop-color="#47F2FF"/>
<stop offset="0.43" stop-color="#3EF1FF"/>
<stop offset="0.53" stop-color="#31D0EF"/>
<stop offset="0.76" stop-color="#178CCE"/>
<stop offset="0.92" stop-color="#0661BA"/>
<stop offset="1" stop-color="#0051B2"/>
</linearGradient>
<linearGradient id="paint8_linear_333_2110" x1="962.416" y1="661.952" x2="872.165" y2="571.638" gradientUnits="userSpaceOnUse">
<stop stop-color="#00C8E2"/>
<stop offset="0.09" stop-color="#009CD0"/>
<stop offset="0.19" stop-color="#0073C0"/>
<stop offset="0.27" stop-color="#005AB6"/>
<stop offset="0.31" stop-color="#0051B2"/>
<stop offset="0.4" stop-color="#00479D"/>
<stop offset="0.69" stop-color="#002759"/>
<stop offset="0.89" stop-color="#00142E"/>
<stop offset="1" stop-color="#000C1E"/>
</linearGradient>
<linearGradient id="paint9_linear_333_2110" x1="860.737" y1="612.105" x2="946.833" y2="604.782" gradientUnits="userSpaceOnUse">
<stop stop-color="#D454D6"/>
<stop offset="0.37" stop-color="#A951D1"/>
<stop offset="0.44" stop-color="#9F53CF"/>
<stop offset="0.56" stop-color="#8458CB"/>
<stop offset="0.73" stop-color="#5960C3"/>
<stop offset="0.91" stop-color="#1E6BB9"/>
<stop offset="1" stop-color="#0071B4"/>
</linearGradient>
<linearGradient id="paint10_linear_333_2110" x1="877.508" y1="593.645" x2="1001.81" y2="583.073" gradientUnits="userSpaceOnUse">
<stop stop-color="#0071B4"/>
<stop offset="0.12" stop-color="#2786BF"/>
<stop offset="0.36" stop-color="#73B1D6"/>
<stop offset="0.58" stop-color="#AFD2E7"/>
<stop offset="0.77" stop-color="#DAEBF4"/>
<stop offset="0.91" stop-color="#F5F9FC"/>
<stop offset="1" stop-color="white"/>
</linearGradient>
<linearGradient id="paint11_linear_333_2110" x1="725.662" y1="725.38" x2="727.155" y2="723.919" gradientUnits="userSpaceOnUse">
<stop stop-color="#00C8E2"/>
<stop offset="0.29" stop-color="#009CD0"/>
<stop offset="0.6" stop-color="#0073C0"/>
<stop offset="0.85" stop-color="#005AB6"/>
<stop offset="1" stop-color="#0051B2"/>
</linearGradient>
<linearGradient id="paint12_linear_333_2110" x1="485.84" y1="660.407" x2="614.562" y2="649.459" gradientUnits="userSpaceOnUse">
<stop stop-color="#00C8E2"/>
<stop offset="0.09" stop-color="#009CD0"/>
<stop offset="0.19" stop-color="#0073C0"/>
<stop offset="0.27" stop-color="#005AB6"/>
<stop offset="0.31" stop-color="#0051B2"/>
<stop offset="0.62" stop-color="#003478"/>
<stop offset="0.87" stop-color="#001E4D"/>
<stop offset="1" stop-color="#00163D"/>
</linearGradient>
<linearGradient id="paint13_linear_333_2110" x1="983.812" y1="739.824" x2="512.372" y2="629.636" gradientUnits="userSpaceOnUse">
<stop stop-color="#00C8E2"/>
<stop offset="0.09" stop-color="#009CD0"/>
<stop offset="0.19" stop-color="#0073C0"/>
<stop offset="0.27" stop-color="#005AB6"/>
<stop offset="0.31" stop-color="#0051B2"/>
<stop offset="0.62" stop-color="#003478"/>
<stop offset="0.87" stop-color="#001E4D"/>
<stop offset="1" stop-color="#00163D"/>
</linearGradient>
<linearGradient id="paint14_linear_333_2110" x1="513.928" y1="870.474" x2="741.786" y2="644.975" gradientUnits="userSpaceOnUse">
<stop stop-color="#00C8E2"/>
<stop offset="0.29" stop-color="#009CD0"/>
<stop offset="0.6" stop-color="#0073C0"/>
<stop offset="0.85" stop-color="#005AB6"/>
<stop offset="1" stop-color="#0051B2"/>
</linearGradient>
<linearGradient id="paint15_linear_333_2110" x1="561.957" y1="883.326" x2="570.341" y2="682.026" gradientUnits="userSpaceOnUse">
<stop stop-color="#0051B2" stop-opacity="0"/>
<stop offset="0.41" stop-color="#00316E" stop-opacity="0.46"/>
<stop offset="1" stop-color="#000C1E"/>
</linearGradient>
<linearGradient id="paint16_linear_333_2110" x1="491.251" y1="671.282" x2="595.544" y2="594.677" gradientUnits="userSpaceOnUse">
<stop stop-color="#C2FEFF"/>
<stop offset="0.15" stop-color="#89F8FF"/>
<stop offset="0.27" stop-color="#60F4FF"/>
<stop offset="0.37" stop-color="#47F2FF"/>
<stop offset="0.43" stop-color="#3EF1FF"/>
<stop offset="0.53" stop-color="#31D0EF"/>
<stop offset="0.76" stop-color="#178CCE"/>
<stop offset="0.92" stop-color="#0661BA"/>
<stop offset="1" stop-color="#0051B2"/>
</linearGradient>
<linearGradient id="paint17_linear_333_2110" x1="596.96" y1="621.492" x2="576.953" y2="585.901" gradientUnits="userSpaceOnUse">
<stop stop-color="#0051B2" stop-opacity="0"/>
<stop offset="0.41" stop-color="#00316E" stop-opacity="0.46"/>
<stop offset="1" stop-color="#000C1E"/>
</linearGradient>
<linearGradient id="paint18_linear_333_2110" x1="128.868" y1="448.959" x2="195.968" y2="465.934" gradientUnits="userSpaceOnUse">
<stop stop-color="#C2FEFF"/>
<stop offset="0.15" stop-color="#89F8FF"/>
<stop offset="0.27" stop-color="#60F4FF"/>
<stop offset="0.37" stop-color="#47F2FF"/>
<stop offset="0.43" stop-color="#3EF1FF"/>
<stop offset="0.53" stop-color="#31D0EF"/>
<stop offset="0.76" stop-color="#178CCE"/>
<stop offset="0.92" stop-color="#0661BA"/>
<stop offset="1" stop-color="#0051B2"/>
</linearGradient>
<linearGradient id="paint19_linear_333_2110" x1="213.936" y1="560.123" x2="335.538" y2="468.874" gradientUnits="userSpaceOnUse">
<stop stop-color="#C2FEFF"/>
<stop offset="0.15" stop-color="#89F8FF"/>
<stop offset="0.27" stop-color="#60F4FF"/>
<stop offset="0.37" stop-color="#47F2FF"/>
<stop offset="0.43" stop-color="#3EF1FF"/>
<stop offset="0.53" stop-color="#31D0EF"/>
<stop offset="0.76" stop-color="#178CCE"/>
<stop offset="0.92" stop-color="#0661BA"/>
<stop offset="1" stop-color="#0051B2"/>
</linearGradient>
<linearGradient id="paint20_linear_333_2110" x1="365.725" y1="572.19" x2="377.746" y2="491.309" gradientUnits="userSpaceOnUse">
<stop stop-color="#0051B2" stop-opacity="0"/>
<stop offset="0.41" stop-color="#00316E" stop-opacity="0.46"/>
<stop offset="1" stop-color="#000C1E"/>
</linearGradient>
<linearGradient id="paint21_linear_333_2110" x1="219.553" y1="506.774" x2="160.959" y2="467.184" gradientUnits="userSpaceOnUse">
<stop stop-color="#0051B2" stop-opacity="0"/>
<stop offset="0.41" stop-color="#00316E" stop-opacity="0.46"/>
<stop offset="1" stop-color="#000C1E"/>
</linearGradient>
<linearGradient id="paint22_linear_333_2110" x1="407.2" y1="524.461" x2="640.491" y2="536.575" gradientUnits="userSpaceOnUse">
<stop stop-color="#00C8E2"/>
<stop offset="0.09" stop-color="#009CD0"/>
<stop offset="0.19" stop-color="#0073C0"/>
<stop offset="0.27" stop-color="#005AB6"/>
<stop offset="0.31" stop-color="#0051B2"/>
<stop offset="0.62" stop-color="#003478"/>
<stop offset="0.87" stop-color="#001E4D"/>
<stop offset="1" stop-color="#00163D"/>
</linearGradient>
<linearGradient id="paint23_linear_333_2110" x1="586.099" y1="603.963" x2="563.422" y2="502.245" gradientUnits="userSpaceOnUse">
<stop stop-color="#0051B2" stop-opacity="0"/>
<stop offset="0.41" stop-color="#00316E" stop-opacity="0.46"/>
<stop offset="1" stop-color="#000C1E"/>
</linearGradient>
<linearGradient id="paint24_linear_333_2110" x1="436.307" y1="276.612" x2="403.876" y2="412.421" gradientUnits="userSpaceOnUse">
<stop stop-color="#00C8E2"/>
<stop offset="0.09" stop-color="#009CD0"/>
<stop offset="0.19" stop-color="#0073C0"/>
<stop offset="0.27" stop-color="#005AB6"/>
<stop offset="0.31" stop-color="#0051B2"/>
<stop offset="0.4" stop-color="#00479D"/>
<stop offset="0.69" stop-color="#002759"/>
<stop offset="0.89" stop-color="#00142E"/>
<stop offset="1" stop-color="#000C1E"/>
</linearGradient>
<linearGradient id="paint25_linear_333_2110" x1="413.391" y1="331.232" x2="515.677" y2="322.532" gradientUnits="userSpaceOnUse">
<stop stop-color="#C2FEFF"/>
<stop offset="0.15" stop-color="#89F8FF"/>
<stop offset="0.27" stop-color="#60F4FF"/>
<stop offset="0.37" stop-color="#47F2FF"/>
<stop offset="0.43" stop-color="#3EF1FF"/>
<stop offset="0.53" stop-color="#31D0EF"/>
<stop offset="0.76" stop-color="#178CCE"/>
<stop offset="0.92" stop-color="#0661BA"/>
<stop offset="1" stop-color="#0051B2"/>
</linearGradient>
<linearGradient id="paint26_linear_333_2110" x1="412.964" y1="326.2" x2="515.249" y2="317.501" gradientUnits="userSpaceOnUse">
<stop stop-color="#C2FEFF"/>
<stop offset="0.15" stop-color="#89F8FF"/>
<stop offset="0.27" stop-color="#60F4FF"/>
<stop offset="0.37" stop-color="#47F2FF"/>
<stop offset="0.43" stop-color="#3EF1FF"/>
<stop offset="0.53" stop-color="#31D0EF"/>
<stop offset="0.76" stop-color="#178CCE"/>
<stop offset="0.92" stop-color="#0661BA"/>
<stop offset="1" stop-color="#0051B2"/>
</linearGradient>
<linearGradient id="paint27_linear_333_2110" x1="412.343" y1="318.903" x2="514.628" y2="310.203" gradientUnits="userSpaceOnUse">
<stop stop-color="#C2FEFF"/>
<stop offset="0.15" stop-color="#89F8FF"/>
<stop offset="0.27" stop-color="#60F4FF"/>
<stop offset="0.37" stop-color="#47F2FF"/>
<stop offset="0.43" stop-color="#3EF1FF"/>
<stop offset="0.53" stop-color="#31D0EF"/>
<stop offset="0.76" stop-color="#178CCE"/>
<stop offset="0.92" stop-color="#0661BA"/>
<stop offset="1" stop-color="#0051B2"/>
</linearGradient>
<linearGradient id="paint28_linear_333_2110" x1="415.453" y1="355.475" x2="517.739" y2="346.776" gradientUnits="userSpaceOnUse">
<stop stop-color="#C2FEFF"/>
<stop offset="0.15" stop-color="#89F8FF"/>
<stop offset="0.27" stop-color="#60F4FF"/>
<stop offset="0.37" stop-color="#47F2FF"/>
<stop offset="0.43" stop-color="#3EF1FF"/>
<stop offset="0.53" stop-color="#31D0EF"/>
<stop offset="0.76" stop-color="#178CCE"/>
<stop offset="0.92" stop-color="#0661BA"/>
<stop offset="1" stop-color="#0051B2"/>
</linearGradient>
<linearGradient id="paint29_linear_333_2110" x1="416.305" y1="365.487" x2="518.59" y2="356.788" gradientUnits="userSpaceOnUse">
<stop stop-color="#C2FEFF"/>
<stop offset="0.15" stop-color="#89F8FF"/>
<stop offset="0.27" stop-color="#60F4FF"/>
<stop offset="0.37" stop-color="#47F2FF"/>
<stop offset="0.43" stop-color="#3EF1FF"/>
<stop offset="0.53" stop-color="#31D0EF"/>
<stop offset="0.76" stop-color="#178CCE"/>
<stop offset="0.92" stop-color="#0661BA"/>
<stop offset="1" stop-color="#0051B2"/>
</linearGradient>
<linearGradient id="paint30_linear_333_2110" x1="411.097" y1="304.257" x2="513.383" y2="295.557" gradientUnits="userSpaceOnUse">
<stop stop-color="#C2FEFF"/>
<stop offset="0.15" stop-color="#89F8FF"/>
<stop offset="0.27" stop-color="#60F4FF"/>
<stop offset="0.37" stop-color="#47F2FF"/>
<stop offset="0.43" stop-color="#3EF1FF"/>
<stop offset="0.53" stop-color="#31D0EF"/>
<stop offset="0.76" stop-color="#178CCE"/>
<stop offset="0.92" stop-color="#0661BA"/>
<stop offset="1" stop-color="#0051B2"/>
</linearGradient>
<linearGradient id="paint31_linear_333_2110" x1="417.537" y1="379.968" x2="519.822" y2="371.268" gradientUnits="userSpaceOnUse">
<stop stop-color="#C2FEFF"/>
<stop offset="0.15" stop-color="#89F8FF"/>
<stop offset="0.27" stop-color="#60F4FF"/>
<stop offset="0.37" stop-color="#47F2FF"/>
<stop offset="0.43" stop-color="#3EF1FF"/>
<stop offset="0.53" stop-color="#31D0EF"/>
<stop offset="0.76" stop-color="#178CCE"/>
<stop offset="0.92" stop-color="#0661BA"/>
<stop offset="1" stop-color="#0051B2"/>
</linearGradient>
<linearGradient id="paint32_linear_333_2110" x1="443.655" y1="404.367" x2="470.761" y2="397.258" gradientUnits="userSpaceOnUse">
<stop stop-color="#0051B2"/>
<stop offset="0.12" stop-color="#00479D"/>
<stop offset="0.54" stop-color="#002759"/>
<stop offset="0.85" stop-color="#00142E"/>
<stop offset="1" stop-color="#000C1E"/>
</linearGradient>
<linearGradient id="paint33_linear_333_2110" x1="463.116" y1="351.474" x2="431.779" y2="353.939" gradientUnits="userSpaceOnUse">
<stop stop-color="#0071B4"/>
<stop offset="0.12" stop-color="#2786BF"/>
<stop offset="0.36" stop-color="#73B1D6"/>
<stop offset="0.58" stop-color="#AFD2E7"/>
<stop offset="0.77" stop-color="#DAEBF4"/>
<stop offset="0.91" stop-color="#F5F9FC"/>
<stop offset="1" stop-color="white"/>
</linearGradient>
<linearGradient id="paint34_linear_333_2110" x1="433.14" y1="364.056" x2="464.013" y2="361.431" gradientUnits="userSpaceOnUse">
<stop stop-color="#00226D"/>
<stop offset="0.22" stop-color="#001C59"/>
<stop offset="0.74" stop-color="#00112E"/>
<stop offset="1" stop-color="#000C1E"/>
</linearGradient>
<linearGradient id="paint35_linear_333_2110" x1="520.062" y1="231.628" x2="503.209" y2="398.626" gradientUnits="userSpaceOnUse">
<stop stop-color="#00C8E2"/>
<stop offset="0.06" stop-color="#009CD0"/>
<stop offset="0.13" stop-color="#0073C0"/>
<stop offset="0.18" stop-color="#005AB6"/>
<stop offset="0.21" stop-color="#0051B2"/>
<stop offset="0.31" stop-color="#00479D"/>
<stop offset="0.64" stop-color="#002759"/>
<stop offset="0.88" stop-color="#00142E"/>
<stop offset="1" stop-color="#000C1E"/>
</linearGradient>
<linearGradient id="paint36_linear_333_2110" x1="543.944" y1="354.405" x2="501.585" y2="325.869" gradientUnits="userSpaceOnUse">
<stop stop-color="#A951D1"/>
<stop offset="0.06" stop-color="#A153D0"/>
<stop offset="0.15" stop-color="#8957CC"/>
<stop offset="0.26" stop-color="#645EC5"/>
<stop offset="0.4" stop-color="#3068BC"/>
<stop offset="0.5" stop-color="#0071B4"/>
<stop offset="0.55" stop-color="#006BB2"/>
<stop offset="0.85" stop-color="#0040A7"/>
<stop offset="1" stop-color="#0030A2"/>
</linearGradient>
<linearGradient id="paint37_linear_333_2110" x1="453.754" y1="295.314" x2="452.493" y2="333.208" gradientUnits="userSpaceOnUse">
<stop stop-color="#00C8E2"/>
<stop offset="0.09" stop-color="#009CD0"/>
<stop offset="0.19" stop-color="#0073C0"/>
<stop offset="0.27" stop-color="#005AB6"/>
<stop offset="0.31" stop-color="#0051B2"/>
<stop offset="0.62" stop-color="#003478"/>
<stop offset="0.87" stop-color="#001E4D"/>
<stop offset="1" stop-color="#00163D"/>
</linearGradient>
<linearGradient id="paint38_linear_333_2110" x1="405.986" y1="319.443" x2="488.92" y2="312.389" gradientUnits="userSpaceOnUse">
<stop stop-color="#D454D6"/>
<stop offset="0.37" stop-color="#A951D1"/>
<stop offset="0.44" stop-color="#9F53CF"/>
<stop offset="0.56" stop-color="#8458CB"/>
<stop offset="0.73" stop-color="#5960C3"/>
<stop offset="0.91" stop-color="#1E6BB9"/>
<stop offset="1" stop-color="#0071B4"/>
</linearGradient>
<linearGradient id="paint39_linear_333_2110" x1="442.948" y1="335.87" x2="484.096" y2="238.852" gradientUnits="userSpaceOnUse">
<stop stop-color="white"/>
<stop offset="0.24" stop-color="#BCBFC4" stop-opacity="0.74"/>
<stop offset="0.61" stop-color="#58606C" stop-opacity="0.35"/>
<stop offset="0.88" stop-color="#192334" stop-opacity="0.1"/>
<stop offset="1" stop-color="#000C1E" stop-opacity="0"/>
</linearGradient>
<linearGradient id="paint40_linear_333_2110" x1="582.492" y1="587.618" x2="737.626" y2="455.569" gradientUnits="userSpaceOnUse">
<stop stop-color="#C2FEFF"/>
<stop offset="0.15" stop-color="#89F8FF"/>
<stop offset="0.27" stop-color="#60F4FF"/>
<stop offset="0.37" stop-color="#47F2FF"/>
<stop offset="0.43" stop-color="#3EF1FF"/>
<stop offset="0.53" stop-color="#31D0EF"/>
<stop offset="0.76" stop-color="#178CCE"/>
<stop offset="0.92" stop-color="#0661BA"/>
<stop offset="1" stop-color="#0051B2"/>
</linearGradient>
<linearGradient id="paint41_linear_333_2110" x1="681.881" y1="508.796" x2="587.021" y2="443.21" gradientUnits="userSpaceOnUse">
<stop stop-color="#0051B2" stop-opacity="0"/>
<stop offset="0.41" stop-color="#00316E" stop-opacity="0.46"/>
<stop offset="1" stop-color="#000C1E"/>
</linearGradient>
<linearGradient id="paint42_linear_333_2110" x1="672.127" y1="546.629" x2="705.774" y2="614.267" gradientUnits="userSpaceOnUse">
<stop stop-color="#0051B2" stop-opacity="0"/>
<stop offset="0.41" stop-color="#00316E" stop-opacity="0.46"/>
<stop offset="1" stop-color="#000C1E"/>
</linearGradient>
<radialGradient id="paint43_radial_333_2110" cx="0" cy="0" r="1" gradientUnits="userSpaceOnUse" gradientTransform="translate(636.001 618.227) rotate(-3.50892) scale(104.997 104.965)">
<stop stop-color="#C2FEFF"/>
<stop offset="0.16" stop-color="#A1D5D8" stop-opacity="0.83"/>
<stop offset="0.75" stop-color="#2E4654" stop-opacity="0.24"/>
<stop offset="1" stop-color="#000C1E" stop-opacity="0"/>
</radialGradient>
<radialGradient id="paint44_radial_333_2110" cx="0" cy="0" r="1" gradientUnits="userSpaceOnUse" gradientTransform="translate(127.942 451.443) rotate(-3.47005) scale(42.0656 42.0527)">
<stop stop-color="#C2FEFF"/>
<stop offset="0.16" stop-color="#A1D5D8" stop-opacity="0.83"/>
<stop offset="0.75" stop-color="#2E4654" stop-opacity="0.24"/>
<stop offset="1" stop-color="#000C1E" stop-opacity="0"/>
</radialGradient>
<linearGradient id="paint45_linear_333_2110" x1="321.248" y1="655.325" x2="631.008" y2="655.325" gradientUnits="userSpaceOnUse">
<stop stop-color="#D454D6"/>
<stop offset="0.1" stop-color="#CD53D4" stop-opacity="0.97"/>
<stop offset="0.24" stop-color="#B94FCF" stop-opacity="0.87"/>
<stop offset="0.42" stop-color="#9A4AC8" stop-opacity="0.72"/>
<stop offset="0.61" stop-color="#6D43BD" stop-opacity="0.51"/>
<stop offset="0.82" stop-color="#3539AF" stop-opacity="0.25"/>
<stop offset="1" stop-color="#0030A2" stop-opacity="0"/>
</linearGradient>
<linearGradient id="paint46_linear_333_2110" x1="699.023" y1="360.226" x2="959.856" y2="360.226" gradientUnits="userSpaceOnUse">
<stop stop-color="#D454D6"/>
<stop offset="0.1" stop-color="#CD53D4" stop-opacity="0.97"/>
<stop offset="0.24" stop-color="#B94FCF" stop-opacity="0.87"/>
<stop offset="0.42" stop-color="#9A4AC8" stop-opacity="0.72"/>
<stop offset="0.61" stop-color="#6D43BD" stop-opacity="0.51"/>
<stop offset="0.82" stop-color="#3539AF" stop-opacity="0.25"/>
<stop offset="1" stop-color="#0030A2" stop-opacity="0"/>
</linearGradient>
<linearGradient id="paint47_linear_333_2110" x1="283.851" y1="442.92" x2="544.684" y2="442.92" gradientUnits="userSpaceOnUse">
<stop stop-color="#D454D6"/>
<stop offset="0.1" stop-color="#CD53D4" stop-opacity="0.97"/>
<stop offset="0.24" stop-color="#B94FCF" stop-opacity="0.87"/>
<stop offset="0.42" stop-color="#9A4AC8" stop-opacity="0.72"/>
<stop offset="0.61" stop-color="#6D43BD" stop-opacity="0.51"/>
<stop offset="0.82" stop-color="#3539AF" stop-opacity="0.25"/>
<stop offset="1" stop-color="#0030A2" stop-opacity="0"/>
</linearGradient>
<linearGradient id="paint48_linear_333_2110" x1="229.89" y1="609.319" x2="490.723" y2="609.319" gradientUnits="userSpaceOnUse">
<stop stop-color="#D454D6"/>
<stop offset="0.1" stop-color="#CD53D4" stop-opacity="0.97"/>
<stop offset="0.24" stop-color="#B94FCF" stop-opacity="0.87"/>
<stop offset="0.42" stop-color="#9A4AC8" stop-opacity="0.72"/>
<stop offset="0.61" stop-color="#6D43BD" stop-opacity="0.51"/>
<stop offset="0.82" stop-color="#3539AF" stop-opacity="0.25"/>
<stop offset="1" stop-color="#0030A2" stop-opacity="0"/>
</linearGradient>
<linearGradient id="paint49_linear_333_2110" x1="168.869" y1="450.875" x2="429.701" y2="450.875" gradientUnits="userSpaceOnUse">
<stop stop-color="#00C8E2"/>
<stop offset="0.1" stop-color="#00C3E0" stop-opacity="0.97"/>
<stop offset="0.23" stop-color="#00B6DA" stop-opacity="0.88"/>
<stop offset="0.4" stop-color="#00A0D1" stop-opacity="0.74"/>
<stop offset="0.59" stop-color="#0082C5" stop-opacity="0.54"/>
<stop offset="0.8" stop-color="#005CB4" stop-opacity="0.29"/>
<stop offset="1" stop-color="#0030A2" stop-opacity="0"/>
</linearGradient>
<linearGradient id="paint50_linear_333_2110" x1="564.304" y1="429.085" x2="825.137" y2="429.085" gradientUnits="userSpaceOnUse">
<stop stop-color="#00C8E2"/>
<stop offset="0.1" stop-color="#00C3E0" stop-opacity="0.97"/>
<stop offset="0.23" stop-color="#00B6DA" stop-opacity="0.88"/>
<stop offset="0.4" stop-color="#00A0D1" stop-opacity="0.74"/>
<stop offset="0.59" stop-color="#0082C5" stop-opacity="0.54"/>
<stop offset="0.8" stop-color="#005CB4" stop-opacity="0.29"/>
<stop offset="1" stop-color="#0030A2" stop-opacity="0"/>
</linearGradient>
<linearGradient id="paint51_linear_333_2110" x1="213.991" y1="782.844" x2="474.823" y2="782.844" gradientUnits="userSpaceOnUse">
<stop stop-color="#00C8E2"/>
<stop offset="0.1" stop-color="#00C3E0" stop-opacity="0.97"/>
<stop offset="0.23" stop-color="#00B6DA" stop-opacity="0.88"/>
<stop offset="0.4" stop-color="#00A0D1" stop-opacity="0.74"/>
<stop offset="0.59" stop-color="#0082C5" stop-opacity="0.54"/>
<stop offset="0.8" stop-color="#005CB4" stop-opacity="0.29"/>
<stop offset="1" stop-color="#0030A2" stop-opacity="0"/>
</linearGradient>
<linearGradient id="paint52_linear_333_2110" x1="669.534" y1="705.216" x2="930.366" y2="705.216" gradientUnits="userSpaceOnUse">
<stop stop-color="#00C8E2"/>
<stop offset="0.1" stop-color="#00C3E0" stop-opacity="0.97"/>
<stop offset="0.23" stop-color="#00B6DA" stop-opacity="0.88"/>
<stop offset="0.4" stop-color="#00A0D1" stop-opacity="0.74"/>
<stop offset="0.59" stop-color="#0082C5" stop-opacity="0.54"/>
<stop offset="0.8" stop-color="#005CB4" stop-opacity="0.29"/>
<stop offset="1" stop-color="#0030A2" stop-opacity="0"/>
</linearGradient>
<linearGradient id="paint53_linear_333_2110" x1="719.059" y1="716.41" x2="912.341" y2="716.41" gradientUnits="userSpaceOnUse">
<stop stop-color="#00C8E2"/>
<stop offset="0.1" stop-color="#00C3E0" stop-opacity="0.97"/>
<stop offset="0.23" stop-color="#00B6DA" stop-opacity="0.88"/>
<stop offset="0.4" stop-color="#00A0D1" stop-opacity="0.74"/>
<stop offset="0.59" stop-color="#0082C5" stop-opacity="0.54"/>
<stop offset="0.8" stop-color="#005CB4" stop-opacity="0.29"/>
<stop offset="1" stop-color="#0030A2" stop-opacity="0"/>
</linearGradient>
<radialGradient id="paint54_radial_333_2110" cx="0" cy="0" r="1" gradientUnits="userSpaceOnUse" gradientTransform="translate(652.248 646.931) scale(466.462 14.6232)">
<stop stop-color="white"/>
<stop offset="0.21" stop-color="#B7BABF" stop-opacity="0.72"/>
<stop offset="0.42" stop-color="#767D86" stop-opacity="0.46"/>
<stop offset="0.61" stop-color="#434C59" stop-opacity="0.26"/>
<stop offset="0.78" stop-color="#1F2939" stop-opacity="0.12"/>
<stop offset="0.91" stop-color="#081425" stop-opacity="0.03"/>
<stop offset="1" stop-color="#000C1E" stop-opacity="0"/>
</radialGradient>
<linearGradient id="paint55_linear_333_2110" x1="698.376" y1="550.243" x2="698.376" y2="206.133" gradientUnits="userSpaceOnUse">
<stop stop-color="#000C1E" stop-opacity="0"/>
<stop offset="0.27" stop-color="#4B5461" stop-opacity="0.3"/>
<stop offset="0.63" stop-color="#ABAFB5" stop-opacity="0.67"/>
<stop offset="0.88" stop-color="#E8E9EA" stop-opacity="0.91"/>
<stop offset="1" stop-color="white"/>
</linearGradient>
<linearGradient id="paint56_linear_333_2110" x1="284.216" y1="722.041" x2="284.216" y2="444.099" gradientUnits="userSpaceOnUse">
<stop stop-color="#000C1E" stop-opacity="0"/>
<stop offset="0.27" stop-color="#4B5461" stop-opacity="0.3"/>
<stop offset="0.63" stop-color="#ABAFB5" stop-opacity="0.67"/>
<stop offset="0.88" stop-color="#E8E9EA" stop-opacity="0.91"/>
<stop offset="1" stop-color="white"/>
</linearGradient>
<linearGradient id="paint57_linear_333_2110" x1="799.917" y1="833.317" x2="799.917" y2="555.375" gradientUnits="userSpaceOnUse">
<stop stop-color="#000C1E" stop-opacity="0"/>
<stop offset="0.27" stop-color="#4B5461" stop-opacity="0.3"/>
<stop offset="0.63" stop-color="#ABAFB5" stop-opacity="0.67"/>
<stop offset="0.88" stop-color="#E8E9EA" stop-opacity="0.91"/>
<stop offset="1" stop-color="white"/>
</linearGradient>
<linearGradient id="paint58_linear_333_2110" x1="838.228" y1="685.203" x2="838.228" y2="506.879" gradientUnits="userSpaceOnUse">
<stop stop-color="#000C1E" stop-opacity="0"/>
<stop offset="0.27" stop-color="#4B5461" stop-opacity="0.3"/>
<stop offset="0.63" stop-color="#ABAFB5" stop-opacity="0.67"/>
<stop offset="0.88" stop-color="#E8E9EA" stop-opacity="0.91"/>
<stop offset="1" stop-color="white"/>
</linearGradient>
<linearGradient id="paint59_linear_333_2110" x1="640.876" y1="468.53" x2="640.876" y2="290.222" gradientUnits="userSpaceOnUse">
<stop stop-color="#000C1E" stop-opacity="0"/>
<stop offset="0.27" stop-color="#4B5461" stop-opacity="0.3"/>
<stop offset="0.63" stop-color="#ABAFB5" stop-opacity="0.67"/>
<stop offset="0.88" stop-color="#E8E9EA" stop-opacity="0.91"/>
<stop offset="1" stop-color="white"/>
</linearGradient>
<linearGradient id="paint60_linear_333_2110" x1="341.765" y1="702.741" x2="341.765" y2="524.434" gradientUnits="userSpaceOnUse">
<stop stop-color="#000C1E" stop-opacity="0"/>
<stop offset="0.27" stop-color="#4B5461" stop-opacity="0.3"/>
<stop offset="0.63" stop-color="#ABAFB5" stop-opacity="0.67"/>
<stop offset="0.88" stop-color="#E8E9EA" stop-opacity="0.91"/>
<stop offset="1" stop-color="white"/>
</linearGradient>
<linearGradient id="paint61_linear_333_2110" x1="-322.979" y1="-384.914" x2="1124.19" y2="1019.43" gradientUnits="userSpaceOnUse">
<stop stop-color="white"/>
<stop offset="0.1" stop-color="#EDEEEF" stop-opacity="0.93"/>
<stop offset="0.31" stop-color="#BEC1C5" stop-opacity="0.74"/>
<stop offset="0.6" stop-color="#727882" stop-opacity="0.45"/>
<stop offset="0.97" stop-color="#0A1627" stop-opacity="0.04"/>
<stop offset="1" stop-color="#000C1E" stop-opacity="0"/>
</linearGradient>
</defs>
</svg>
