<svg width="592" height="502" viewBox="0 0 592 502" fill="none" xmlns="http://www.w3.org/2000/svg">
<path fill-rule="evenodd" clip-rule="evenodd" d="M68.073 420.171C26.4392 415.739 -22.6097 362.879 11.3783 298.793C30.6493 262.457 76.454 257.122 80.4376 221.105C83.6426 192.118 35.9882 197.019 32.7111 127.692C29.1827 53.1087 105.266 -10.644 180.331 16.2912C221.115 30.9285 229.809 66.9457 274.351 78.6345C321.68 91.0477 344.269 35.632 385.264 26.6858C466.831 8.87374 507.459 92.1525 496.143 135.772C490.561 157.286 470.495 179.686 477.146 202.301C483.389 223.541 511.01 230.053 539.144 254.099C576.652 286.16 578.72 386.078 484.682 403.577C423.994 414.869 406.13 357.077 360.716 380.278C345.971 387.814 348.797 407.18 340.436 420.169C321.974 448.857 282.302 466.279 248.559 457.376C205.716 446.069 213.337 417.871 167.913 403.577C135.639 393.423 107.532 424.371 68.0709 420.169L68.073 420.171Z" fill="url(#paint0_radial_325_7278)"/>
<g style="mix-blend-mode:color-burn">
<path fill-rule="evenodd" clip-rule="evenodd" d="M532.725 399.276C557.84 358.096 571.127 310.795 571.127 262.562C571.127 117.651 453.476 0 308.563 0C163.651 0 46 117.649 46 262.562C45.9995 310.795 59.2853 358.096 84.3996 399.276H532.725Z" fill="#D2E9FE"/>
</g>
<path fill-rule="evenodd" clip-rule="evenodd"  d="M46.4064 247.797C76.32 242.286 109.491 247.604 132.271 266.574C139.482 272.578 146.835 283.739 155.373 291.685C160.934 296.857 166.996 300.665 173.895 300.618C175.997 300.604 177.994 299.718 179.796 298.418C182.598 296.4 184.931 293.384 186.466 290.887C193.361 279.653 194.953 266.063 193.062 252.407C190.212 231.83 179.458 211.094 166.879 197.935C146.386 176.497 119.708 176.171 96.1503 171.931C85.2543 169.969 75.0152 167.181 66.312 161.191C66.4802 160.79 66.6489 160.391 66.8182 159.993C75.418 165.986 85.5731 168.733 96.3763 170.677C120.179 174.961 147.085 175.394 167.798 197.054C180.542 210.38 191.443 231.383 194.323 252.226C196.249 266.182 194.6 280.075 187.552 291.547C185.94 294.174 183.481 297.327 180.546 299.45C178.521 300.909 176.268 301.874 173.909 301.889C166.695 301.939 160.326 298.024 154.512 292.607C145.989 284.679 138.659 273.535 131.462 267.543C108.884 248.741 75.9715 243.548 46.3398 249.084C46.3609 248.652 46.3836 248.219 46.4082 247.786L46.4064 247.797ZM49.4995 305.303C59.3411 300.287 70.8501 298.148 81.8494 297.947C108.071 297.455 127.26 302.231 142.046 310.188C164.22 322.119 176.494 341.212 187.685 360.51C195.607 374.172 202.98 387.945 213.022 399.281H211.331C201.62 388.042 194.354 374.553 186.583 361.147C175.507 342.048 163.39 323.119 141.442 311.309C126.812 303.436 107.813 298.733 81.8722 299.224C70.9324 299.43 59.4637 301.56 49.7202 306.622C49.6443 306.185 49.5708 305.749 49.4995 305.312V305.303ZM354.678 399.276C354.878 399.111 355.076 398.945 355.272 398.778C367.872 388.115 375.969 372.909 386.438 360.366C424.901 314.279 474.832 299.623 531.811 322.851C542.091 327.043 551.603 331.91 560.129 337.772C560.001 338.201 559.872 338.627 559.742 339.054C551.205 333.138 541.656 328.241 531.331 324.032C474.933 301.035 425.503 315.558 387.424 361.182C377.062 373.595 368.998 388.593 356.657 399.276H354.678ZM571.116 260.647C569.86 259.641 568.567 258.665 567.237 257.721C542.856 240.507 505.935 223.539 471.133 221.491C448.031 220.132 425.859 225.353 408.955 241.516C397.637 252.336 390.883 267.334 382.508 280.364C359.115 316.77 323.919 342.643 279.067 327.829C239.459 314.74 229.643 280.697 223.334 243.716C220.205 225.365 217.929 206.297 213.227 188.758C208.552 171.316 201.478 155.39 188.718 143.219C169.186 124.594 140.995 116.059 115.576 109.084C110.602 107.72 104.761 106.341 98.4588 105.149C98.7402 104.771 99.0233 104.396 99.3083 104.022C105.412 105.189 111.069 106.527 115.914 107.856C141.528 114.883 169.914 123.529 189.597 142.296C202.525 154.623 209.72 170.749 214.458 188.421C219.169 205.997 221.453 225.106 224.59 243.495C230.817 279.998 240.369 313.693 279.466 326.613C323.707 341.233 358.363 315.579 381.436 279.674C389.862 266.56 396.684 251.475 408.074 240.593C425.239 224.178 447.745 218.838 471.208 220.218C506.248 222.279 543.424 239.347 567.971 256.678C569.039 257.433 570.082 258.21 571.1 259.01C571.1 259.554 571.113 260.101 571.116 260.646V260.647ZM562.044 193.905C543.038 191.507 523.378 193.53 504.285 192.068C492.849 191.192 473.984 183.326 464.018 174.656C459.596 170.803 456.934 166.775 457.215 163.126C457.38 160.972 458.538 158.923 460.999 157.101C464.467 154.535 470.632 152.402 480.302 151.062C492.27 149.403 505.392 150.633 517.372 151.372C528.17 152.038 538.481 154.674 548.925 156.802C549.132 157.275 549.34 157.747 549.545 158.22C538.861 156.068 528.333 153.316 517.293 152.644C505.395 151.91 492.363 150.677 480.477 152.323C471.1 153.623 465.116 155.639 461.755 158.124C459.654 159.674 458.625 161.389 458.485 163.224C458.228 166.552 460.804 170.174 464.854 173.695C474.644 182.207 493.154 189.938 504.381 190.798C523.32 192.248 542.816 190.285 561.681 192.578C561.804 193.019 561.924 193.461 562.044 193.905ZM527.2 117.204C524.812 116.688 522.394 116.205 519.947 115.756C458.34 104.39 431.744 135.674 409.274 167.74C400.219 180.664 391.827 193.718 382.117 204.209C367.438 220.069 349.758 230.108 322.314 225.174C311.303 223.195 303.952 216.592 298.573 206.977C293.266 197.49 289.887 185.053 286.764 171.279C282.111 150.757 278.019 127.254 268.82 106.212C259.667 85.2745 245.445 66.7771 220.504 56.1474C200.712 47.7069 180.702 44.9781 160.188 45.9642C160.854 45.5077 161.52 45.0546 162.187 44.6051C182.173 43.887 201.686 46.7401 221.003 54.9756C246.274 65.749 260.702 84.4811 269.98 105.702C279.212 126.818 283.33 150.402 287.999 170.999C291.092 184.638 294.422 196.962 299.678 206.355C304.861 215.62 311.923 222.013 322.533 223.92C349.447 228.76 366.779 218.899 381.175 203.344C390.848 192.893 399.203 179.885 408.223 167.009C430.947 134.582 457.872 103.01 520.171 114.503C522.192 114.875 524.192 115.268 526.171 115.684C526.515 116.191 526.855 116.697 527.193 117.204H527.2ZM462.517 49.9051C456.235 49.9961 450.069 50.744 444.142 52.7845C434.071 56.2507 425.694 64.0676 417.916 73.163C410.057 82.3513 402.813 92.848 395.106 101.586C387.303 110.431 379.012 117.469 369.174 119.644C359.335 121.819 347.877 119.15 333.785 108.422C297.578 80.8521 299.296 47.0151 298.755 19.5781C298.622 12.6457 298.349 6.12844 297.254 0.239943C297.676 0.220676 298.1 0.204911 298.524 0.189148C299.605 6.10041 299.895 12.6247 300.03 19.5536C300.556 46.6736 298.762 80.155 334.55 107.408C348.236 117.829 359.318 120.516 368.892 118.4C378.465 116.285 386.545 109.368 394.15 100.744C401.856 92.0108 409.093 81.5194 416.947 72.3346C424.883 63.0517 433.455 55.1175 443.727 51.5795C449.251 49.6774 454.979 48.8769 460.815 48.6808C461.385 49.0871 461.952 49.4958 462.517 49.9068V49.9051ZM404.499 18.1068C403.466 21.559 402.513 25.1303 401.48 28.6858C396.87 44.5473 390.645 60.0619 368.913 63.7838C355.466 66.087 346.436 63.0832 341.031 57.179C335.626 51.2747 333.823 42.4052 334.932 32.8333C336.104 22.7045 340.537 11.7945 347.287 2.8409L348.704 3.05458C341.857 11.9206 337.368 22.8551 336.197 32.9805C335.135 42.1495 336.792 50.6705 341.977 56.319C347.161 61.9675 355.829 64.7261 368.706 62.528C389.825 58.9112 395.784 43.7468 400.264 28.3303C401.315 24.738 402.271 21.1299 403.321 17.6462L404.506 18.1103L404.499 18.1068ZM418.287 399.276C421.037 392.124 424.671 385.409 430.197 379.904C449.579 360.59 483.588 355.124 515.78 360.855C526.911 362.838 537.821 366.157 547.832 370.697C547.657 371.082 547.482 371.465 547.307 371.849C537.393 367.355 526.583 364.072 515.557 362.109C483.796 356.455 450.227 361.75 431.097 380.806C425.818 386.061 422.303 392.459 419.636 399.276H418.287ZM63.359 356.443C96.5864 348.775 131.91 359.049 145.679 394.834C146.208 396.287 146.65 397.77 147.003 399.276H145.698C145.371 397.926 144.967 396.595 144.49 395.291C131.003 360.219 96.4113 350.185 63.8232 357.643L63.359 356.443Z" fill="white"/>
<path fill-rule="evenodd" clip-rule="evenodd" d="M274.887 82.5314C300.379 97.6936 293.763 110.093 296.126 124.382C298.355 137.854 304.921 143.186 312.013 148.678C336.759 167.84 370.973 153.044 398.024 165.994C417.99 175.55 413.43 206.134 435.352 221.739C454.997 235.725 465.98 212.649 493.787 227.042C509.942 235.404 515.102 252.909 515.102 252.909C515.102 252.909 523.187 229.751 505.106 217.178C487.864 205.189 454.43 235.518 435.352 207.852C423.588 190.786 439.517 163.52 422.859 148.678C394.655 123.561 355.286 169.809 322.764 144.825C299.796 127.177 329.81 87.8978 274.881 82.5314H274.887Z" fill="#E56164"/>
<path fill-rule="evenodd" clip-rule="evenodd" d="M296.124 124.382C293.761 110.093 300.377 97.6937 274.885 82.5334C275.365 82.5786 275.839 82.6278 276.306 82.6809C322.095 96.8485 284.218 126.611 314.222 148.679C347.262 172.983 380.361 140.868 408.565 165.994C425.222 180.835 416.148 195.114 427.904 212.18C437.956 226.762 451.774 225.79 465.118 223.36C454.881 225.672 446.517 229.681 435.362 221.741C413.44 206.134 418 175.552 398.034 165.994C370.977 153.036 336.769 167.842 312.023 148.679C304.931 143.189 298.365 137.854 296.136 124.382H296.124ZM469.325 222.556C479.778 220.511 489.656 218.488 496.855 223.493C514.935 236.064 515.106 252.911 515.106 252.911C515.106 252.911 509.946 235.404 493.793 227.044C483.883 221.914 476.112 221.542 469.325 222.556Z" fill="#BF3B3E"/>
<path fill-rule="evenodd" clip-rule="evenodd" d="M458.535 273.244C479.058 284.926 482.908 269.245 493.676 273.982C502.087 277.684 499.274 285.942 504.093 291.696C507.358 295.587 511.716 295.407 516.324 295.918C516.472 295.936 516.799 295.96 516.889 296.117C517.088 296.46 515.272 297.066 515.129 297.114C511.846 298.27 507.877 299.424 504.366 299.073C498.509 298.487 497.078 292.383 493.109 289.17C481.307 279.621 464.62 295.385 458.535 273.246V273.244Z" fill="#589BF3"/>
<path fill-rule="evenodd" clip-rule="evenodd" d="M469.215 285.532C477.996 285.101 483.703 281.844 489.211 283.628C498.303 286.576 498.369 297.993 509.52 298.722C507.78 299.067 506.024 299.237 504.37 299.071C498.51 298.487 497.08 292.381 493.11 289.17C485.792 283.247 476.597 287.059 469.215 285.532Z" fill="#3971C5"/>
<path fill-rule="evenodd" clip-rule="evenodd" d="M262.271 228.796C262.271 227.468 261.743 226.195 260.803 225.257C259.863 224.318 258.589 223.791 257.26 223.79H78.7609C77.4321 223.791 76.1579 224.318 75.2183 225.257C74.2786 226.195 73.7505 227.468 73.75 228.796V343.918C73.7511 345.246 74.2793 346.518 75.2188 347.457C76.1584 348.395 77.4323 348.923 78.7609 348.924H257.26C258.589 348.923 259.863 348.395 260.802 347.457C261.742 346.518 262.27 345.246 262.271 343.918V228.796Z" fill="white"/>
<path fill-rule="evenodd" clip-rule="evenodd" d="M262.571 228.796V343.918C262.571 345.325 262.011 346.674 261.015 347.669C260.019 348.663 258.669 349.222 257.261 349.223H78.7615C77.3534 349.222 76.0034 348.663 75.0077 347.668C74.0121 346.673 73.4522 345.325 73.4512 343.918V228.796C73.4522 227.389 74.0121 226.041 75.0077 225.046C76.0034 224.051 77.3534 223.492 78.7615 223.491H257.261C258.669 223.492 260.019 224.051 261.015 225.045C262.011 226.04 262.571 227.389 262.571 228.796ZM261.973 228.796C261.972 227.548 261.475 226.351 260.592 225.468C259.708 224.586 258.51 224.09 257.261 224.089H78.7615C77.512 224.09 76.314 224.586 75.4305 225.468C74.547 226.351 74.0504 227.548 74.0499 228.796V343.918C74.0504 345.166 74.547 346.363 75.4305 347.246C76.314 348.128 77.512 348.624 78.7615 348.625H257.261C258.51 348.624 259.708 348.128 260.592 347.246C261.475 346.363 261.972 345.166 261.973 343.918V228.796Z" fill="#92A8CF"/>
<path fill-rule="evenodd" clip-rule="evenodd" d="M110.812 231.019C110.812 230.77 110.713 230.532 110.537 230.357C110.361 230.181 110.123 230.082 109.875 230.082H82.5766C82.3281 230.082 82.0897 230.181 81.9139 230.357C81.7382 230.532 81.6392 230.77 81.6387 231.019V252.572C81.6392 252.82 81.7382 253.058 81.9139 253.234C82.0897 253.409 82.3281 253.508 82.5766 253.509H109.875C110.123 253.508 110.361 253.409 110.537 253.234C110.713 253.058 110.812 252.82 110.812 252.572V231.019Z" fill="#589BF3"/>
<path fill-rule="evenodd" clip-rule="evenodd" d="M146.705 231.019C146.705 230.77 146.606 230.532 146.43 230.357C146.254 230.181 146.016 230.082 145.767 230.082H118.469C118.221 230.082 117.982 230.181 117.807 230.357C117.631 230.532 117.532 230.77 117.531 231.019V252.572C117.532 252.82 117.631 253.058 117.807 253.234C117.982 253.409 118.221 253.508 118.469 253.509H145.759C146.008 253.508 146.246 253.409 146.422 253.234C146.598 253.058 146.697 252.82 146.697 252.572L146.705 231.019Z" fill="#8EBBF7"/>
<path fill-rule="evenodd" clip-rule="evenodd" d="M182.6 231.019C182.599 230.77 182.5 230.532 182.324 230.357C182.149 230.181 181.91 230.082 181.662 230.082H154.364C154.115 230.082 153.877 230.181 153.701 230.357C153.525 230.532 153.426 230.77 153.426 231.019V252.572C153.426 252.82 153.525 253.058 153.701 253.234C153.877 253.409 154.115 253.508 154.364 253.509H181.662C181.91 253.508 182.149 253.409 182.324 253.234C182.5 253.058 182.599 252.82 182.6 252.572V231.019Z" fill="#B9D5FA"/>
<path fill-rule="evenodd" clip-rule="evenodd" d="M218.492 231.019C218.492 230.77 218.393 230.532 218.217 230.357C218.041 230.181 217.803 230.082 217.554 230.082H190.26C190.012 230.082 189.773 230.181 189.598 230.357C189.422 230.532 189.323 230.77 189.322 231.019V252.572C189.323 252.82 189.422 253.058 189.598 253.234C189.773 253.409 190.012 253.508 190.26 253.509H217.558C217.807 253.508 218.045 253.409 218.221 253.234C218.397 253.058 218.496 252.82 218.496 252.572L218.492 231.019Z" fill="#C7DDFB"/>
<path fill-rule="evenodd" clip-rule="evenodd" d="M254.389 231.019C254.388 230.77 254.289 230.532 254.113 230.357C253.938 230.181 253.699 230.082 253.451 230.082H226.153C225.904 230.082 225.666 230.181 225.49 230.357C225.314 230.532 225.215 230.77 225.215 231.019V252.572C225.215 252.82 225.314 253.058 225.49 253.234C225.666 253.409 225.904 253.508 226.153 253.509H253.451C253.699 253.508 253.938 253.409 254.113 253.234C254.289 253.058 254.388 252.82 254.389 252.572V231.019Z" fill="#E3EFFE"/>
<path fill-rule="evenodd" clip-rule="evenodd" d="M110.812 260.721C110.812 260.473 110.713 260.235 110.537 260.059C110.361 259.884 110.123 259.785 109.875 259.784H82.5766C82.3281 259.785 82.0897 259.884 81.9139 260.059C81.7382 260.235 81.6392 260.473 81.6387 260.721V282.274C81.6392 282.523 81.7382 282.761 81.9139 282.936C82.0897 283.112 82.3281 283.211 82.5766 283.211H109.875C110.123 283.211 110.361 283.112 110.537 282.936C110.713 282.761 110.812 282.523 110.812 282.274V260.721Z" fill="#E9696C"/>
<path fill-rule="evenodd" clip-rule="evenodd" d="M146.705 260.721C146.705 260.473 146.606 260.235 146.43 260.059C146.254 259.884 146.016 259.785 145.767 259.784H118.469C118.221 259.785 117.982 259.884 117.807 260.059C117.631 260.235 117.532 260.473 117.531 260.721V282.274C117.532 282.523 117.631 282.761 117.807 282.936C117.982 283.112 118.221 283.211 118.469 283.211H145.759C146.008 283.211 146.246 283.112 146.422 282.936C146.598 282.761 146.697 282.523 146.697 282.274L146.705 260.721Z" fill="#ED8385"/>
<path fill-rule="evenodd" clip-rule="evenodd" d="M182.6 260.721C182.599 260.473 182.5 260.235 182.324 260.059C182.149 259.884 181.91 259.785 181.662 259.784H154.364C154.115 259.785 153.877 259.884 153.701 260.059C153.525 260.235 153.426 260.473 153.426 260.721V282.274C153.426 282.523 153.525 282.761 153.701 282.936C153.877 283.112 154.115 283.211 154.364 283.211H181.662C181.91 283.211 182.149 283.112 182.324 282.936C182.5 282.761 182.599 282.523 182.6 282.274V260.721Z" fill="#F5A8AA"/>
<path fill-rule="evenodd" clip-rule="evenodd" d="M218.492 260.721C218.492 260.473 218.393 260.235 218.217 260.059C218.041 259.884 217.803 259.785 217.554 259.784H190.26C190.012 259.785 189.773 259.884 189.598 260.059C189.422 260.235 189.323 260.473 189.322 260.721V282.274C189.323 282.523 189.422 282.761 189.598 282.936C189.773 283.112 190.012 283.211 190.26 283.211H217.558C217.807 283.211 218.045 283.112 218.221 282.936C218.397 282.761 218.496 282.523 218.496 282.274L218.492 260.721Z" fill="#F9C9CA"/>
<path fill-rule="evenodd" clip-rule="evenodd" d="M254.389 260.721C254.388 260.473 254.289 260.235 254.113 260.059C253.938 259.884 253.699 259.785 253.451 259.784H226.153C225.904 259.785 225.666 259.884 225.49 260.059C225.314 260.235 225.215 260.473 225.215 260.721V282.274C225.215 282.523 225.314 282.761 225.49 282.936C225.666 283.112 225.904 283.211 226.153 283.211H253.451C253.699 283.211 253.938 283.112 254.113 282.936C254.289 282.761 254.388 282.523 254.389 282.274V260.721Z" fill="#FDD5D6"/>
<path fill-rule="evenodd" clip-rule="evenodd" d="M110.812 290.438C110.812 290.189 110.713 289.951 110.537 289.776C110.361 289.6 110.123 289.501 109.875 289.501H82.5766C82.3281 289.501 82.0897 289.6 81.9139 289.776C81.7382 289.951 81.6392 290.189 81.6387 290.438V311.991C81.6392 312.239 81.7382 312.477 81.9139 312.653C82.0897 312.829 82.3281 312.927 82.5766 312.928H109.875C110.123 312.927 110.361 312.829 110.537 312.653C110.713 312.477 110.812 312.239 110.812 311.991V290.438Z" fill="#5BC281"/>
<path fill-rule="evenodd" clip-rule="evenodd" d="M146.705 290.438C146.705 290.189 146.606 289.951 146.43 289.776C146.254 289.6 146.016 289.501 145.767 289.501H118.469C118.221 289.501 117.982 289.6 117.807 289.776C117.631 289.951 117.532 290.189 117.531 290.438V311.991C117.532 312.239 117.631 312.477 117.807 312.653C117.982 312.829 118.221 312.927 118.469 312.928H145.759C146.008 312.927 146.246 312.829 146.422 312.653C146.598 312.477 146.697 312.239 146.697 311.991L146.705 290.438Z" fill="#68CA8C"/>
<path fill-rule="evenodd" clip-rule="evenodd" d="M182.6 290.438C182.599 290.189 182.5 289.951 182.324 289.776C182.149 289.6 181.91 289.501 181.662 289.501H154.364C154.115 289.501 153.877 289.6 153.701 289.776C153.525 289.951 153.426 290.189 153.426 290.438V311.991C153.426 312.239 153.525 312.477 153.701 312.653C153.877 312.829 154.115 312.927 154.364 312.928H181.662C181.91 312.927 182.149 312.829 182.324 312.653C182.5 312.477 182.599 312.239 182.6 311.991V290.438Z" fill="#84DDA5"/>
<path fill-rule="evenodd" clip-rule="evenodd" d="M218.492 290.438C218.492 290.189 218.393 289.951 218.217 289.776C218.041 289.6 217.803 289.501 217.554 289.501H190.26C190.012 289.501 189.773 289.6 189.598 289.776C189.422 289.951 189.323 290.189 189.322 290.438V311.991C189.323 312.239 189.422 312.477 189.598 312.653C189.773 312.829 190.012 312.927 190.26 312.928H217.558C217.807 312.927 218.045 312.829 218.221 312.653C218.397 312.477 218.496 312.239 218.496 311.991L218.492 290.438Z" fill="#9EE4B8"/>
<path fill-rule="evenodd" clip-rule="evenodd" d="M254.389 290.438C254.388 290.189 254.289 289.951 254.113 289.776C253.938 289.6 253.699 289.501 253.451 289.501H226.153C225.904 289.501 225.666 289.6 225.49 289.776C225.314 289.951 225.215 290.189 225.215 290.438V311.991C225.215 312.239 225.314 312.477 225.49 312.653C225.666 312.829 225.904 312.927 226.153 312.928H253.451C253.699 312.927 253.938 312.829 254.113 312.653C254.289 312.477 254.388 312.239 254.389 311.991V290.438Z" fill="#C8F0D7"/>
<path fill-rule="evenodd" clip-rule="evenodd" d="M110.812 320.148C110.812 319.9 110.713 319.662 110.537 319.486C110.361 319.311 110.123 319.212 109.875 319.211H82.5766C82.3281 319.212 82.0897 319.311 81.9139 319.486C81.7382 319.662 81.6392 319.9 81.6387 320.148V341.702C81.6392 341.95 81.7382 342.188 81.9139 342.364C82.0897 342.539 82.3281 342.638 82.5766 342.638H109.875C110.123 342.638 110.361 342.539 110.537 342.364C110.713 342.188 110.812 341.95 110.812 341.702V320.148Z" fill="#F7BF5F"/>
<path fill-rule="evenodd" clip-rule="evenodd" d="M146.705 320.148C146.705 319.9 146.606 319.662 146.43 319.486C146.254 319.311 146.016 319.212 145.767 319.211H118.469C118.221 319.212 117.982 319.311 117.807 319.486C117.631 319.662 117.532 319.9 117.531 320.148V341.702C117.532 341.95 117.631 342.188 117.807 342.364C117.982 342.539 118.221 342.638 118.469 342.638H145.759C146.008 342.638 146.246 342.539 146.422 342.364C146.598 342.188 146.697 341.95 146.697 341.702L146.705 320.148Z" fill="#F8C773"/>
<path fill-rule="evenodd" clip-rule="evenodd" d="M182.6 320.148C182.599 319.9 182.5 319.662 182.324 319.486C182.149 319.311 181.91 319.212 181.662 319.211H154.364C154.115 319.212 153.877 319.311 153.701 319.486C153.525 319.662 153.426 319.9 153.426 320.148V341.702C153.426 341.95 153.525 342.188 153.701 342.364C153.877 342.539 154.115 342.638 154.364 342.638H181.662C181.91 342.638 182.149 342.539 182.324 342.364C182.5 342.188 182.599 341.95 182.6 341.702V320.148Z" fill="#FED796"/>
<path fill-rule="evenodd" clip-rule="evenodd" d="M218.492 320.148C218.492 319.9 218.393 319.662 218.217 319.486C218.041 319.311 217.803 319.212 217.554 319.211H190.26C190.012 319.212 189.773 319.311 189.598 319.486C189.422 319.662 189.323 319.9 189.322 320.148V341.702C189.323 341.95 189.422 342.188 189.598 342.364C189.773 342.539 190.012 342.638 190.26 342.638H217.558C217.807 342.638 218.045 342.539 218.221 342.364C218.397 342.188 218.496 341.95 218.496 341.702L218.492 320.148Z" fill="#FEE8C3"/>
<path fill-rule="evenodd" clip-rule="evenodd" d="M254.389 320.148C254.388 319.9 254.289 319.662 254.113 319.486C253.938 319.311 253.699 319.212 253.451 319.211H226.153C225.904 319.212 225.666 319.311 225.49 319.486C225.314 319.662 225.215 319.9 225.215 320.148V341.702C225.215 341.95 225.314 342.188 225.49 342.364C225.666 342.539 225.904 342.638 226.153 342.638H253.451C253.699 342.638 253.938 342.539 254.113 342.364C254.289 342.188 254.388 341.95 254.389 341.702V320.148Z" fill="white"/>
<path fill-rule="evenodd" clip-rule="evenodd" d="M159.703 355.427C159.703 358.52 160.018 361.549 161.012 364.501C168.538 386.85 185.143 386.331 212.547 388.588C226.145 389.706 223.637 405.995 232.814 413.283C237.861 417.29 244.062 418.753 250.436 418.55C251.801 418.508 255.955 418.593 256.8 417.154C236.079 415.085 237.424 400.762 236.51 393.147C235.69 386.323 230.306 379.043 223.78 376.591C204.988 369.528 184.582 390.745 159.703 355.435V355.427Z" fill="#FDB958"/>
<path fill-rule="evenodd" clip-rule="evenodd" d="M163.318 370.104C163.318 370.104 174.454 380.61 192.57 382.298C211.055 384.023 217.493 380.947 224.841 386.836C229.684 390.717 228.81 401.878 232.72 407.179C238.024 414.367 246.583 418.121 246.583 418.121L245.785 418.386C241.085 417.882 236.623 416.307 232.814 413.283C223.634 405.997 226.142 389.708 212.546 388.588C187.661 386.541 171.68 386.78 163.318 370.104Z" fill="#E7833C"/>
<path fill-rule="evenodd" clip-rule="evenodd" d="M552.599 30.3764C552.598 29.8056 552.371 29.2583 551.967 28.8547C551.563 28.451 551.015 28.224 550.443 28.2235H434.614C434.043 28.224 433.495 28.451 433.091 28.8547C432.687 29.2583 432.46 29.8056 432.459 30.3764V97.8133C432.46 98.384 432.687 98.9311 433.091 99.3344C433.495 99.7377 434.043 99.9642 434.614 99.9642H550.443C551.015 99.9642 551.563 99.7377 551.967 99.3344C552.371 98.9311 552.598 98.384 552.599 97.8133V30.3764Z" fill="url(#paint1_linear_325_7278)"/>
<path fill-rule="evenodd" clip-rule="evenodd" d="M432.459 87.3655L468.15 42.5126L492.529 73.1541L516.907 42.5126L552.599 87.3655V97.8133C552.598 98.3839 552.371 98.931 551.967 99.3343C551.563 99.7377 551.015 99.9642 550.443 99.9642H434.614C434.043 99.9642 433.495 99.7377 433.091 99.3343C432.687 98.931 432.46 98.3839 432.459 97.8133V87.3655ZM492.527 39.5962C493.614 39.5958 494.677 39.9174 495.581 40.5204C496.485 41.1234 497.19 41.9807 497.606 42.9839C498.022 43.987 498.131 45.0909 497.919 46.156C497.708 47.2211 497.184 48.1995 496.416 48.9675C495.647 49.7354 494.668 50.2585 493.602 50.4705C492.536 50.6825 491.43 50.5739 490.426 50.1585C489.422 49.743 488.563 49.0393 487.959 48.1364C487.355 47.2336 487.033 46.1721 487.033 45.0862C487.034 43.6303 487.613 42.2342 488.643 41.2047C489.674 40.1753 491.071 39.5967 492.529 39.5962H492.527Z" fill="#F8FBFF"/>
<path fill-rule="evenodd" clip-rule="evenodd" d="M553.098 30.3764V97.8133C553.098 98.5162 552.818 99.19 552.32 99.6868C551.823 100.184 551.148 100.463 550.444 100.463H434.615C433.911 100.463 433.237 100.184 432.739 99.6868C432.241 99.19 431.961 98.5162 431.961 97.8133V30.3764C431.961 29.6734 432.241 28.9994 432.739 28.5023C433.237 28.0052 433.911 27.7257 434.615 27.7251H550.444C551.148 27.7257 551.823 28.0052 552.32 28.5023C552.818 28.9994 553.098 29.6734 553.098 30.3764ZM552.101 30.3764C552.1 29.9378 551.925 29.5172 551.615 29.2071C551.304 28.8969 550.883 28.7224 550.444 28.7219H434.615C434.176 28.7224 433.755 28.8969 433.444 29.2071C433.134 29.5172 432.959 29.9378 432.959 30.3764V97.8133C432.959 98.2518 433.134 98.6721 433.445 98.982C433.755 99.2918 434.176 99.4659 434.615 99.4659H550.444C550.883 99.4659 551.304 99.2918 551.615 98.982C551.925 98.6721 552.1 98.2518 552.101 97.8133V30.3764Z" fill="#589BF3"/>
<path fill-rule="evenodd" clip-rule="evenodd" d="M521.402 189.156C518.445 183.691 516.901 177.574 516.91 171.362C516.91 150.662 533.733 133.857 554.454 133.857C575.174 133.857 591.999 150.662 591.999 171.362C592.008 177.574 590.464 183.691 587.507 189.156C585.303 193.225 582.368 196.854 578.85 199.863C576.924 202.41 575.068 205.024 573.757 207.225C571.081 211.718 570.838 217.758 570.838 217.758H538.11C538.11 217.758 537.625 211.829 535.146 207.225C534.232 205.526 532.167 202.675 529.908 199.735C526.453 196.752 523.57 193.168 521.398 189.156H521.402Z" fill="#FEBF52"/>
<path fill-rule="evenodd" clip-rule="evenodd" d="M572.26 210.458C571.447 212.813 570.968 215.27 570.835 217.758H538.107C538.107 217.758 537.624 211.829 535.143 207.225C534.229 205.526 532.164 202.677 529.905 199.735C525.919 196.299 522.702 192.063 520.463 187.304C518.224 182.544 517.012 177.367 516.908 172.109C516.803 166.851 517.808 161.629 519.856 156.784C521.904 151.94 524.95 147.58 528.795 143.988C520.901 157.043 519.554 169.837 525.079 181.509C530.639 193.256 541.617 205.379 545.846 208.562C549.486 211.301 565.038 210.837 572.256 210.458H572.26Z" fill="#E8992C"/>
<path fill-rule="evenodd" clip-rule="evenodd" d="M560.446 146.049C560.195 145.982 559.96 145.865 559.755 145.706C559.55 145.547 559.378 145.348 559.251 145.122C559.124 144.896 559.043 144.646 559.014 144.388C558.985 144.13 559.008 143.869 559.081 143.62C559.155 143.371 559.277 143.139 559.441 142.939C559.606 142.738 559.809 142.571 560.038 142.45C560.268 142.329 560.52 142.254 560.779 142.232C561.037 142.209 561.298 142.238 561.546 142.317C568.131 144.255 574.09 148.373 577.443 152.683C580.131 156.138 581.498 160.029 582.136 164.046C582.496 166.47 582.662 168.919 582.635 171.37C582.644 171.631 582.599 171.89 582.505 172.133C582.411 172.377 582.269 172.599 582.088 172.786C581.906 172.973 581.689 173.122 581.448 173.224C581.208 173.326 580.95 173.378 580.688 173.378C580.427 173.378 580.169 173.326 579.929 173.224C579.688 173.122 579.471 172.973 579.289 172.786C579.108 172.599 578.966 172.377 578.872 172.133C578.778 171.89 578.733 171.631 578.742 171.37C578.769 169.126 578.618 166.884 578.289 164.664C577.752 161.275 576.63 157.986 574.367 155.075C571.422 151.302 566.197 147.743 560.446 146.049Z" fill="#FFEFD3"/>
<path fill-rule="evenodd" clip-rule="evenodd" d="M548.643 174.041C548.971 173.862 549.274 173.655 549.599 173.455C550.912 172.585 552.463 172.142 554.038 172.185C556.171 172.185 557.161 172.594 558.149 173.025C558.964 173.422 559.841 173.675 560.743 173.772C561.246 171.667 561.836 169.839 562.523 168.402C563.415 166.53 564.519 165.284 565.716 164.77C567.959 163.815 569.907 164.594 571.048 166.099C572.569 168.093 572.665 171.482 569.923 173.738C568.42 174.98 565.991 175.897 562.339 175.881C562.14 176.864 561.954 177.899 561.785 178.973C559.292 194.722 560.038 218.9 560.038 218.9C560.038 219.164 559.935 219.417 559.751 219.606C559.567 219.795 559.317 219.905 559.054 219.913C558.79 219.921 558.534 219.826 558.339 219.649C558.144 219.471 558.025 219.225 558.009 218.962C558.009 218.962 557.263 194.56 559.779 178.656C559.937 177.659 560.108 176.691 560.294 175.766C559.262 175.635 558.259 175.337 557.322 174.885C556.524 174.538 555.726 174.215 554.022 174.215C551.986 174.215 551.054 174.936 550.1 175.522C549.77 175.73 549.427 175.915 549.072 176.077C549.244 176.934 549.404 177.825 549.552 178.744C552.128 194.648 551.481 219.05 551.481 219.05C551.465 219.312 551.347 219.558 551.153 219.735C550.959 219.913 550.704 220.008 550.44 220.001C550.177 219.994 549.927 219.885 549.743 219.698C549.558 219.51 549.454 219.259 549.452 218.996C549.452 218.996 550.1 194.821 547.548 179.069C547.408 178.2 547.258 177.359 547.097 176.547H547.075C542.858 176.746 540.196 175.708 538.659 174.275C536.123 171.912 536.414 168.396 538.101 166.301C539.37 164.72 541.391 163.921 543.601 164.861C544.812 165.376 545.91 166.62 546.808 168.492C547.516 169.971 548.129 171.86 548.649 174.041H548.643ZM546.678 174.536C546.195 172.508 545.632 170.748 544.972 169.369C544.337 168.047 543.654 167.09 542.798 166.727C541.543 166.191 540.404 166.671 539.677 167.571C538.574 168.944 538.376 171.246 540.036 172.793C541.262 173.934 543.389 174.643 546.678 174.536ZM562.812 173.85C568.863 173.738 570.647 170.7 569.947 168.33C569.531 166.935 568.177 165.938 566.522 166.636C565.668 166.998 564.989 167.953 564.359 169.275C563.694 170.749 563.176 172.285 562.812 173.86V173.85Z" fill="white"/>
<path fill-rule="evenodd" clip-rule="evenodd" d="M571.201 217.758H537.904V230.486C537.904 230.872 538.058 231.242 538.33 231.515C538.603 231.787 538.973 231.941 539.359 231.941H569.746C570.132 231.941 570.502 231.787 570.775 231.515C571.048 231.242 571.201 230.872 571.201 230.486V217.758Z" fill="#6E91D1"/>
<path fill-rule="evenodd" clip-rule="evenodd" d="M537.909 221.438C537.74 221.445 537.571 221.417 537.413 221.357C537.255 221.297 537.111 221.206 536.989 221.089C536.867 220.972 536.77 220.832 536.704 220.676C536.638 220.521 536.604 220.354 536.604 220.185C536.604 220.016 536.638 219.849 536.704 219.694C536.77 219.538 536.867 219.398 536.989 219.281C537.111 219.164 537.255 219.073 537.413 219.013C537.571 218.953 537.74 218.925 537.909 218.932H571.206C571.53 218.945 571.836 219.083 572.061 219.316C572.285 219.55 572.411 219.861 572.411 220.185C572.411 220.509 572.285 220.82 572.061 221.054C571.836 221.287 571.53 221.425 571.206 221.438H537.909ZM537.909 225.66C537.74 225.667 537.571 225.639 537.413 225.579C537.255 225.52 537.111 225.428 536.989 225.311C536.867 225.194 536.77 225.054 536.704 224.899C536.638 224.743 536.604 224.576 536.604 224.407C536.604 224.238 536.638 224.071 536.704 223.916C536.77 223.76 536.867 223.62 536.989 223.503C537.111 223.386 537.255 223.295 537.413 223.235C537.571 223.175 537.74 223.148 537.909 223.154H571.206C571.53 223.167 571.836 223.305 572.061 223.538C572.285 223.772 572.411 224.083 572.411 224.407C572.411 224.731 572.285 225.042 572.061 225.276C571.836 225.51 571.53 225.647 571.206 225.66H537.909ZM537.909 230.165C537.74 230.172 537.571 230.145 537.413 230.085C537.255 230.025 537.111 229.934 536.989 229.817C536.867 229.7 536.77 229.559 536.704 229.404C536.638 229.248 536.604 229.081 536.604 228.912C536.604 228.744 536.638 228.576 536.704 228.421C536.77 228.266 536.867 228.125 536.989 228.008C537.111 227.891 537.255 227.8 537.413 227.74C537.571 227.68 537.74 227.653 537.909 227.66H571.206C571.53 227.672 571.836 227.81 572.061 228.044C572.285 228.277 572.411 228.589 572.411 228.912C572.411 229.236 572.285 229.548 572.061 229.781C571.836 230.015 571.53 230.152 571.206 230.165H537.909Z" fill="#47669E"/>
<path fill-rule="evenodd" clip-rule="evenodd" d="M565.581 231.94H543.32C543.32 233.57 543.969 235.134 545.123 236.287C546.277 237.441 547.842 238.089 549.475 238.089H559.427C561.059 238.089 562.625 237.441 563.779 236.287C564.933 235.134 565.581 233.57 565.581 231.94Z" fill="#496AA6"/>
<path fill-rule="evenodd" clip-rule="evenodd" d="M565.496 232.962H543.406C543.348 232.624 543.32 232.282 543.32 231.94H565.581C565.581 232.282 565.552 232.624 565.496 232.962Z" fill="#2A477D"/>
<path fill-rule="evenodd" clip-rule="evenodd" d="M528.285 318.93V371.711H475.449V318.93H528.285ZM286.295 18.1584L306.623 56.1359H265.966L286.295 18.1584ZM407.602 390.82L441.508 447.764H373.707L407.602 390.82ZM89.5242 169.723V212.28H46.9219V169.723H89.5242ZM109.75 361.676C112.999 361.676 116.175 362.638 118.877 364.441C121.579 366.244 123.685 368.807 124.929 371.805C126.172 374.804 126.498 378.104 125.864 381.287C125.23 384.471 123.665 387.395 121.368 389.69C119.07 391.985 116.143 393.548 112.956 394.181C109.769 394.814 106.466 394.489 103.464 393.247C100.462 392.005 97.8965 389.901 96.0915 387.202C94.2866 384.503 93.3234 381.33 93.3238 378.084C93.3265 373.733 95.0579 369.561 98.1377 366.485C101.218 363.408 105.394 361.679 109.75 361.676ZM475.126 114.8C477.943 114.799 480.696 115.633 483.038 117.196C485.38 118.759 487.206 120.98 488.284 123.58C489.362 126.179 489.644 129.039 489.095 131.799C488.546 134.559 487.19 137.093 485.198 139.083C483.207 141.073 480.669 142.428 477.907 142.977C475.144 143.526 472.281 143.244 469.679 142.168C467.076 141.091 464.852 139.268 463.287 136.928C461.723 134.589 460.887 131.839 460.887 129.025C460.889 125.253 462.389 121.636 465.059 118.969C467.729 116.301 471.35 114.802 475.126 114.8ZM146.696 136.07C148.117 136.07 149.506 136.491 150.688 137.279C151.869 138.068 152.79 139.189 153.334 140.5C153.877 141.811 154.02 143.254 153.743 144.646C153.465 146.038 152.781 147.317 151.776 148.321C150.772 149.324 149.492 150.008 148.098 150.285C146.704 150.562 145.26 150.42 143.947 149.877C142.634 149.333 141.512 148.414 140.723 147.233C139.934 146.053 139.512 144.666 139.512 143.246C139.512 141.343 140.269 139.518 141.616 138.172C142.964 136.826 144.791 136.07 146.696 136.07ZM543.97 277.516C545.391 277.516 546.78 277.937 547.962 278.726C549.143 279.514 550.064 280.635 550.608 281.946C551.152 283.258 551.294 284.7 551.017 286.093C550.739 287.485 550.055 288.763 549.051 289.767C548.046 290.771 546.766 291.454 545.372 291.731C543.978 292.008 542.534 291.866 541.221 291.323C539.909 290.78 538.786 289.86 537.997 288.68C537.208 287.499 536.786 286.112 536.786 284.693C536.786 282.789 537.543 280.964 538.891 279.618C540.238 278.272 542.065 277.516 543.97 277.516ZM346.74 391.542C348.161 391.542 349.55 391.963 350.732 392.752C351.913 393.54 352.834 394.661 353.378 395.972C353.921 397.284 354.064 398.727 353.786 400.119C353.509 401.511 352.825 402.79 351.82 403.793C350.816 404.797 349.535 405.48 348.142 405.757C346.748 406.034 345.304 405.892 343.991 405.349C342.678 404.806 341.556 403.886 340.767 402.706C339.977 401.525 339.556 400.138 339.556 398.719C339.555 397.776 339.74 396.841 340.101 395.97C340.461 395.098 340.99 394.306 341.658 393.639C342.325 392.972 343.117 392.442 343.989 392.081C344.861 391.72 345.796 391.534 346.74 391.534V391.542ZM216.762 78.9451C217.473 78.9451 218.167 79.1556 218.758 79.5499C219.349 79.9442 219.809 80.5046 220.081 81.1602C220.353 81.8159 220.424 82.5374 220.285 83.2334C220.147 83.9295 219.805 84.5688 219.302 85.0706C218.8 85.5725 218.16 85.9142 217.463 86.0527C216.766 86.1911 216.044 86.12 215.388 85.8485C214.731 85.5769 214.17 85.117 213.776 84.5269C213.381 83.9368 213.17 83.2431 213.17 82.5334C213.17 81.5817 213.549 80.669 214.222 79.9961C214.896 79.3232 215.81 78.9451 216.762 78.9451ZM487.034 243.207C487.586 243.207 488.127 243.37 488.586 243.677C489.045 243.984 489.404 244.419 489.615 244.929C489.826 245.439 489.882 246.001 489.774 246.542C489.666 247.083 489.4 247.581 489.009 247.971C488.619 248.361 488.121 248.627 487.579 248.735C487.037 248.842 486.475 248.787 485.965 248.576C485.454 248.365 485.018 248.007 484.711 247.548C484.404 247.089 484.24 246.549 484.24 245.997C484.239 245.63 484.311 245.267 484.451 244.928C484.591 244.588 484.797 244.28 485.056 244.02C485.316 243.76 485.624 243.554 485.963 243.414C486.303 243.273 486.666 243.201 487.034 243.201V243.207ZM501.865 191.008C502.418 191.008 502.958 191.171 503.417 191.478C503.877 191.785 504.235 192.221 504.446 192.731C504.658 193.24 504.713 193.802 504.605 194.343C504.498 194.884 504.231 195.382 503.841 195.772C503.45 196.162 502.952 196.428 502.41 196.536C501.868 196.643 501.306 196.588 500.796 196.377C500.285 196.166 499.849 195.808 499.542 195.349C499.235 194.89 499.071 194.351 499.071 193.799C499.071 193.432 499.142 193.068 499.282 192.729C499.422 192.389 499.628 192.081 499.887 191.821C500.147 191.561 500.455 191.355 500.795 191.215C501.134 191.074 501.498 191.002 501.865 191.002V191.008ZM52.1943 315.699C53.2376 315.698 54.2576 316.007 55.1253 316.586C55.993 317.165 56.6693 317.988 57.0688 318.95C57.4682 319.913 57.5729 320.973 57.3694 321.995C57.166 323.017 56.6636 323.956 55.9258 324.693C55.188 325.43 54.2481 325.932 53.2248 326.135C52.2015 326.338 51.1408 326.234 50.1769 325.835C49.2131 325.436 48.3894 324.76 47.81 323.893C47.2306 323.027 46.9215 322.008 46.9219 320.966C46.9213 319.568 47.4765 318.228 48.4652 317.239C49.4539 316.25 50.7952 315.694 52.1943 315.693V315.699ZM151.64 205.277C152.333 205.277 153.012 205.482 153.589 205.868C154.166 206.253 154.615 206.8 154.881 207.44C155.146 208.081 155.216 208.785 155.08 209.465C154.945 210.145 154.611 210.769 154.12 211.259C153.63 211.75 153.005 212.083 152.324 212.219C151.643 212.354 150.938 212.284 150.297 212.019C149.656 211.754 149.108 211.305 148.722 210.728C148.337 210.152 148.131 209.475 148.131 208.781C148.13 208.321 148.221 207.864 148.397 207.438C148.573 207.013 148.831 206.626 149.157 206.3C149.483 205.973 149.87 205.715 150.296 205.538C150.722 205.362 151.178 205.271 151.64 205.271V205.277ZM405.531 96.4597C406.509 96.4597 407.464 96.7493 408.277 97.2919C409.09 97.8344 409.724 98.6056 410.098 99.5079C410.472 100.41 410.57 101.403 410.379 102.361C410.188 103.319 409.718 104.199 409.026 104.889C408.335 105.58 407.454 106.05 406.495 106.24C405.536 106.431 404.543 106.333 403.639 105.959C402.736 105.586 401.964 104.953 401.421 104.141C400.878 103.329 400.588 102.374 400.588 101.398C400.588 100.088 401.109 98.8325 402.036 97.9066C402.963 96.9807 404.22 96.4602 405.531 96.4597Z" fill="#5884C5"/>
<path fill-rule="evenodd" clip-rule="evenodd" d="M264.906 463.516L255.977 474.4L208.236 443.881L217.284 432.833L264.906 463.516Z" fill="#F49A95"/>
<path fill-rule="evenodd" clip-rule="evenodd" d="M221.492 445.84C234.346 454.996 242.151 460.917 259.975 470.073C259.975 470.073 248.547 492.284 236.148 498.958L176.541 468.041L182.173 452.478C182.173 452.478 200.494 456.136 221.492 445.84Z" fill="#739CE3"/>
<path fill-rule="evenodd" clip-rule="evenodd" d="M256.036 468.041C257.297 468.706 258.61 469.386 259.974 470.083C259.974 470.083 248.547 492.294 236.148 498.968L176.541 468.041L178.946 461.395C180.408 462.326 182.256 463.492 184.386 464.822C198.403 473.573 223.456 487.84 231.566 488.608C242.929 489.686 256.036 468.041 256.036 468.041Z" fill="#5780C7"/>
<path d="M231.616 478.492C234.826 475.287 234.826 470.089 231.616 466.883C228.407 463.677 223.204 463.677 219.994 466.883C216.785 470.089 216.785 475.286 219.995 478.492C223.204 481.698 228.407 481.698 231.616 478.492Z" fill="#2E5599"/>
<path fill-rule="evenodd" clip-rule="evenodd" d="M182.175 452.468C182.175 452.468 202.131 457.185 221.488 445.84C226.034 442.489 217.263 434.665 209.085 438.508C209.085 438.508 193.24 445.8 178.752 442.168L182.164 452.468H182.175Z" fill="#2E5599"/>
<path fill-rule="evenodd" clip-rule="evenodd" d="M192.023 453.688L183.979 442.96C184.741 443.037 185.501 443.089 186.253 443.119L194.202 453.704C193.448 453.711 192.721 453.706 192.023 453.688ZM201.135 453.2L190.973 443.123C191.771 443.077 192.554 443.01 193.32 442.924L203.34 452.861C202.594 452.986 201.859 453.097 201.135 453.194V453.2ZM209.608 451.362L197.882 442.192C198.663 442.029 199.413 441.855 200.131 441.672L211.203 450.331C211.341 450.44 211.444 450.587 211.5 450.754C210.865 450.972 210.235 451.175 209.608 451.364V451.362ZM217.307 448.354L204.605 440.332C205.403 440.055 206.116 439.786 206.72 439.547L219.165 447.409C218.544 447.74 217.924 448.056 217.307 448.358V448.354Z" fill="#739CE3"/>
<path fill-rule="evenodd" clip-rule="evenodd" d="M180.267 469.903L236.144 498.958L231.584 502L147.918 458.054L148.856 453.573H148.872C151.352 441.462 165.332 435.263 176.274 440.32C188.064 445.77 186.324 464.399 180.265 469.903H180.267Z" fill="#AFCAF8"/>
<path fill-rule="evenodd" clip-rule="evenodd" d="M170.193 453.888C178.501 451.677 175.938 439.298 166.958 440.663C153.921 442.643 157.629 455.823 170.193 453.888Z" fill="#C5D9FA"/>
<path fill-rule="evenodd" clip-rule="evenodd" d="M381.913 92.092C381.913 92.092 387.732 115.152 390.33 120.034C391.031 121.35 397.495 121.378 397.495 121.378V134.535C378.88 142.979 361.869 148.29 354.072 135.556V123.742C354.072 123.742 359.937 122.032 360.161 121.051C360.744 118.507 357.567 108.476 357.567 108.476C368.764 106.531 375.852 103.359 381.913 92.092Z" fill="#FFC0BD"/>
<path fill-rule="evenodd" clip-rule="evenodd" d="M388.636 115.772C389.273 117.634 389.857 119.139 390.332 120.034C391.033 121.35 397.499 121.378 397.499 121.378V134.535C378.884 142.979 361.873 148.29 354.076 135.556V123.742C354.076 123.742 359.939 122.032 360.165 121.051C360.245 120.582 360.26 120.105 360.209 119.632C360.209 119.632 361.993 132.173 368.381 132.22C376.563 132.28 388.636 115.77 388.636 115.77V115.772Z" fill="#FF9C97"/>
<path fill-rule="evenodd" clip-rule="evenodd" d="M359.933 117.624C359.149 113.988 357.562 108.478 357.562 108.478C368.764 106.531 375.86 103.359 381.909 92.092C381.909 92.092 382.996 96.4039 384.443 101.695C376.666 116.069 359.933 117.624 359.933 117.624Z" fill="#C3573C"/>
<path fill-rule="evenodd" clip-rule="evenodd" d="M300.62 426.488C300.62 426.488 307.237 440.569 306.471 443.883C300.524 448.591 272.346 459.83 272.346 459.83L300.62 426.488Z" fill="#739CE3"/>
<path fill-rule="evenodd" clip-rule="evenodd" d="M278.782 457.197C275.573 458.526 272.338 459.836 272.338 459.836L300.618 426.486C300.618 426.486 301.753 428.904 303.028 431.97C297.493 437.314 287.518 448.424 278.792 457.197H278.782Z" fill="#5780C7"/>
<path fill-rule="evenodd" clip-rule="evenodd" d="M272.338 459.836L278.301 452.929L305.573 439.082C306.269 441.138 306.68 442.924 306.459 443.881C300.512 448.591 272.338 459.836 272.338 459.836Z" fill="#AFCAF8"/>
<path fill-rule="evenodd" clip-rule="evenodd" d="M272.338 459.836L278.301 452.929L287.341 448.344C284.485 451.358 281.57 454.4 278.782 457.201C275.573 458.531 272.338 459.84 272.338 459.84V459.836Z" fill="#6892D9"/>
<path fill-rule="evenodd" clip-rule="evenodd" d="M357.564 121.587C357.564 121.587 357.674 139.158 365.605 139.544C377.289 140.113 391.492 120.23 391.492 120.23C391.492 120.23 426.016 126.463 442.561 135.256C441.276 169.696 427.993 222.542 427.993 222.542C416.401 254.773 403.922 292.29 394.268 291.857C394.268 291.857 362.685 246.645 263.585 248.557C259.793 242.963 276.882 215.238 286.714 200.574C286.714 200.574 265.295 227.739 241.442 222.542C215.048 216.789 172.434 158.574 172.434 158.574C172.434 158.574 188.941 137.874 210.416 128.229L253.653 167.541C253.653 167.541 295.996 134.001 311.29 128.229C330.61 120.941 357.556 121.587 357.556 121.587H357.564Z" fill="url(#paint2_linear_325_7278)"/>
<path fill-rule="evenodd" clip-rule="evenodd" d="M311.318 167.142C310.789 161.018 319.444 143.159 327.245 141.729C343.126 138.817 343.124 150.688 355.231 153.317C372.451 157.057 392.45 142.634 402.767 150.148C416.137 159.882 397.977 177.592 401.11 190.856C404.018 203.138 407.526 218.384 397.762 228.732C393.807 232.918 389.328 235.326 383.429 235.229C371.334 235.021 313.852 196.5 311.318 167.142Z" fill="#FFCD81"/>
<path fill-rule="evenodd" clip-rule="evenodd" d="M264.789 205.502C236.435 179.252 210.558 155.309 192.869 138.944C198.076 134.957 204.029 131.1 210.42 128.23L253.655 167.541C253.655 167.541 260.429 162.176 269.533 155.381L297.511 179.115C300.536 175.814 302.284 173.633 302.284 173.633C302.284 173.633 301.197 176.547 299.57 180.861L400.365 266.369L415.613 223.802L412.855 187.99L429.764 215.149C428.68 219.801 427.99 222.552 427.99 222.552C421.604 240.304 414.951 259.661 408.648 273.398C403.51 284.599 398.605 292.062 394.28 291.867C394.28 291.867 393.232 290.368 390.919 287.926C383.083 279.651 360.72 260.558 315.38 252.361C304.771 242.531 294.053 232.603 283.498 222.829C280.393 232.009 278.203 241.46 279.56 248.671C274.445 248.499 269.123 248.465 263.596 248.567C260.949 244.66 268.483 229.964 276.615 216.458C280.131 210.621 283.757 205.008 286.723 200.584C286.723 200.584 281.466 207.252 273.258 213.342C264.903 219.552 253.486 225.168 241.45 222.546C228.413 219.704 211.418 204.063 197.557 188.958C197.557 188.958 232.298 212.406 250.213 210.235C255.076 209.637 260.005 207.914 264.795 205.506L264.789 205.502Z" fill="#F1870E"/>
<path fill-rule="evenodd" clip-rule="evenodd" d="M300.47 180.054C300.1 180.073 299.737 179.945 299.461 179.698C299.185 179.45 299.018 179.103 298.999 178.733C298.979 178.363 299.107 178 299.355 177.724C299.603 177.449 299.95 177.283 300.321 177.263C330.973 175.634 375.928 181.158 405.014 192.487C417.756 197.449 427.467 203.578 431.821 210.617C432.005 210.932 432.058 211.305 431.969 211.658C431.881 212.011 431.658 212.316 431.348 212.507C431.038 212.698 430.665 212.761 430.31 212.681C429.954 212.602 429.644 212.387 429.445 212.083C425.328 205.428 416.048 199.779 403.999 195.086C375.238 183.885 330.78 178.439 300.47 180.05V180.054ZM294.484 188.492C294.3 188.489 294.119 188.451 293.95 188.378C293.782 188.306 293.629 188.201 293.501 188.07C293.373 187.939 293.273 187.783 293.205 187.613C293.137 187.443 293.103 187.261 293.106 187.078C293.108 186.894 293.147 186.713 293.219 186.545C293.292 186.377 293.397 186.224 293.528 186.096C293.66 185.969 293.815 185.868 293.985 185.8C294.156 185.732 294.338 185.699 294.521 185.701C351.73 186.483 405.918 198.186 429.289 220.134C429.429 220.258 429.543 220.408 429.624 220.577C429.705 220.745 429.751 220.928 429.76 221.115C429.768 221.302 429.74 221.488 429.675 221.663C429.61 221.839 429.511 221.999 429.382 222.135C429.254 222.272 429.1 222.381 428.929 222.456C428.758 222.532 428.574 222.572 428.387 222.575C428.2 222.578 428.014 222.544 427.84 222.474C427.667 222.404 427.51 222.3 427.377 222.168C404.342 200.536 350.867 189.261 294.484 188.492Z" fill="#FFFEFD"/>
<path fill-rule="evenodd" clip-rule="evenodd" d="M299.906 179.968C299.606 179.855 299.354 179.642 299.192 179.366C299.03 179.089 298.969 178.766 299.018 178.449C299.067 178.133 299.223 177.843 299.461 177.628C299.698 177.413 300.003 177.286 300.323 177.269L300.933 177.237L299.906 179.968ZM296.667 188.528L294.484 188.494C294.113 188.489 293.76 188.337 293.501 188.072C293.243 187.807 293.101 187.45 293.106 187.08C293.111 186.709 293.263 186.357 293.528 186.098C293.794 185.84 294.151 185.698 294.521 185.703C295.586 185.716 296.65 185.735 297.714 185.759L296.663 188.528H296.667ZM413.737 199.424L413.49 196.191C415.833 197.334 418.115 198.598 420.327 199.978L424.184 206.176C421.354 203.768 417.822 201.519 413.737 199.424ZM414.525 209.663C420.003 212.693 424.773 216.006 428.71 219.598C428.311 221.296 428.048 222.313 428 222.506C427.767 222.45 427.552 222.334 427.377 222.17C423.857 218.862 419.626 215.79 414.781 212.978L414.525 209.663Z" fill="#FEC979"/>
<path fill-rule="evenodd" clip-rule="evenodd" d="M280.462 207.254L302.178 173.035C302.335 172.791 302.582 172.619 302.865 172.556C303.148 172.494 303.445 172.546 303.69 172.701C303.935 172.856 304.108 173.102 304.172 173.384C304.237 173.667 304.186 173.963 304.032 174.209L279.199 213.336C279.094 213.503 278.945 213.638 278.77 213.727C278.594 213.816 278.398 213.856 278.201 213.843C281.195 208.957 284.202 204.334 286.724 200.572C284.785 202.932 282.694 205.164 280.466 207.254H280.462Z" fill="#794105"/>
<path fill-rule="evenodd" clip-rule="evenodd" d="M219.143 136.156C203.996 141.596 179.031 167.142 179.031 167.142L172.445 158.57C172.445 158.57 188.704 138.183 209.939 128.447L210.428 128.226L219.147 136.152L219.143 136.156Z" fill="white"/>
<path fill-rule="evenodd" clip-rule="evenodd" d="M192.869 138.942C197.944 135.051 203.725 131.297 209.932 128.451L210.42 128.23L219.139 136.156C213.951 138.017 207.629 142.23 201.542 146.966L192.869 138.942Z" fill="#FAD8AF"/>
<path fill-rule="evenodd" clip-rule="evenodd" d="M394.078 290.129C372.637 337.003 308.251 420.501 264.852 468.145C264.852 468.145 241.638 454.191 211.781 433.389L238.032 391.951C238.032 391.951 224.926 350.06 226.549 322.524C227.459 307.077 264.852 248.535 264.852 248.535C264.852 248.535 345.818 236.682 394.078 290.131V290.129ZM280.861 334.28L290.506 321.731L280.861 330.652V334.28Z" fill="#335B9F"/>
<path fill-rule="evenodd" clip-rule="evenodd" d="M234.591 448.864C227.722 444.323 220.003 439.114 211.781 433.387L226.281 410.496L300.849 307.898C300.849 307.898 323.799 319.566 319.862 336.748C317.503 347.038 251.077 428.712 234.591 448.864ZM239.317 291.857C239.317 291.857 254.902 302.408 256.8 313.034C258.698 323.659 256.529 343.932 251.931 354.336C249.239 360.432 238.626 368.739 232.907 372.903C229.434 358.317 225.631 338.117 226.549 322.522C226.894 316.66 232.498 304.581 239.321 291.857H239.317Z" fill="#406FBF"/>
<path fill-rule="evenodd" clip-rule="evenodd" d="M256.915 463.257L256.795 462.858C256.795 462.858 377.849 312.87 369.699 295.619C350.816 255.652 258.379 258.927 258.379 258.927C262.239 252.626 264.851 248.535 264.851 248.535C264.851 248.535 345.817 236.682 394.077 290.131C372.638 337.003 308.252 420.503 264.851 468.147C264.851 468.141 261.966 466.407 256.915 463.257ZM300.842 307.906L274.879 342.646V330.094L294.56 309.162L304.191 291.857L300.842 307.896V307.906ZM290.501 321.745L280.862 330.65V334.28L290.507 321.733L290.501 321.745Z" fill="#264682"/>
<path fill-rule="evenodd" clip-rule="evenodd" d="M274.193 457.697L219.365 421.406L220.762 419.213L275.763 455.62C275.817 455.655 275.869 455.695 275.917 455.738L274.193 457.697Z" fill="#E6F2FF"/>
<path fill-rule="evenodd" clip-rule="evenodd" d="M306.556 280.171C306.596 280.046 306.661 279.929 306.747 279.829C306.833 279.728 306.937 279.646 307.055 279.586C307.173 279.527 307.302 279.491 307.434 279.482C307.565 279.472 307.698 279.489 307.823 279.531C307.948 279.573 308.064 279.639 308.163 279.726C308.263 279.813 308.344 279.919 308.402 280.038C308.46 280.156 308.494 280.285 308.502 280.417C308.51 280.549 308.491 280.681 308.448 280.805C304.522 292.485 303.397 300.626 301.826 308.102C301.797 308.246 301.736 308.382 301.649 308.5L236.877 393.777C237.19 393.126 237.579 392.514 238.034 391.953L237.536 390.306L299.918 307.48C301.479 300 302.636 291.839 306.556 280.169V280.171Z" fill="#0C234D"/>
<path fill-rule="evenodd" clip-rule="evenodd" d="M195.536 92.5944L175.846 114.67L423.507 345.842C425.733 347.92 428.352 349.532 431.211 350.583C434.069 351.635 437.11 352.105 440.153 351.966C443.196 351.827 446.18 351.081 448.931 349.773C451.682 348.465 454.142 346.621 456.169 344.349C458.195 342.077 459.746 339.423 460.731 336.543C461.715 333.664 462.114 330.617 461.902 327.581C461.691 324.546 460.874 321.583 459.5 318.867C458.126 316.152 456.222 313.738 453.9 311.768L195.536 92.5944Z" fill="#AAC4F1"/>
<path fill-rule="evenodd" clip-rule="evenodd" d="M206.411 101.82C206.411 101.82 197.744 112.687 204.953 120.013C209.896 125.038 345.617 247.626 378.571 273.063C390.329 282.137 401.458 267.282 401.458 267.282L206.413 101.824L206.411 101.82Z" fill="#CFDFFC"/>
<path fill-rule="evenodd" clip-rule="evenodd" d="M180.717 109.218C180.717 109.218 410.224 327.544 434.818 333.034C444.489 335.193 455.941 332.037 460.903 322.323C462.09 326.092 462.278 330.104 461.449 333.967C460.619 337.831 458.8 341.413 456.169 344.363C454.143 346.635 451.682 348.48 448.931 349.788C446.181 351.097 443.196 351.842 440.153 351.982C437.11 352.121 434.069 351.651 431.211 350.599C428.352 349.548 425.733 347.936 423.507 345.858L175.852 114.68L180.723 109.218H180.717ZM441.705 301.432C438.346 306.694 433.944 312.886 430.39 315.448C422.24 321.322 401.152 307.942 401.988 298.551C402.325 294.754 405.77 291.215 407.376 289.752C407.889 289.343 408.202 289.044 408.202 289.044C408.202 289.044 407.877 289.299 407.376 289.752C405.616 291.161 401.499 293.876 399.661 290.226C397.562 286.058 406.173 276.543 408.943 273.643L441.705 301.432Z" fill="#82A0D4"/>
<path fill-rule="evenodd" clip-rule="evenodd" d="M131.344 55.2608L152.918 106.971L175.85 114.67L195.541 92.5944L185.245 70.7241L131.344 55.2608Z" fill="#4A75BF"/>
<path fill-rule="evenodd" clip-rule="evenodd" d="M185.241 70.7241L193.26 87.7602C193.26 87.7602 182.384 73.9137 181.36 73.5648C165.66 68.2223 132.314 57.5972 132.314 57.5972L131.338 55.2608L185.241 70.7241Z" fill="#7BA0DF"/>
<path fill-rule="evenodd" clip-rule="evenodd" d="M135.027 64.0939C135.027 64.0939 150.685 93.3499 157.147 99.9642C161.124 104.037 168.28 104.503 173.674 102.681C179.695 100.646 193.263 87.7603 193.263 87.7603L195.538 92.5944L175.848 114.67L152.916 106.971L135.027 64.0939Z" fill="#325695"/>
<path fill-rule="evenodd" clip-rule="evenodd" d="M164.393 86.1555L132.318 57.5972L131.344 55.2608L133.778 55.9585L165.908 84.5568C166.836 84.1461 168.053 84.3574 168.859 85.085C169.121 85.3177 169.335 85.5998 169.488 85.915C169.641 86.2302 169.73 86.5724 169.751 86.922C169.771 87.2717 169.723 87.622 169.608 87.9529C169.493 88.2838 169.314 88.5889 169.081 88.8507C168.848 89.1125 168.565 89.3258 168.25 89.4786C167.934 89.6314 167.592 89.7207 167.242 89.7412C166.892 89.7618 166.541 89.7132 166.21 89.5984C165.879 89.4836 165.573 89.3047 165.311 89.0719C164.513 88.3543 164.086 87.1323 164.389 86.1635L164.393 86.1555Z" fill="#1F3D70"/>
<path fill-rule="evenodd" clip-rule="evenodd" d="M174.543 115.709L196.247 91.799L202.015 96.6033L180.219 120.708L174.537 115.709H174.543Z" fill="#0E315F"/>
<path fill-rule="evenodd" clip-rule="evenodd" d="M409.79 272.788C409.79 272.788 398.305 284.095 400.797 289.044C403.168 293.757 409.79 287.288 409.79 287.288C409.79 287.288 404.034 293.043 403.591 298.019C402.755 307.41 421.506 317.168 429.658 311.293C436.375 306.451 444.673 291.215 444.673 291.215L409.79 272.788Z" fill="#FFC0BD"/>
<path fill-rule="evenodd" clip-rule="evenodd" d="M426.72 312.661C426.72 312.661 437.371 299.38 436.475 296.99C434.1 290.647 407.156 277.241 406.18 276.757L406.349 276.557L410.101 272.957L444.673 291.221C444.673 291.221 436.375 306.457 429.658 311.299C428.77 311.928 427.774 312.391 426.72 312.665V312.661Z" fill="#F48E85"/>
<path fill-rule="evenodd" clip-rule="evenodd" d="M405.984 304.671L416.823 289.521C416.946 289.349 417.132 289.232 417.341 289.198C417.55 289.163 417.764 289.212 417.936 289.335C418.108 289.458 418.225 289.644 418.26 289.853C418.294 290.062 418.245 290.276 418.122 290.448L407.068 305.901C406.684 305.501 406.322 305.091 405.984 304.671ZM412.769 310.129L424.174 292.904C424.291 292.727 424.474 292.605 424.681 292.562C424.784 292.542 424.89 292.541 424.993 292.561C425.096 292.581 425.193 292.621 425.281 292.679C425.368 292.737 425.444 292.812 425.502 292.898C425.561 292.985 425.601 293.083 425.622 293.186C425.643 293.288 425.644 293.394 425.624 293.497C425.604 293.6 425.563 293.697 425.505 293.785L414.206 310.849C413.719 310.623 413.24 310.382 412.769 310.129ZM420.111 312.764L430.918 297.676C431.041 297.504 431.227 297.388 431.436 297.353C431.645 297.318 431.859 297.368 432.031 297.491C432.203 297.613 432.32 297.8 432.354 298.008C432.389 298.217 432.34 298.431 432.217 298.603L421.899 313.01C421.309 312.956 420.713 312.875 420.111 312.764Z" fill="#CD5A4D"/>
<path fill-rule="evenodd" clip-rule="evenodd" d="M442.556 135.254C459.319 145.609 478 177.338 480.215 210.719C481.942 236.76 450.547 294.279 450.547 294.279C433.42 287.539 419.162 279.454 405.781 270.956L427.99 222.542L412.856 187.98L442.556 135.256V135.254Z" fill="url(#paint3_linear_325_7278)"/>
<path fill-rule="evenodd" clip-rule="evenodd" d="M270.424 154.705C284.008 144.58 302.314 131.618 311.294 128.229C330.615 120.939 357.56 121.587 357.56 121.587C357.591 123.112 357.698 124.634 357.881 126.148C351.154 126.419 321.052 129.639 311.294 132.597C300.144 135.986 270.424 154.705 270.424 154.705ZM388.985 123.451C390.562 121.527 391.487 120.23 391.487 120.23C391.487 120.23 426.012 126.463 442.557 135.256C459.32 145.608 478.001 177.338 480.216 210.721C481.078 223.722 473.683 244.574 466.059 262.194C466.059 262.194 477.251 227.64 474.489 210.721C471.727 193.802 456.014 155.793 442.08 143.244C428.147 130.695 388.985 123.451 388.985 123.451Z" fill="#FFE4BB"/>
<path fill-rule="evenodd" clip-rule="evenodd" d="M353.221 121.707C353.186 120.808 353.509 119.932 354.121 119.272C354.732 118.611 355.581 118.221 356.481 118.186C357.38 118.15 358.257 118.474 358.918 119.084C359.58 119.695 359.971 120.543 360.006 121.442C360.006 121.442 360.206 126.451 361.976 130.925C362.908 133.271 364.191 135.607 366.55 136.287C368.11 136.738 369.778 136.377 371.471 135.689C373.64 134.794 375.807 133.313 377.857 131.624C384.49 126.168 389.87 118.507 389.87 118.507C390.123 118.136 390.448 117.819 390.825 117.574C391.202 117.33 391.624 117.162 392.066 117.081C392.508 117.001 392.962 117.009 393.401 117.105C393.84 117.202 394.256 117.384 394.624 117.642C394.992 117.9 395.305 118.229 395.544 118.609C395.784 118.989 395.946 119.413 396.02 119.856C396.094 120.299 396.08 120.752 395.977 121.189C395.874 121.626 395.686 122.039 395.422 122.403C395.422 122.403 387.256 133.965 378.26 139.718C373.704 142.642 368.898 144.034 364.654 142.81C360.305 141.556 357.372 137.758 355.655 133.441C353.46 127.911 353.213 121.723 353.213 121.723L353.221 121.707Z" fill="white"/>
<path fill-rule="evenodd" clip-rule="evenodd" d="M456.073 283.576C453.297 289.078 450.539 294.279 450.539 294.279C433.413 287.541 419.154 279.454 405.773 270.956L410.363 260.938C410.363 260.938 436.384 276.342 456.063 283.576H456.073Z" fill="white"/>
<path fill-rule="evenodd" clip-rule="evenodd" d="M406.599 271.328C405.939 271.278 405.839 271.105 404.967 270.581L427.006 222.538L411.339 187.653C411.251 187.436 411.252 187.194 411.34 186.978C411.428 186.762 411.597 186.589 411.811 186.495C412.025 186.402 412.267 186.395 412.486 186.477C412.705 186.559 412.883 186.722 412.983 186.933L428.812 222.189C428.865 222.305 428.892 222.43 428.892 222.556C428.892 222.683 428.865 222.808 428.812 222.923L406.605 271.336L406.599 271.328Z" fill="#794105"/>
<path fill-rule="evenodd" clip-rule="evenodd" d="M197.936 135.286C197.936 135.286 198.427 122.219 193.891 121.645C189.56 121.099 190.145 128.024 190.145 128.024C185.922 125.65 184.84 114.339 182.005 110.33C178.443 105.299 168.169 114.578 167.237 121.655C164.926 139.052 178.187 152.165 178.187 152.165L197.944 135.296L197.936 135.286Z" fill="#FFC0BD"/>
<path fill-rule="evenodd" clip-rule="evenodd" d="M167.227 129.88C167.227 129.88 173.912 143.934 178.176 144.883C180.21 145.333 192.509 136.654 197.933 132.86C197.973 134.302 197.933 135.286 197.933 135.286L178.176 152.155C178.176 152.155 168.937 143.019 167.227 129.88Z" fill="#F48E85"/>
<path fill-rule="evenodd" clip-rule="evenodd" d="M167.601 119.983C168.158 122.989 170.094 131.13 175.456 136.65C175.511 136.706 175.554 136.773 175.583 136.846C175.612 136.919 175.626 136.997 175.625 137.076C175.624 137.154 175.607 137.232 175.576 137.304C175.544 137.376 175.499 137.441 175.443 137.496C175.386 137.551 175.32 137.594 175.246 137.623C175.173 137.652 175.095 137.666 175.017 137.665C174.938 137.664 174.86 137.647 174.788 137.616C174.716 137.585 174.65 137.54 174.596 137.483C170.301 133.06 168.116 127.022 167.074 123.059C167.114 122.588 167.165 122.114 167.228 121.637C167.307 121.076 167.432 120.523 167.601 119.983ZM177.366 109.218C177.811 112.924 178.579 116.584 179.663 120.156C180.888 124.105 182.203 127.731 184.869 130.478C184.974 130.593 185.029 130.744 185.024 130.9C185.019 131.055 184.954 131.202 184.842 131.31C184.731 131.418 184.581 131.479 184.426 131.478C184.27 131.478 184.121 131.418 184.009 131.309C181.215 128.441 179.8 124.639 178.519 120.509C177.449 116.98 176.679 113.367 176.218 109.708C176.589 109.519 176.972 109.355 177.366 109.218ZM172.327 112.607C172.562 114.921 174.071 127.245 180.121 133.476C180.176 133.533 180.219 133.599 180.248 133.672C180.277 133.746 180.292 133.824 180.29 133.902C180.289 133.981 180.273 134.058 180.241 134.13C180.21 134.203 180.165 134.268 180.109 134.323C180.052 134.377 179.985 134.42 179.912 134.449C179.839 134.478 179.761 134.493 179.682 134.491C179.604 134.49 179.526 134.473 179.454 134.442C179.382 134.411 179.316 134.366 179.261 134.31C173.63 128.511 171.762 117.628 171.257 113.747C171.602 113.348 171.958 112.968 172.327 112.607Z" fill="#D95E50"/>
<path fill-rule="evenodd" clip-rule="evenodd" d="M326.645 62.1602C327.808 69.9127 330.534 79.3837 334.427 83.855L334.966 64.2573L326.647 62.1602H326.645Z" fill="#54240A"/>
<path fill-rule="evenodd" clip-rule="evenodd" d="M335.425 59.8777C334.261 69.1832 332.693 94.241 338.476 101.4C345.447 110.029 362.124 110.819 372.683 103.501C380.466 98.1183 383.321 88.6075 383.321 88.6075C386.383 90.0288 392.701 86.2372 391.677 79.3159C390.567 71.7866 381.837 72.4445 380.128 78.5544V59.8777C380.128 59.8777 351.354 58.4224 335.427 59.8777H335.425Z" fill="#FFC0BD"/>
<path fill-rule="evenodd" clip-rule="evenodd" d="M373.633 102.801C375.76 95.1919 374.988 82.4676 373.633 68.7386C371.364 68.8986 369.122 68.1733 367.379 66.7153C363.617 70.144 358.636 66.7153 358.636 66.7153C358.863 67.5126 357.313 71.36 352.661 71.5893C348.009 71.8185 344.916 68.7386 344.916 68.7386C341.392 73.3993 334.551 70.0862 334.551 70.0862C334.772 65.9856 335.112 62.3675 335.423 59.8777C351.352 58.4224 380.125 59.8777 380.125 59.8777V78.5544C381.831 72.4445 390.562 71.7767 391.673 79.3159C392.693 86.2372 386.377 90.0288 383.315 88.6075C383.317 88.6075 380.691 97.3309 373.633 102.801Z" fill="#FF9C97"/>
<path fill-rule="evenodd" clip-rule="evenodd" d="M338.921 76.6925C338.84 76.778 338.743 76.8467 338.635 76.8946C338.527 76.9425 338.411 76.9687 338.293 76.9718C338.175 76.9748 338.058 76.9546 337.947 76.9124C337.837 76.8701 337.737 76.8066 337.651 76.7254C337.565 76.6443 337.497 76.5471 337.449 76.4394C337.401 76.3317 337.374 76.2157 337.371 76.0978C337.368 75.98 337.389 75.8628 337.431 75.7527C337.473 75.6427 337.537 75.5421 337.618 75.4566C340.384 72.5442 345.279 70.473 351.418 73.0964C351.53 73.1402 351.632 73.2061 351.717 73.2901C351.803 73.3741 351.872 73.4744 351.918 73.5852C351.965 73.696 351.988 73.815 351.988 73.9351C351.987 74.0552 351.962 74.174 351.915 74.2844C351.868 74.3948 351.799 74.4947 351.712 74.5779C351.626 74.6612 351.523 74.7262 351.411 74.7692C351.298 74.8121 351.179 74.8321 351.058 74.8279C350.938 74.8238 350.82 74.7955 350.711 74.7449C345.471 72.5023 341.282 74.2067 338.921 76.6925Z" fill="#B05907"/>
<path fill-rule="evenodd" clip-rule="evenodd" d="M342.27 82.5334C342.199 82.7044 342.063 82.8403 341.892 82.9111C341.721 82.982 341.528 82.982 341.357 82.9111C341.186 82.8403 341.05 82.7044 340.979 82.5334C340.908 82.3623 340.908 82.1701 340.979 81.9991C341.413 81.0167 342.215 80.2427 343.212 79.8422C345.475 78.8734 348.734 79.4933 350.135 82.7845C350.203 82.954 350.202 83.1435 350.132 83.3122C350.062 83.481 349.929 83.6156 349.76 83.6871C349.592 83.7586 349.402 83.7613 349.232 83.6947C349.062 83.6281 348.925 83.4974 348.85 83.3308C347.816 80.9047 345.431 80.4103 343.761 81.126C343.099 81.3828 342.564 81.8879 342.27 82.5334Z" fill="#532407"/>
<path fill-rule="evenodd" clip-rule="evenodd" d="M371.636 75.4346C371.72 75.5174 371.787 75.6158 371.833 75.7244C371.879 75.833 371.903 75.9496 371.904 76.0675C371.905 76.1854 371.883 76.3023 371.838 76.4116C371.794 76.5209 371.729 76.6204 371.646 76.7045C371.563 76.7885 371.464 76.8554 371.356 76.9014C371.247 76.9474 371.13 76.9715 371.012 76.9724C370.894 76.9734 370.777 76.9511 370.668 76.9068C370.558 76.8625 370.459 76.7971 370.374 76.7144C368.165 74.5396 363.39 72.6518 357.884 74.7588C357.774 74.801 357.656 74.821 357.538 74.8179C357.42 74.8147 357.304 74.7883 357.196 74.7403C357.089 74.6922 356.991 74.6235 356.91 74.5379C356.829 74.4523 356.766 74.3516 356.723 74.2415C356.681 74.1315 356.661 74.0141 356.664 73.8963C356.668 73.7785 356.694 73.6625 356.742 73.5548C356.79 73.4472 356.859 73.35 356.945 73.269C357.03 73.1879 357.131 73.1245 357.241 73.0823C363.595 70.6523 369.085 72.9368 371.636 75.4346Z" fill="#B05907"/>
<path fill-rule="evenodd" clip-rule="evenodd" d="M368.336 81.9174C368.429 82.0778 368.454 82.2685 368.406 82.4474C368.358 82.6263 368.24 82.7787 368.08 82.8712C367.919 82.9638 367.728 82.9888 367.549 82.9407C367.37 82.8927 367.217 82.7756 367.125 82.6151C365.836 80.3804 361.565 79.8242 360.667 83.2351C360.62 83.414 360.504 83.567 360.344 83.6602C360.184 83.7535 359.993 83.7795 359.814 83.7324C359.635 83.6854 359.482 83.5691 359.388 83.4093C359.295 83.2495 359.269 83.0592 359.316 82.8802C360.573 78.1178 366.532 78.7936 368.336 81.9174Z" fill="#532407"/>
<path fill-rule="evenodd" clip-rule="evenodd" d="M353.974 83.6119C354.041 83.4413 354.172 83.3038 354.339 83.2289C354.506 83.1541 354.696 83.1479 354.868 83.2117C355.04 83.2755 355.18 83.4043 355.257 83.5701C355.335 83.736 355.344 83.9257 355.283 84.0983L352.114 92.6183C352.492 93.019 352.942 93.345 353.441 93.5792C353.82 93.7626 354.203 93.9002 354.511 93.8483C354.601 93.8329 354.694 93.8354 354.783 93.8557C354.873 93.876 354.957 93.9136 355.032 93.9666C355.107 94.0195 355.171 94.0867 355.22 94.1642C355.268 94.2417 355.301 94.3281 355.317 94.4184C355.332 94.5088 355.33 94.6012 355.31 94.6906C355.289 94.7799 355.252 94.8644 355.199 94.9392C355.146 95.014 355.078 95.0776 355.001 95.1265C354.923 95.1753 354.837 95.2084 354.746 95.2238C354.199 95.3155 353.501 95.16 352.83 94.8251C351.902 94.3746 351.034 93.629 350.721 93.0469C350.672 92.9589 350.642 92.8613 350.635 92.7607C350.627 92.6602 350.642 92.5592 350.677 92.4648L353.974 83.6019V83.6119Z" fill="#D6554F"/>
<path fill-rule="evenodd" clip-rule="evenodd" d="M357.483 101.457C357.391 101.447 357.302 101.418 357.222 101.373C357.141 101.328 357.07 101.268 357.013 101.195C356.956 101.123 356.913 101.04 356.888 100.951C356.863 100.862 356.855 100.769 356.866 100.678C356.877 100.586 356.906 100.498 356.951 100.417C356.996 100.337 357.056 100.266 357.129 100.208C357.201 100.151 357.284 100.109 357.373 100.084C357.462 100.059 357.555 100.051 357.646 100.062C357.646 100.062 361.452 100.522 363.603 97.6697C363.656 97.5916 363.725 97.5251 363.804 97.4741C363.884 97.4232 363.973 97.389 364.066 97.3734C364.16 97.3579 364.255 97.3615 364.347 97.3839C364.439 97.4064 364.525 97.4472 364.601 97.5039C364.676 97.5606 364.739 97.6321 364.787 97.7139C364.834 97.7958 364.864 97.8864 364.875 97.9802C364.886 98.0739 364.878 98.169 364.851 98.2596C364.824 98.3501 364.779 98.4343 364.719 98.507C362.103 101.992 357.483 101.457 357.483 101.457Z" fill="#A01E18"/>
<path fill-rule="evenodd" clip-rule="evenodd" d="M384.292 81.3613C384.032 81.6876 383.851 82.0687 383.761 82.4756C383.671 82.8825 383.675 83.3045 383.773 83.7096C383.791 83.7791 383.795 83.8514 383.785 83.9226C383.775 83.9937 383.751 84.0622 383.715 84.1241C383.679 84.186 383.63 84.2402 383.573 84.2834C383.516 84.3267 383.45 84.3583 383.381 84.3764C383.311 84.3944 383.239 84.3986 383.167 84.3887C383.096 84.3788 383.028 84.355 382.966 84.3186C382.904 84.2822 382.849 84.234 382.806 84.1767C382.763 84.1194 382.731 84.0542 382.713 83.9847C382.54 83.2662 382.576 82.5132 382.817 81.8146C383.058 81.116 383.495 80.5008 384.074 80.0416L384.098 80.0217C384.253 79.9028 384.416 79.7956 384.587 79.7007C385.617 79.1286 387.052 78.9392 388.86 79.5532C388.928 79.5762 388.991 79.6125 389.045 79.6598C389.099 79.7071 389.143 79.7646 389.175 79.829C389.207 79.8934 389.226 79.9635 389.231 80.0352C389.235 80.1069 389.226 80.1789 389.203 80.2469C389.18 80.315 389.144 80.3778 389.096 80.4319C389.049 80.486 388.991 80.5302 388.927 80.562C388.862 80.5939 388.792 80.6127 388.72 80.6175C388.649 80.6222 388.577 80.6128 388.508 80.5898C387.078 80.1034 385.942 80.203 385.128 80.6536C385.316 80.9988 385.583 81.2954 385.906 81.5199C386.229 81.7445 386.6 81.8908 386.99 81.9473C387.134 81.9642 387.266 82.0377 387.356 82.1515C387.446 82.2654 387.487 82.4103 387.47 82.5543C387.453 82.6984 387.379 82.8299 387.265 82.9198C387.151 83.0097 387.006 83.0507 386.862 83.0338C386.337 82.9618 385.834 82.7746 385.389 82.4854C384.945 82.1962 384.57 81.8123 384.292 81.3613Z" fill="#9B3A35"/>
<path fill-rule="evenodd" clip-rule="evenodd" d="M380.129 78.5544C380.129 78.5544 379.396 82.926 377.724 82.6011C375.473 82.1645 375.319 69.4642 375.489 65.9537C375.489 65.9537 370.414 68.5033 367.467 63.6353C367.467 63.6353 363.978 70.12 356.862 63.6353C356.862 63.6353 358.099 66.9225 355.904 68.2203C352.843 70.0323 347.165 69.6575 344.116 64.5044C343.884 68.1186 340.482 70.9334 331.705 66.7152C325.427 63.6971 318.801 49.4757 319.35 44.4442C319.949 38.9741 324.639 38.7848 326.812 39.6818C326.812 39.6818 319.945 33.7014 323.926 28.032C327.189 23.3813 334.315 26.22 334.315 26.22C334.315 26.22 331.522 19.4322 338.011 18.3657C348.438 16.6514 354.375 26.22 354.375 26.22C352.364 23.477 354.244 19.795 359.69 19.8409C377.64 20.0243 380.129 32.3359 380.129 32.3359C399.929 34.3732 399.205 65.0945 391.649 79.1305C391.25 76.1881 389.59 74.5714 387.458 73.9814C384.687 73.2219 381.262 74.9303 380.129 78.5544Z" fill="#9A4412"/>
<path fill-rule="evenodd" clip-rule="evenodd" d="M322.829 56.0662C320.536 51.5848 319.081 46.9102 319.35 44.4443C319.662 41.5856 321.146 39.8234 323.924 39.3151C320.825 44.4303 322.829 56.0662 322.829 56.0662ZM324.212 36.5581C322.815 34.3015 321.757 31.1239 323.924 28.0321C325.545 25.7236 328.115 25.2592 330.294 25.3788C323.828 28.0341 324.212 36.5581 324.212 36.5581ZM333.775 24.0451C333.517 21.96 333.932 19.0356 338.009 18.3658C342.23 17.672 345.714 18.8262 348.368 20.4469C339.129 18.1664 333.775 24.0352 333.775 24.0352V24.0451ZM354.409 21.7606C355.359 20.6224 357.131 19.825 359.69 19.8509C377.638 20.0343 380.129 32.3459 380.129 32.3459C394.276 33.8012 397.945 49.9004 396.131 64.0938C396.131 64.0938 394.325 48.3275 390.045 42.2255C386.385 37.0066 377.714 35.0291 377.714 35.0291C377.714 35.0291 374.048 26.3097 365.802 22.9547C361.741 21.3061 354.409 21.7606 354.409 21.7606Z" fill="#C77323"/>
<path fill-rule="evenodd" clip-rule="evenodd" d="M351.964 69.2091C349.198 69.1891 346.099 67.8595 344.113 64.5045C343.884 68.1186 340.479 70.9334 331.705 66.7152C328.971 65.3996 326.169 61.9608 323.922 58.0815C323.922 58.0815 332.104 65.7245 336.512 65.9537C340.921 66.183 342.834 61.4445 342.834 61.4445C342.834 61.4445 347.139 68.7187 351.96 69.219L351.964 69.2091ZM395.319 66.9564C394.674 71.5992 393.413 75.8652 391.649 79.1445C391.25 76.2021 389.587 74.5854 387.458 73.9954C384.682 73.2259 381.258 74.9243 380.124 78.5584C380.124 78.5584 379.392 82.9321 377.72 82.6051C375.468 82.1686 375.315 69.4682 375.485 65.9577C375.485 65.9577 370.41 68.5074 367.462 63.6393C367.462 63.6393 363.974 70.1241 356.857 63.6393C356.857 63.6393 358.095 66.9265 355.9 68.2243C355.538 68.4371 355.157 68.6147 354.762 68.7546C357.829 66.8966 355.323 60.4697 355.323 60.4697C355.323 60.4697 359.845 64.7876 363.166 64.0978C366.486 63.4081 366.183 58.0855 366.183 58.0855C366.183 58.0855 372.032 65.9039 378.408 59.4032C378.412 59.3992 380.392 74.0651 395.319 66.9564Z" fill="#76330F"/>
<path fill-rule="evenodd" clip-rule="evenodd" d="M118.096 168.635C118.302 168.801 118.435 169.041 118.464 169.304C118.493 169.567 118.416 169.831 118.25 170.037C118.085 170.244 117.844 170.376 117.58 170.405C117.317 170.434 117.053 170.357 116.847 170.192C104.713 160.476 101.067 148.19 99.1096 130.006C96.184 102.817 105.729 71.8903 130.772 54.4415C151.943 39.6899 199.399 33.0377 244.593 63.2666C244.706 63.3376 244.804 63.4306 244.88 63.5399C244.957 63.6493 245.01 63.7729 245.038 63.9033C245.066 64.0338 245.067 64.1684 245.042 64.2993C245.016 64.4302 244.965 64.5547 244.89 64.6655C244.816 64.7762 244.72 64.8709 244.608 64.9439C244.497 65.017 244.372 65.0669 244.24 65.0907C244.109 65.1146 243.974 65.1118 243.844 65.0827C243.714 65.0536 243.591 64.9986 243.482 64.9211C199.179 35.2883 152.67 41.6176 131.913 56.0781C107.491 73.0924 98.2395 103.277 101.093 129.792C102.991 147.413 106.336 159.222 118.096 168.635Z" fill="#8EADE2"/>
<path fill-rule="evenodd" clip-rule="evenodd" d="M94.0208 75.1795C93.9516 75.2168 93.8757 75.2401 93.7975 75.2481C93.7193 75.2561 93.6403 75.2487 93.5649 75.2262C93.4896 75.2037 93.4194 75.1666 93.3584 75.117C93.2975 75.0675 93.2469 75.0064 93.2096 74.9373C93.1722 74.8682 93.1489 74.7924 93.1409 74.7143C93.1328 74.6361 93.1403 74.5572 93.1628 74.4819C93.1853 74.4067 93.2224 74.3366 93.272 74.2757C93.3216 74.2148 93.3828 74.1642 93.452 74.1269L171.217 32.2303C171.286 32.193 171.362 32.1697 171.44 32.1617C171.518 32.1536 171.597 32.1611 171.673 32.1836C171.748 32.2061 171.818 32.2432 171.879 32.2927C171.94 32.3423 171.991 32.4034 172.028 32.4725C172.066 32.5416 172.089 32.6174 172.097 32.6955C172.105 32.7737 172.097 32.8526 172.075 32.9279C172.052 33.0031 172.015 33.0732 171.966 33.1341C171.916 33.195 171.855 33.2455 171.786 33.2828L94.0208 75.1795ZM263.739 80.9605C263.848 81.0687 263.91 81.2142 263.914 81.3671C263.918 81.52 263.864 81.6686 263.762 81.7824C263.659 81.8963 263.517 81.9667 263.365 81.9792C263.212 81.9917 263.061 81.9453 262.941 81.8496L219.599 42.9551C219.484 42.8483 219.417 42.7011 219.41 42.545C219.403 42.389 219.457 42.2364 219.562 42.12C219.666 42.0036 219.812 41.9325 219.968 41.9221C220.124 41.9116 220.278 41.9626 220.397 42.0641L263.739 80.9605ZM141.371 190.683C141.485 190.79 141.552 190.937 141.559 191.093C141.566 191.249 141.512 191.401 141.407 191.518C141.303 191.634 141.157 191.705 141.001 191.716C140.845 191.726 140.691 191.675 140.572 191.574L92.079 148.264C91.9605 148.158 91.8888 148.01 91.8799 147.851C91.8709 147.693 91.9252 147.537 92.0311 147.419C92.1369 147.3 92.2856 147.229 92.4442 147.22C92.6029 147.211 92.7587 147.265 92.8773 147.371L141.371 190.683Z" fill="#698CC9"/>
<path fill-rule="evenodd" clip-rule="evenodd" d="M263.172 78.4727C263.724 78.4727 264.264 78.6364 264.724 78.9431C265.183 79.2497 265.541 79.6856 265.753 80.1956C265.964 80.7055 266.02 81.2667 265.912 81.808C265.804 82.3494 265.538 82.8467 265.147 83.237C264.756 83.6273 264.259 83.8931 263.717 84.0008C263.175 84.1085 262.613 84.0532 262.102 83.842C261.592 83.6307 261.156 83.273 260.849 82.8141C260.542 82.3551 260.378 81.8155 260.378 81.2636C260.378 80.5234 260.672 79.8135 261.196 79.2901C261.72 78.7667 262.431 78.4727 263.172 78.4727ZM243.872 61.1515C244.425 61.1515 244.965 61.3152 245.424 61.6218C245.884 61.9285 246.242 62.3644 246.453 62.8744C246.665 63.3843 246.72 63.9454 246.612 64.4868C246.504 65.0282 246.238 65.5255 245.848 65.9158C245.457 66.3061 244.959 66.5719 244.417 66.6796C243.875 66.7873 243.313 66.732 242.803 66.5208C242.292 66.3095 241.856 65.9518 241.549 65.4929C241.242 65.0339 241.078 64.4943 241.078 63.9424C241.078 63.2022 241.373 62.4923 241.897 61.9689C242.42 61.4455 243.131 61.1515 243.872 61.1515ZM219.821 39.5663C220.374 39.5663 220.914 39.73 221.373 40.0366C221.833 40.3433 222.191 40.7792 222.402 41.2891C222.614 41.7991 222.669 42.3602 222.561 42.9016C222.453 43.443 222.187 43.9403 221.797 44.3306C221.406 44.7209 220.908 44.9867 220.366 45.0944C219.824 45.2021 219.262 45.1468 218.752 44.9355C218.241 44.7243 217.805 44.3666 217.498 43.9076C217.191 43.4487 217.027 42.9091 217.027 42.3571C217.027 41.617 217.321 40.9071 217.845 40.3837C218.369 39.8603 219.08 39.5663 219.821 39.5663ZM171.328 29.8143C171.88 29.8143 172.42 29.9779 172.88 30.2846C173.339 30.5913 173.697 31.0271 173.909 31.5371C174.12 32.0471 174.176 32.6082 174.068 33.1496C173.96 33.691 173.694 34.1882 173.303 34.5785C172.912 34.9688 172.415 35.2347 171.873 35.3423C171.331 35.45 170.769 35.3947 170.258 35.1835C169.748 34.9723 169.312 34.6146 169.005 34.1556C168.698 33.6967 168.534 33.1571 168.534 32.6051C168.534 32.2381 168.606 31.8747 168.747 31.5357C168.888 31.1967 169.094 30.8888 169.354 30.6296C169.614 30.3703 169.923 30.1649 170.263 30.025C170.602 29.8851 170.966 29.8135 171.334 29.8143H171.328ZM130.853 51.3835C131.405 51.3835 131.945 51.5472 132.405 51.8539C132.864 52.1605 133.222 52.5964 133.434 53.1064C133.645 53.6163 133.701 54.1775 133.593 54.7188C133.485 55.2602 133.219 55.7575 132.828 56.1478C132.438 56.5381 131.94 56.8039 131.398 56.9116C130.856 57.0193 130.294 56.964 129.783 56.7528C129.273 56.5416 128.837 56.1838 128.53 55.7249C128.223 55.2659 128.059 54.7264 128.059 54.1744C128.059 53.8074 128.131 53.444 128.272 53.105C128.413 52.766 128.619 52.4581 128.879 52.1988C129.139 51.9396 129.448 51.7342 129.788 51.5943C130.127 51.4544 130.491 51.3828 130.859 51.3835H130.853ZM93.5627 71.7787C94.1153 71.7787 94.6554 71.9423 95.1148 72.249C95.5743 72.5557 95.9325 72.9915 96.1439 73.5015C96.3554 74.0115 96.4106 74.5726 96.3028 75.114C96.195 75.6554 95.9289 76.1526 95.5382 76.5429C95.1475 76.9332 94.6497 77.1991 94.1078 77.3067C93.5658 77.4144 93.0041 77.3591 92.4935 77.1479C91.983 76.9367 91.5467 76.579 91.2397 76.12C90.9327 75.6611 90.7688 75.1215 90.7688 74.5695C90.7688 74.2025 90.8412 73.8391 90.982 73.5001C91.1228 73.1611 91.3292 72.8532 91.5893 72.594C91.8494 72.3347 92.158 72.1293 92.4976 71.9894C92.8373 71.8495 93.2013 71.7779 93.5687 71.7787H93.5627ZM117.171 167.078C117.723 167.078 118.264 167.242 118.723 167.549C119.182 167.855 119.54 168.291 119.752 168.801C119.963 169.311 120.019 169.872 119.911 170.414C119.803 170.955 119.537 171.452 119.146 171.842C118.756 172.233 118.258 172.499 117.716 172.606C117.174 172.714 116.612 172.659 116.102 172.447C115.591 172.236 115.155 171.878 114.848 171.42C114.541 170.961 114.377 170.421 114.377 169.869C114.377 169.502 114.449 169.139 114.59 168.8C114.731 168.461 114.937 168.153 115.197 167.893C115.457 167.634 115.766 167.429 116.106 167.289C116.445 167.149 116.809 167.077 117.177 167.078H117.171ZM92.3095 144.875C92.8621 144.875 93.4022 145.039 93.8616 145.345C94.3211 145.652 94.6792 146.088 94.8906 146.598C95.1021 147.108 95.1574 147.669 95.0496 148.21C94.9418 148.752 94.6757 149.249 94.285 149.639C93.8943 150.03 93.3964 150.295 92.8545 150.403C92.3125 150.511 91.7508 150.455 91.2402 150.244C90.7297 150.033 90.2935 149.675 89.9865 149.216C89.6795 148.757 89.5156 148.218 89.5156 147.666C89.5156 147.299 89.588 146.935 89.7288 146.596C89.8696 146.257 90.0759 145.95 90.336 145.69C90.5961 145.431 90.9048 145.226 91.2444 145.086C91.5841 144.946 91.948 144.874 92.3154 144.875H92.3095ZM140.787 188.185C141.339 188.185 141.88 188.349 142.339 188.655C142.798 188.962 143.157 189.398 143.368 189.908C143.579 190.418 143.635 190.979 143.527 191.52C143.419 192.062 143.153 192.559 142.762 192.949C142.372 193.34 141.874 193.605 141.332 193.713C140.79 193.821 140.228 193.765 139.718 193.554C139.207 193.343 138.771 192.985 138.464 192.526C138.157 192.067 137.993 191.528 137.993 190.976C137.993 190.609 138.065 190.245 138.206 189.906C138.347 189.567 138.553 189.26 138.813 189C139.073 188.741 139.382 188.536 139.722 188.396C140.061 188.256 140.425 188.184 140.793 188.185H140.787Z" fill="#2E508A"/>
<path fill-rule="evenodd" clip-rule="evenodd" d="M151.637 167.357C154.758 226.103 204.52 192.004 226.69 211.564C247.214 229.671 224.253 269.867 250.95 293.573C267.462 308.233 303.195 289.349 326.185 302.827C350.795 317.256 343.86 351.135 370.457 367.884C386.554 378.021 403.405 356.122 421.85 391.534C425.424 386.762 425.586 373.35 423.447 367.884C416.358 349.787 377.191 366.931 366.119 352.821C360.553 345.726 361.836 335.197 361.435 326.78C360.603 309.334 354.267 288.307 338.41 278.592C321.425 268.181 301.89 271.914 283.379 274.38C274.257 275.596 258.15 278.668 250.954 271.276C236.753 256.684 260.819 219.925 245.518 204.641C224.377 183.522 196.245 223.204 151.641 167.363L151.637 167.357Z" fill="#5BC281"/>
<path fill-rule="evenodd" clip-rule="evenodd" d="M194.913 204.47C194.913 204.47 226.982 200.778 235.97 213.382C244.958 225.987 236.551 244.847 236.816 260.081C235.619 241.518 239.095 222.508 226.693 211.566C218.58 204.41 206.774 204.436 194.913 204.47ZM247.445 290.057C250.782 293.047 267.601 297.931 297.621 291.851C316.633 288.006 344.372 297.815 348.367 313.028C352.362 328.24 358.06 356.146 358.06 356.146C345.372 338.428 345.902 314.383 326.184 302.823C303.198 289.345 267.465 308.229 250.949 293.569C249.71 292.472 248.54 291.299 247.445 290.057ZM406.331 358.953C398.672 361.315 387.832 364.317 382.185 364.317C375.25 364.317 368.95 356.762 366.178 352.893C373.34 361.875 392.019 358.048 406.335 358.953H406.331ZM199.241 198.693C194.98 199.185 190.317 199.229 185.655 198.372C173.845 196.199 159.113 175.995 159.113 175.995C174.378 192.232 187.615 197.427 199.249 198.693H199.241Z" fill="#339461"/>
<path fill-rule="evenodd" clip-rule="evenodd" d="M270.207 275.935C275.036 275.638 279.758 274.863 283.378 274.38C301.891 271.916 321.426 268.183 338.411 278.592C338.902 278.893 339.385 279.207 339.858 279.527L349.305 288.715C357.303 299.468 360.83 314.074 361.436 326.79C361.53 328.784 361.532 330.883 361.55 333.032C360.421 314.529 344.947 293.522 332.967 286.365C313.743 274.879 272.253 276.749 272.253 276.749L270.207 275.951V275.935ZM217.373 198.372C228.15 197.397 237.359 196.492 245.511 204.641C256.95 216.067 246.387 239.499 246.262 256.694C245.717 252.721 245.292 248.101 245.38 243.701C245.601 232.615 245.162 217.445 240.834 209.571C236.559 201.796 217.826 198.453 217.367 198.372H217.373Z" fill="#74F293"/>
<path fill-rule="evenodd" clip-rule="evenodd" d="M234.021 93.5154C234.021 95.4889 235.183 103.66 235.7 105.578C239.154 118.376 255.281 110.262 261.104 115.467C267.077 120.804 263.437 135.888 275.688 136.07C277.014 136.057 278.33 135.824 279.579 135.378C275.788 135.378 272.916 131.69 272.181 128.401C270.811 122.235 273.684 113.849 268.117 109.182C258.045 100.754 242.866 115.127 234.021 93.5233V93.5154Z" fill="#9A73F7"/>
<path fill-rule="evenodd" clip-rule="evenodd" d="M256.8 358.614C253.15 390.35 289.19 373.745 298.203 380.969C304.588 386.092 300.547 399.598 306.692 406.924C317.163 419.409 331.074 409.378 342.699 414.678C351.918 418.883 349.105 433.871 360.845 435.456C348.133 425.648 358.761 406.24 349.749 401.739C338.185 395.958 321.978 414.86 316.273 406.922C311.882 400.804 320.948 379.46 310.276 370.762C297.083 360.012 262.1 380.199 256.794 358.612L256.8 358.614Z" fill="#E56164"/>
<path fill-rule="evenodd" clip-rule="evenodd" d="M265.441 377.56C278.642 380.094 294.316 374.638 303.101 378.666C306.13 380.062 306.459 384.081 306.657 387.171C306.856 390.386 304.228 403.349 310.818 410.655C309.267 409.62 307.877 408.363 306.693 406.924C300.546 399.598 304.591 386.092 298.201 380.969C292.482 376.384 275.878 381.395 265.441 377.56ZM316.894 413.103C326.886 413.201 342.935 406.661 349.65 415.713C353.174 420.465 349.185 428.21 360.426 435.392C349.179 433.505 351.813 418.831 342.707 414.678C334.571 410.969 325.314 414.768 316.902 413.103H316.894Z" fill="#BB393C"/>
<path fill-rule="evenodd" clip-rule="evenodd" d="M315.468 392.29C315.468 392.29 313.288 375.875 299.884 372.606C289.261 370.015 281.566 376.37 268.301 374.374C264.909 373.862 259.606 370.37 256.842 366.845C256.465 364.547 256.427 361.828 256.799 358.61C262.099 380.197 297.082 360.006 310.281 370.76C316.23 375.616 316.036 384.408 315.468 392.29ZM355.096 426.948C352.404 422.55 354.621 407.155 344.196 404.547C339.592 403.395 330.84 405.134 330.439 405.323C336.745 402.265 343.853 398.792 349.752 401.735C356.571 405.142 352.147 417.084 355.096 426.944V426.948Z" fill="#F58989"/>
<defs>
<radialGradient id="paint0_radial_325_7278" cx="0" cy="0" r="1" gradientUnits="userSpaceOnUse" gradientTransform="translate(283.75 253.763) rotate(90.5712) scale(183.272 152.493)">
<stop offset="0.590254" stop-color="#007BFF"/>
<stop offset="1" stop-color="#243E86"/>
</radialGradient>
<linearGradient id="paint1_linear_325_7278" x1="491.897" y1="28.4215" x2="491.897" y2="100.162" gradientUnits="userSpaceOnUse">
<stop stop-color="#5AB0FC"/>
<stop offset="1" stop-color="#4F81F5"/>
</linearGradient>
<linearGradient id="paint2_linear_325_7278" x1="309.345" y1="147.74" x2="309.345" y2="283.375" gradientUnits="userSpaceOnUse">
<stop stop-color="#FFBC57"/>
<stop offset="1" stop-color="#FCA83B"/>
</linearGradient>
<linearGradient id="paint3_linear_325_7278" x1="445.121" y1="147.74" x2="445.121" y2="283.375" gradientUnits="userSpaceOnUse">
<stop stop-color="#FFBC57"/>
<stop offset="1" stop-color="#FCA83B"/>
</linearGradient>
</defs>
</svg>
