<svg
        width="300px"
        height="300px"
        viewBox="0 0 14 18"
        xmlns="http://www.w3.org/2000/svg"
      >
        <g stroke="none" strokeWidth="1" fill="none" fillRule="evenodd">
          <path
            d="M13.0986667,16.465 L12.7226667,16.465 C12.6796667,16.031 12.5996667,15.6073333 12.4886667,15.1963333 C12.084,13.6953333 11.269,12.3646667 10.352,11.3396667 C9.52833333,10.4183333 8.623,9.74333333 7.859,9.41433333 C7.859,9.41433333 7.56766667,9.20133333 7.56766667,8.97866667 C7.56766667,8.75633333 7.859,8.54533333 7.859,8.54533333 C9.687,7.74033333 12.3786667,4.93333333 12.7223333,1.50133333 L13.0986667,1.50133333 C13.5006667,1.50133333 13.8266667,1.17533333 13.8266667,0.773666667 C13.8266667,0.371666667 13.5006667,0.0456666667 13.0986667,0.0456666667 L0.776,0.0456666667 C0.374,0.0456666667 0.048,0.371666667 0.048,0.773666667 C0.048,1.17533333 0.374,1.50133333 0.776,1.50133333 L1.152,1.50133333 C1.49233333,4.93666667 4.15866667,7.745 6.00533333,8.54733333 C6.00533333,8.54733333 6.31133333,8.737 6.31133333,8.97866667 C6.31133333,9.22033333 6.01566667,9.421 6.01566667,9.421 C5.26233333,9.75266667 4.36333333,10.4246667 3.54166667,11.3396667 C2.62066667,12.3646667 1.79833333,13.6953333 1.389,15.1963333 C1.277,15.6073333 1.196,16.031 1.15266667,16.465 L0.776,16.465 C0.374,16.465 0.048,16.791 0.048,17.1926667 C0.048,17.5946667 0.374,17.9206667 0.776,17.9206667 L13.0986667,17.9206667 C13.5006667,17.9206667 13.8266667,17.5946667 13.8266667,17.1926667 C13.8263333,16.791 13.5006667,16.465 13.0986667,16.465 Z"
            fill="#060606"
          />
          <g>
            <path
              id="sand"
              d="M7.00695799,10.3484497 C7.00695799,10.3484497 6.27532958,10.4129639 7.00695799,10.3484497 C7.73858641,10.2839355 7.00695799,10.3484497 7.00695799,10.3484497 C7.00695799,10.3484497 7.78173827,9.99768063 7.09265135,10.548584 C6.40356444,11.0994873 7.09265137,10.548584 7.09265137,10.548584 L7.09265137,10.5493774 L11.4924319,16.4705197 L2.52148436,16.4705197 L6.87243652,10.5493774 L6.80957031,10.548584 C6.80957031,10.548584 7.1925659,10.737854 6.87243651,10.548584 C6.37234656,10.2529159 7.00695799,10.3484497 7.00695799,10.3484497 Z"
              fill="#C62626"
            >
              <animate
                attributeName="d"
                dur="3s"
                repeatCount="once"
                keyTimes="0; .01; .2; .4; .7; .8; .99; 1"
                values="M2.33630371,3.07006836 C2.33630371,3.07006836 5.43261719,3.33813477 6.80957031,3.33813477 C8.18652344,3.33813477 11.3754883,3.07006836 11.3754883,3.07006836 C11.3754883,3.07006836 10.8122559,4.96514893 9.58630371,6.16516113 C8.36035156,7.36517334 7.09265137,8.2623291 7.09265137,8.2623291 L7.09265137,8.35028076 L7.09265137,8.46459961 L6.87243652,8.46459961 L6.87243652,8.35028076 L6.80957031,8.2623291 C6.80957031,8.2623291 4.9704053,7.27703707 3.96130371,5.96057129 C2.5045166,4.06005859 2.33630371,3.07006836 2.33630371,3.07006836 Z;
              M2.375,3.11462402 C2.375,3.11462402 5.71569824,3.44421387 7.09265137,3.44421387 C8.46960449,3.44421387 11.4150391,3.31262207 11.4150391,3.31262207 C11.4150391,3.31262207 10.8122559,4.96514893 9.58630371,6.16516113 C8.36035156,7.36517334 7.09265137,8.2623291 7.09265137,8.2623291 L7.09265137,15.5496216 L7.09265137,16.47052 L6.87243652,16.47052 L6.87243652,15.5496216 L6.80957031,8.2623291 C6.80957031,8.2623291 4.9704053,7.27703707 3.96130371,5.96057129 C2.5045166,4.06005859 2.375,3.11462402 2.375,3.11462402 Z;
              M2.49230957,3.31262207 C2.49230957,3.31262207 5.71569824,3.66851807 7.09265137,3.66851807 C8.46960449,3.66851807 11.3153076,3.53222656 11.3153076,3.53222656 C11.3153076,3.53222656 10.8122559,4.96514893 9.58630371,6.16516113 C8.36035156,7.36517334 7.09265137,8.2623291 7.09265137,8.2623291 L7.09265137,15.149231 L7.9152832,16.47052 L6.10144043,16.47052 L6.87243652,15.149231 L6.80957031,8.2623291 C6.80957031,8.2623291 4.9704053,7.27703707 3.96130371,5.96057129 C2.5045166,4.06005859 2.49230957,3.31262207 2.49230957,3.31262207 Z;
              M2.72753906,3.44104004 C2.72753906,3.44104004 5.71569824,3.86877441 7.09265137,3.86877441 C8.46960449,3.86877441 11.0794678,3.68652344 11.0794678,3.68652344 C11.0794678,3.68652344 10.8122559,4.96514893 9.58630371,6.16516113 C8.36035156,7.36517334 7.09265137,8.2623291 7.09265137,8.2623291 L7.09265137,15.0685425 L8.45874023,16.47052 L5.5592041,16.47052 L6.87243652,15.0685425 L6.80957031,8.2623291 C6.80957031,8.2623291 4.9704053,7.27703707 3.96130371,5.96057129 C2.5045166,4.06005859 2.72753906,3.44104004 2.72753906,3.44104004 Z;
              M3.17004395,3.65887451 C3.17004395,3.65887451 5.71569824,4.1494751 7.09265137,4.1494751 C8.46960449,4.1494751 10.8846436,3.93170166 10.8846436,3.93170166 C10.8846436,3.93170166 10.8122559,4.96514893 9.58630371,6.16516113 C8.36035156,7.36517334 7.09265137,8.2623291 7.09265137,8.2623291 L7.09265137,14.9977112 L9.10290527,16.47052 L5.10394287,16.47052 L6.87243652,14.9977112 L6.80957031,8.2623291 C6.80957031,8.2623291 4.9704053,7.27703707 3.96130371,5.96057129 C2.5045166,4.06005859 3.17004395,3.65887451 3.17004395,3.65887451 Z;
              M3.49243164,3.99645996 C3.49243164,3.99645996 5.71569824,4.66851807 7.09265137,4.66851807 C8.46960449,4.66851807 10.5639648,4.21850586 10.5639648,4.21850586 C10.5639648,4.21850586 10.8122559,4.96514893 9.58630371,6.16516113 C8.36035156,7.36517334 7.09265137,8.2623291 7.09265137,8.2623291 L7.09265137,14.8682251 L9.7467041,16.47052 L4.47106934,16.47052 L6.87243652,14.8682251 L6.80957031,8.2623291 C6.80957031,8.2623291 4.9704053,7.27703707 3.96130371,5.96057129 C2.5045166,4.06005859 3.49243164,3.99645996 3.49243164,3.99645996 Z;
              M3.64733887,4.00628662 C3.64733887,4.00628662 5.71569824,4.66851807 7.09265137,4.66851807 C8.46960449,4.66851807 10.5639648,4.21850586 10.5639648,4.21850586 C10.5639648,4.21850586 10.8122559,4.96514893 9.58630371,6.16516113 C8.36035156,7.36517334 7.09265137,8.2623291 7.09265137,8.2623291 L7.09265137,13.5206299 L9.87231445,16.47052 L4.12316895,16.47052 L6.87243652,13.5206299 L6.80957031,8.2623291 C6.80957031,8.2623291 4.9704053,7.27703707 3.96130371,5.96057129 C2.5045166,4.06005859 3.64733887,4.00628662 3.64733887,4.00628662 Z;
              M7.00695799,10.3484497 C7.00695799,10.3484497 6.27532958,10.4129639 7.00695799,10.3484497 C7.73858641,10.2839355 7.00695799,10.3484497 7.00695799,10.3484497 C7.00695799,10.3484497 7.78173827,9.99768063 7.09265135,10.548584 C6.40356444,11.0994873 7.09265137,10.548584 7.09265137,10.548584 L7.09265137,10.5493774 L11.4924319,16.4705197 L2.52148436,16.4705197 L6.87243652,10.5493774 L6.80957031,10.548584 C6.80957031,10.548584 7.1925659,10.737854 6.87243651,10.548584 C6.37234656,10.2529159 7.00695799,10.3484497 7.00695799,10.3484497 Z"
              />
            </path>
          </g>
        </g>
      </svg>